<?xml version="1.0" encoding="UTF-8" standalone="no"?>
<!-- Created with Inkscape (http://www.inkscape.org/) -->
<svg xmlns:rdf="http://www.w3.org/1999/02/22-rdf-syntax-ns#" xmlns="http://www.w3.org/2000/svg" xmlns:cc="http://web.resource.org/cc/" xmlns:dc="http://purl.org/dc/elements/1.1/" xmlns:svg="http://www.w3.org/2000/svg" xmlns:inkscape="http://www.inkscape.org/namespaces/inkscape" xmlns:sodipodi="http://sodipodi.sourceforge.net/DTD/sodipodi-0.dtd" xmlns:ns1="http://sozi.baierouge.fr" xmlns:xlink="http://www.w3.org/1999/xlink" id="svg2" viewBox="0 0 466 500" version="1.1" inkscape:version="0.91 r13725">
  <g id="g2818">
    <path id="path2824" style="fill:#fafafa" d="m0 250v-250h233 233v250 250h-233-233v-250z"/>
    <path id="path2822" style="fill:#5f5f5f" d="m222.76 497.85c-0.14-0.4-4.98-0.95-10.76-1.22-5.775-0.27249-12.927-0.97598-15.892-1.5633-8.353-1.6542-25.515-6.7926-34.489-10.326-10.31-4.06-34.51-17.19-45.79-24.85-4.77-3.24-8.99-5.89-9.39-5.89-0.39517 0-3.9188-2.4555-7.8302-5.4568-6.8573-5.2616-16.245-15.433-23.591-25.562-1.9362-2.6694-6.0854-8.3697-9.2204-12.667-4.909-6.73-15.799-23.95-15.799-24.98 0-0.19-2.537-4.73-5.637-10.09-3.238-5.59-5.763-11.23-5.933-13.24-0.28-3.32-4.217-14.88-6.374-18.72-1.788-3.18-6.982-20.1-7.988-26.01-0.539-3.18-1.249-6.89-1.576-8.27-0.32715-1.375-0.80977-3.625-1.0725-5-0.2627-1.375-0.71485-3.165-1.0048-3.9778-0.28991-0.81278-0.92216-4.4128-1.405-8-0.914-6.79-2.572-18.99-3.4-25.02-1.3613-9.9125-1.7276-13.542-2.5718-25.476-0.69536-9.831-0.58455-15.285 0.45717-22.5 0.75625-5.2381 1.6151-12.674 1.9086-16.524 0.78415-10.286 7.127-43.069 10.158-52.5 4.3093-13.41 15.063-34.487 20.919-41 1.2362-1.375 4.6379-6.1 7.5592-10.5 11.591-17.459 39.672-45.546 50.21-50.221 2.06-0.915 3.75-2.026 3.75-2.469 0-0.44285 2.3625-1.9855 5.25-3.4282 2.8875-1.4426 7.5-3.7528 10.25-5.1336 2.75-1.3809 7.8671-3.5933 11.371-4.9165 3.5043-1.3232 7.7793-3.1716 9.5-4.1074 1.7207-0.93586 3.5786-1.749 4.1286-1.807 0.55-0.05796 2.2849-0.63242 3.8552-1.2766 1.5704-0.64416 5.8454-1.8673 9.5-2.7182 3.6546-0.85085 9.1198-2.168 12.145-2.9269 3.025-0.75895 12.454-2.7802 20.954-4.4917 13.925-2.804 17.19-3.1054 33-3.0472 9.6503 0.03551 23.171 0.75664 30.046 1.6025 6.875 0.84587 14.3 1.7471 16.5 2.0028 19.338 2.2475 54.297 9.8171 58.935 12.762 1.1355 0.72074 4.7645 2.1328 8.0645 3.1379 6.028 1.836 15.556 6.4263 23 11.08 2.2 1.3755 4.675 2.7948 5.5 3.1541 0.825 0.35927 4.8363 2.8883 8.914 5.62 16.604 11.123 27.459 25.294 46.102 60.184 11.376 21.29 18.223 38.562 19.543 49.301 0.25014 2.0344 1.3319 8.1989 2.4039 13.699 1.072 5.5 2.2144 12.025 2.5388 14.5 0.32433 2.475 0.81292 6.075 1.0858 8 0.27283 1.925 0.92266 6.65 1.4441 10.5 0.5214 3.85 1.1603 8.125 1.4198 9.5s0.74056 4.975 1.069 8c0.32846 3.025 1.0204 8.2 1.5377 11.5 2.5779 16.447 3.2348 74.988 1.0773 96-0.6777 6.6-1.9429 14.475-2.8116 17.5-3.7522 13.066-8.4945 26.576-9.6534 27.5-0.68969 0.55-2.329 2.8-3.643 5-8.3207 13.931-31.994 48.43-36.783 53.602-4.69 5.06-24.27 20.9-25.84 20.9-0.23811 0-4.7982 2.9598-10.134 6.5772-26.764 18.147-47.8 26.583-69.774 27.984-3.85 0.24536-10.6 0.87326-15 1.3953-16.149 1.9161-25.762 2.8288-37.5 3.5604-4.675 0.2914-11.757 0.87374-15.737 1.2941-3.9806 0.42035-7.3556 0.43787-7.5 0.0389zm87.021-10.237c4.5559-0.74076 8.5209-1.5842 8.811-1.8744 0.29014-0.29014 0.0586-3.1626-0.51462-6.3832-0.57319-3.2206-1.4279-10.695-1.8993-16.611-0.47142-5.9152-1.0424-10.94-1.2689-11.167-0.22646-0.22641-4.0117 1.3302-8.4117 3.4592s-8.7267 3.6554-9.6148 3.3921c-1.8879-0.55969-1.7564 2.0802 0.75049 15.07 0.84915 4.4 1.7758 9.6875 2.0592 11.75 0.28339 2.0625 0.80549 3.741 1.1602 3.73 0.35473-0.011 4.3725-0.62607 8.9285-1.3668zm16.047-3.4873c1.0747-0.68131 0.64211-3.6361-2.25-15.367-1.97-7.98-3.58-15.41-3.58-16.51 0-2.5659 1.4132-3.6859 7.5045-5.9476 5.7382-2.1306 7.765-5.1121 6.9963-10.292-0.28564-1.925-0.94229-8.5023-1.4592-14.616-1.62-19.12-8.76-44.33-17.26-60.88-4.14-8.06-17.52-19.22-28.78-23.99-4.0372-1.7119-15.121-9.4669-14.081-9.8517 1.02-0.38-2.14-4.66-3.43-4.66-1.9749 0-5.0522-4.8357-3.8453-6.0425 0.51692-0.51692 2.9463-1.3292 5.3986-1.8051 5.9813-1.1607 14.469-5.3922 19.926-9.9343 5.62-4.68 18.03-17.26 18.03-18.28 0-0.42065 1.575-3.1563 3.5-6.0793s3.5-5.6555 3.5-6.0723c0-0.41678 1.341-2.9372 2.98-5.601s3.1428-5.9093 3.3416-7.2122c0.36-2.36 2.68-4.14 2.68-2.06 0 1.6343 4.8254 1.2996 7.9602-0.55221 4.5701-2.6996 6.422-6.9489 6.4703-14.847 0.0236-3.8597-0.53778-8.9557-1.2476-11.324-1.4798-4.9385-7.3563-11.948-10.726-12.793-2.5824-0.64815-3.7965-3.2442-5.5653-11.9-1.5614-7.6408-4.3902-13.318-12.083-24.248-7.9683-11.322-10.954-14.462-18.282-19.226-7.715-5.0155-18.902-8.5563-34.027-10.77l-12-1.7562-0.31592-3.2843c-0.17376-1.8064 0.63642-6.0362 1.8004-9.3996 2.3294-6.7309 1.5776-9.5397-1.7477-6.5303-1.0603 0.95957-2.6872 1.4092-3.9263 1.0852-1.5716-0.41098-2.7134 0.25498-4.4391 2.5891-2.1364 2.8896-2.4258 3.0022-3.5974 1.4-0.9799-1.3401-1.2845-1.4096-1.3192-0.30124-0.0248 0.79262-0.6229 2.7911-1.3291 4.4411l-1.284 3-1.7848-3.75c-2.0267-4.2582-3.0168-4.6278-4.5787-1.7095-1.0861 2.0294-1.1025 2.028-3.0019-0.25l-1.9-2.29-0.16 2.5c-0.0882 1.375-0.21562 5.2-0.28327 8.5-0.14761 7.201-2.3999 8.3489-4.149 2.1146-1.01-3.57-4.49-7.62-6.56-7.62-2.205 0-2.837 3.9009-1.4798 9.1332 0.76529 2.9502 1.3064 5.4491 1.2025 5.553-0.10388 0.10389-3.7795 0.48914-8.168 0.85612-15.018 1.2558-21.203 4.1385-32.664 15.223-8.4683 8.1902-18.218 29.956-19.474 43.479-0.34856 3.7503-1.0178 7.0561-1.4872 7.3462-0.46941 0.29011-0.85347 0.0509-0.85347-0.53154 0-1.6328-4.0529-1.2181-8.6962 0.88995-3.242 1.4719-4.7769 3.051-6.75 6.9448-5.8315 11.508-1.697 26.589 9.4253 34.379 2.6677 1.8685 15.021 2.5219 15.021 0.79455 0-1.1894-2.4982-1.8592-7.24-1.9411-10.392-0.17959-17.873-10.995-16.382-23.681 0.77501-6.5941 1.8307-8.8936 5.8806-12.809 2.7334-2.6426 3.3583-2.8117 8.0772-2.1857 2.813 0.37317 5.6227 1.1002 6.2438 1.6156 0.81684 0.67792 1.4169-1.9078 2.1694-9.3481 1.8157-17.953 10.663-36.788 21.714-46.23 5.49-4.68 18.85-11.48 22.58-11.48 1.1942 0 4.8399-0.69153 8.1016-1.5367 3.2617-0.8452 6.3642-1.2686 6.8943-0.94099 1.3436 0.83041 1.2063-0.58377-0.53607-5.5223-1.7641-5-1.7641-5-0.59241-5 0.49917 0 1.4938 2.2873 2.2103 5.0829 1.2509 4.8806 1.4188 5.0597 4.2174 4.5 1.6031-0.32062 3.5842-0.58294 4.4025-0.58294 1.2127 0 1.4149-1.291 1.0933-6.9816-0.21697-3.8399-0.0675-6.6524 0.33225-6.25 0.39971 0.40241 0.86395 3.4273 1.0316 6.7219 0.24666 4.846 0.65091 6.0562 2.1162 6.3351 1.5313 0.29154 1.7326-0.17065 1.3022-2.9903-1.39-9.11-1.56-11.83-0.74-11.83 0.49189 0 1.213 3.401 1.6026 7.5577 0.64266 6.8582 0.89726 7.5292 2.7507 7.25 1.4678-0.22109 2.1083-1.1518 2.2762-3.3077 0.482-6.188 1.7084-11.5 2.6551-11.5 0.56296 0 0.67255 0.95682 0.25771 2.25-2.1314 6.6443-2.2873 11.75-0.35873 11.75 0.97117 0 1.1883-0.81445 3.0026-11.262 0.64586-3.7193 1.5903-7.0195 2.0988-7.3338 0.51616-0.319 0.68954 0.45944 0.39252 1.7624-1.932 8.4753-2.5022 11.657-2.5237 14.084-0.0445 5.005 1.4996 2.8548 2.7739-3.8628 1.2269-6.4677 4.8914-16.031 5.7962-15.126 0.25068 0.25069-0.42754 2.5165-1.5072 5.0352-1.7398 4.0586-4.4838 15.692-3.8346 16.258 0.13604 0.11847 4.1207 0.46928 8.8548 0.77958 12.576 0.82432 28.645 5.3315 38.52 10.804 8.3267 4.6151 15.786 11.226 20.612 18.268 4.0571 5.9203 7.7608 14.463 7.7608 17.901 0 1.0096 0.63874 2.4743 1.4194 3.255 0.78068 0.78069 1.7261 4.2829 2.1009 7.7828 0.82305 7.6855 1.3111 8.5774 5.0607 9.2486 4.3639 0.78122 7.1628 2.9838 9.424 7.4161 2.7041 5.3005 2.7056 12.16 0.004 19.301-2.5574 6.7598-5.4381 8.6058-10.58 6.7798-4.2707-1.5165-4.2571-1.5236-5.0326 2.61-0.38182 2.0353-2.3147 6.3617-4.2953 9.6142s-4.4931 7.5498-5.5832 9.5495c-2.3756 4.3574-16.812 18.96-24.582 24.864-5.8583 4.4518-11.672 7.1423-21.186 9.8047-3.1625 0.885-5.75 1.8691-5.75 2.1869s2.0738 3.0984 4.6085 6.179c4.6107 5.6039 14.861 14.071 17.058 14.091 0.64166 0.006 1.3167 0.34801 1.5 0.76051 0.54293 1.2216 6.9009 5.6431 13.333 9.2723 16.83 9.4955 25.333 26 31.486 61.11 4.149 23.678 5.0058 28.431 5.5141 30.587 0.43954 1.8651-0.75689 3.1164-7.4936 7.8369-4.4092 3.0896-7.8298 5.9198-7.6015 6.2892 0.22835 0.36949 0.92054 6.0679 1.5382 12.663 1.8335 19.578 3.3352 23.503 7.8878 20.617zm-162.93-18.14 0.1-6.52l-6.5548-1.7192c-3.6052-0.94556-9.6511-3.2731-13.436-5.1724l-6.8807-3.4532-0.61547 5.69c-0.33851 3.1295-0.8223 7.265-1.0751 9.19-0.25279 1.925-0.0984 4.0502 0.34311 4.7226 0.44149 0.67244 6.6338 4.2106 13.761 7.8625l12.958 6.6399 0.6511-5.3625c0.35811-2.9494 0.69561-8.2954 0.75-11.88zm-29.511-9.998 0.62764-8.4844-3.9181-2.8737c-2.155-1.5805-6.0575-5.0457-8.6723-7.7004-3.6151-3.6702-4.4952-5.1387-3.6735-6.1288 1.1052-1.3317 5.1797-11.094 5.7584-13.797 0.7736-3.6135 2.3913-9.9141 3.8512-15 0.86835-3.025 2.9616-10.632 4.6516-16.904 1.69-6.2724 4.1706-13.725 5.5123-16.561 3.1353-6.6275 11.071-15.329 21.463-23.535 4.5278-3.575 9.931-7.8841 12.007-9.5758l3.7747-3.0758-6.897-2.3916c-3.7933-1.3154-6.7535-2.8221-6.5781-3.3482 0.17537-0.52613 3.2178-2.722 6.7608-4.8797 5.6714-3.4538 6.9803-3.8592 10.942-3.3892l4.5 0.53386-3.6552-1.3516c-2.0104-0.74338-4.9354-2.1452-6.5-3.1152-3.8-2.35-10.34-8.56-10.34-9.81 0-0.55289 1.9125 0.84253 4.25 3.1009 5.7082 5.515 13.496 9.2367 21.293 10.175 3.5363 0.42573 6.2267 0.57108 5.9786 0.32299-0.24808-0.24809 0.0276-1.3454 0.61258-2.4385 0.89628-1.6747 1.7869-1.9059 5.6604-1.4693 5.3143 0.599 3.8984-0.39479-3.2944-2.3122-2.75-0.73309-8.1384-3.2758-11.974-5.6505-6.1-3.77-7.7-4.32-12.69-4.32-3.1409 0-6.9383 0.46672-8.4387 1.0372-1.8552 0.70533-3.0544 0.71066-3.7484 0.0167-1.7674-1.7674-0.0782-2.2115 9.0709-2.3851l8.8956-0.1688-6.6231-6.5c-3.6427-3.575-7.413-8.075-8.3783-10-2.1489-4.2852-5.491-9.743-7.9829-13.036-2.271-3.0014-2.0434-1.9322 1.9237 9.0364 1.7995 4.9755 4.0132 8.8591 6.5765 11.538 2.1251 2.2208 3.8639 4.3188 3.8639 4.6621 0 0.34334-1.9125 0.92168-4.25 1.2852-8.13 1.2644-7.987 1.13-5.7877 5.441 1.066 2.0895 4.2105 5.8421 6.9879 8.3392s5.0498 5.0605 5.0498 5.6964c0 0.63594-0.43506 0.88737-0.96681 0.55873-0.53174-0.32863-3.666 1.8839-6.965 4.9168l-5.9982 5.5143 3.215 2.4081c1.7682 1.3245 4.2523 2.7235 5.52 3.109 1.2678 0.38551 2.1678 1.0981 2 1.5835-0.16778 0.48539-4.1293 3.4847-8.8033 6.6651-15.85 10.78-27.48 30.57-32.5 55.28-1.9443 9.5811-7.6688 28.485-9.9784 32.951-0.83896 1.6224-1.5254 3.1098-1.5254 3.3055 0 0.19562 4.0181 3.8283 8.9291 8.0727l8.9291 7.717-0.43437 9.727c-0.52979 11.864 1.0476 9.6263 1.966-2.7886zm54.11-142.92c1.7603-0.70042 1.5205-1.0064-2-2.5527-2.2-0.9663-6.1372-1.814-8.7493-1.8839s-4.7496-0.52611-4.75-1.0139c-0.001-1.8516 12.708 0.0997 16.889 2.593 4.517 2.6936 4.4234 3.8314-0.30631 3.7236-2.5665-0.0585-2.7481-0.20367-1.0833-0.8661zm-23.102 115.79c0.26163-22.181 0.10262-25.887-1.0434-24.32-0.89219 1.2201-1.2028 3.6552-0.91324 7.1594 0.24135 2.9207 0.15531 5.3104-0.1912 5.3104s-3.0193-2.5875-5.9395-5.75-5.3097-5.1557-5.3099-4.4294c-0.0004 1.4066 7.4129 10.855 10.11 12.885 1.4068 1.0589 1.5582 3.5846 1.1989 20.003-0.30365 13.875-0.1246 18.336 0.68437 17.051 0.69978-1.1118 1.2071-11.195 1.4043-27.909zm132.6 22.09c0-2.7817-0.93788-9.5837-2.0842-15.116l-2.0842-10.058 3.3342-3.5447c1.8338-1.9496 4.8197-4.8894 6.6353-6.5329 3.6305-3.2864 6.7321-8.5034 5.6683-9.5342-0.37295-0.36139-4.2001 3.1663-8.5048 7.8393-8.9449 9.7102-8.5047 9.8409-10.937-3.2464-0.6899-3.7125-1.4802-6.75-1.7563-6.75-0.66848 0 0.70531 10.809 1.7095 13.45 0.43499 1.1441 1.0843 4.3234 1.4429 7.0651s0.84339 5.6599 1.0773 6.4849c0.23393 0.825 0.91542 6.4186 1.5144 12.43 0.599 6.0116 1.3171 11.299 1.5957 11.75 1.3456 2.1773 2.3886 0.32684 2.3886-4.2379zm-110.14-5.88c-1.29-3.33-2.85-6.06-3.47-6.06-1.2 0-4.39 7.46-4.39 10.28 0 2.3596 1.7231 2.1642 2.5-0.28343 0.89345-2.815 4.3096-2.512 5.6839 0.50423 2.2335 4.902 1.987 1.5154-0.32339-4.443zm-3.86 0c0-0.51754 0.45-1.2191 1-1.559 0.55-0.33992 1 0.0835 1 0.94098 0 0.85746-0.45 1.559-1 1.559s-1-0.42344-1-0.94098zm40.8 5.74c0.66-0.66 1.2-2.6325 1.2-4.3834 0-3.8322-3.4901-5.4519-5.643-2.6187-2.4 3.15-1.08 8.2 2.14 8.2 0.605 0 1.64-0.54 2.3-1.2zm-2.8-3.3c0-2.4712 1.355-3.3527 2.4442-1.5902 0.73 1.17-0.38 4.09-1.55 4.09-0.49 0-0.89-1.12-0.89-2.5zm10.755 0.5c0.3388 0 1.6575 0.97844 2.9304 2.1743 2.5451 2.391 3.073 1.4113 0.8332-1.5463-1.2282-1.6219-1.218-2.0716 0.0764-3.3661 2.1312-2.1312 1.2358-3.7136-2.3007-4.0662-2.679-0.26715-3.0969 0.0381-3.423 2.5-0.20431 1.5424-0.17695 4.1543 0.0608 5.8043 0.36444 2.5293 0.49303 2.647 0.81955 0.75 0.213-1.2375 0.66448-2.25 1.0033-2.25zm0.23576-4.489c0.67967-0.81894 1.6421-1.2378 2.1388-0.9309 1.2765 0.7889 0.0558 2.4199-1.8111 2.4199-1.2712 0-1.3324-0.27832-0.32768-1.489zm11.57 2.9615c-0.75983-4.0502-1.8697-3.8865-2.2053 0.32541-0.31196 3.9152 0.45081 5.7957 1.8026 4.444 0.66705-0.66705 0.82389-2.5244 0.40273-4.7694zm10.868 3.9561c2.95-2.96 0.82-11.43-2.88-11.43-1.745 0-2.2674 2.4388-1.7673 8.25 0.43459 5.0499 1.8169 5.9976 4.636 3.1786zm-3.6832-4.1335c-0.26618-2.0873-0.16371-4.1517 0.22771-4.5875 1.2186-1.3568 3.1877 2.0331 2.8492 4.9048-0.49672 4.2131-2.5258 4.0039-3.0769-0.3173zm-39.78-0.55c0.01-1.771 0.54933-2.75 1.5153-2.75 0.825 0 1.5-0.45 1.5-1s-1.9125-0.96954-4.25-0.93232c-3.8538 0.0614-4.0348 0.17125-1.9423 1.1786 2.028 0.97625 2.233 1.6044 1.691 5.1823-0.45149 2.9804-0.33708 3.6695 0.42696 2.5714 0.57406-0.825 1.0506-2.7375 1.059-4.25zm51.02 3.25c0-2.7218 2.8222-2.548 4.0589 0.25 0.86965 1.9676 0.93416 1.8555 0.51405-0.89362-0.26422-1.729-1.1222-4.654-1.9065-6.5-1.2663-2.9802-1.5158-3.139-2.2262-1.4164-0.51097 1.239-0.37372 2.0822 0.37983 2.3333 0.64895 0.21632 1.1799 1.0859 1.1799 1.9324 0 1.2547-0.27717 1.3091-1.5 0.29422-1.25-1.0374-1.5-0.90477-1.5 0.79577 0 1.1224-0.27314 2.7525-0.60699 3.6224-0.33384 0.86999-0.10884 1.5818 0.5 1.5818 0.60885 0 1.107-0.9 1.107-2zm-61.2-0.2c0.66-0.66 1.1468-2.5725 1.0817-4.25l-0.11832-3.05-0.63168 2.8931c-1.33 6.08-7.13 6.19-7.13 0.14 0-1.94-0.45-3.53-1-3.53-1.2728 0-1.2848 3.1208-0.0248 6.4349 0.72919 1.9179 1.688 2.5651 3.8 2.5651 1.5536 0 3.3648-0.54 4.0248-1.2zm76.266-0.83518c1.06-0.56 1.93-2 1.93-3.18 0-2.89-3.81-6.78-6.64-6.78-2.1181 0-2.2551 0.32973-1.7653 4.25 0.90132 7.2144 1.948 8.1381 6.476 5.7148zm-4.468-1.7004c-0.89-0.89-0.72-5.26 0.2-5.26 1.2053 0 3.2 2.2397 3.2 3.593 0 1.3538-2.4944 2.5792-3.4022 1.6714zm-88.88-19.51c2.8549-3.1087 3.7078-7.7933 1.8697-10.269-1.149-1.5478-1.8478-1.7494-3.1984-0.92231-3.7 2.26-5.33 13.44-1.96 13.44 0.66951 0 2.1471-1.0125 3.2836-2.25zm-3.0489-0.41448c-1.0103-1.0103-0.80203-5.2182 0.36633-7.4013 1.7073-3.1901 3.9648-2.3868 3.9648 1.4108 0 3.2859-2.9523 7.3693-4.3312 5.9905zm12.38-3.34c0.41643 0 1.6938 1.4625 2.8385 3.25 1.1448 1.7875 2.0889 2.7141 2.0982 2.059 0.009-0.65504-0.43315-1.4691-0.98315-1.809-1.4649-0.90534-1.2201-3.4227 0.5-5.1429 2.1522-2.1522 1.8493-5.0325-0.59645-5.6721-4.352-1.1381-4.9995-0.0497-6.4346 10.815l-0.39627 3 1.1083-3.25c0.60957-1.7875 1.449-3.25 1.8655-3.25zm-0.05-2.89c0-2.2645 2.8925-3.6216 4.4172-2.0724 0.77973 0.7922 0.53949 1.5011-0.85835 2.5328-2.61 1.92-3.56 1.8-3.56-0.46zm18.803 1.7208c0.27255-3.2171 0.0232-3.6279-2.4943-4.1091-1.5384-0.29408-3.1372-0.32453-3.5528-0.0677-0.41564 0.25687-0.7557 2.9569-0.7557 6.0001v5.533l3.25-1.891c2.5641-1.4919 3.3139-2.6453 3.5528-5.4654zm-5.1361 4.5056c-0.36-0.37-0.66-2.17-0.66-4.01 0-3.6085 1.8285-4.4498 3.9958-1.8383 0.99985 1.2048 0.92208 1.9813-0.40061 4-1.7882 2.7291-1.9415 2.8254-2.9286 1.8383zm17.34 1.78c0-0.48291-1.0125-1.5958-2.25-2.473-2.2121-1.5681-2.2173-1.6207-0.30887-3.122 1.1715-0.92156 1.4264-1.527 0.64301-1.527-0.74304 0-1.052-0.6414-0.72251-1.5 0.31658-0.825 0.12859-1.5-0.41777-1.5-2.4209 0-3.9646 9.4214-1.6939 10.338 2.0796 0.83914 4.75 0.71785 4.75-0.21575zm7.5794-3.372c-0.0458-1.297 0.45005-2.1441 1.1706-2 1.5964 0.31929 1.5445-0.7783-0.14205-3-2.06-2.71-2.61-2.13-2.61 2.75 0 2.475 0.37323 4.5 0.8294 4.5s0.79367-1.0125 0.75-2.25zm23.124-0.41842c0.35213-0.91763-0.14517-3.0369-1.1051-4.7095-1.6627-2.897-1.6618-3.1022 0.0195-4.3316 2.1806-1.5945 0.08-1.7341-2.8111-0.18683-2.0374 1.0904-2.0305 1.1331 0.56575 3.5405 3.2655 3.028 3.4379 6.0608 0.37797 6.6501l-2.25 0.43337 2.2814 0.13618c1.302 0.0777 2.5562-0.58004 2.9216-1.5322zm15.31-4.33c0.48228 0 1.567 0.98535 2.4106 2.1897 0.84353 1.2043 1.7929 1.9304 2.1098 1.6136 0.31684-0.31685-1.0207-2.3147-2.9722-4.4397l-3.5483-3.8636 0.14505 5c0.0838 2.8904 0.32082 3.8397 0.56164 2.25 0.22913-1.5125 0.81119-2.75 1.2935-2.75zm-33.304-2.25c-0.23835-1.2375-0.43337-0.225-0.43337 2.25s0.19502 3.4875 0.43337 2.25c0.23836-1.2375 0.23836-3.2625 0-4.5zm25 0c-0.23835-1.2375-0.43337-0.225-0.43337 2.25s0.19502 3.4875 0.43337 2.25c0.23836-1.2375 0.23836-3.2625 0-4.5zm13.898-0.47917c-0.33229-0.33229-0.56864 0.25834-0.52522 1.3125 0.048 1.165 0.28494 1.4019 0.60416 0.60417 0.28887-0.72188 0.25335-1.5844-0.0789-1.9167zm-47.64-14.02c7.5696-8.2193 16.46-15.48 21.702-17.725 4.5021-1.9276 6.6314-5.7894 7.4581-13.526 0.51809-4.8488 1.5566-8.0859 3.725-11.611 3.38-5.5 9.14-19.32 9.14-21.94 0-3.2969-2.2694-9.2538-4.6063-12.091l-2.3549-2.8588 1.9806 5.9066c3.5701 10.647 2.71 15.329-5.6714 30.875-2.7816 5.1595-4.348 9.3339-4.348 11.588 0 4.5699-3.9313 10.234-9.8021 14.123-2.4974 1.6542-4.8545 3.0077-5.238 3.0077-0.38351 0-4.891 4.6125-10.017 10.25-5.1256 5.6375-9.8549 10.385-10.509 10.55-1.6041 0.40418-10.589-12.944-15.077-22.398-3.4024-7.1681-3.5956-8.094-3.082-14.775 0.30137-3.92 0.21007-8.0124-0.20289-9.0943-1.2238-3.2064-2.0529 12.954-0.88206 17.194 1.2839 4.65 8.9792 19.112 13.568 25.5 1.9378 2.6973 4.2216 4.7729 5.2517 4.7729 1.0025 0 5.0345-3.4875 8.9601-7.75zm0.7094-4.8196c4.8511-5.2633 11.298-11.079 14.326-12.924 8.1093-4.9406 10.119-8.1483 10.119-16.15 0-3.6054 0.43447-7.698 0.96548-9.0946 1.398-3.677 2.1285-2.1886 0.79841 1.6269-2.1951 6.297-0.17976 3.9295 4.8149-5.656 2.7893-5.3531 5.366-11.119 5.726-12.813 1.2063-5.6769-3.5136-20.96-8.0426-26.042-2.5458-2.8565-2.5592-2.8593-1.8549-0.37739 0.39018 1.375 1.6997 4.975 2.9101 8 1.9849 4.9608 2.0792 5.974 0.96114 10.335-0.68175 2.6591-1.5015 5.0966-1.8216 5.4167-0.89894 0.89893-0.6886-2.8929 0.36408-6.5634 0.77171-2.6908 0.4454-4.6109-1.7703-10.417-1.494-3.9149-3.3038-7.3138-4.0218-7.5531-0.87115-0.29038-0.61491 0.91841 0.77028 3.6336 1.1416 2.2378 2.0775 5.0992 2.0796 6.3586 0.002 1.2594-2.4049 5.8898-5.349 10.29-6.7416 10.075-9.0656 13.866-8.8906 14.5 0.0759 0.275-0.56049 1.5661-1.4143 2.8692-0.85379 1.303-1.7245 3.328-1.935 4.5-1.437 8.0022-2.5664 15.084-3.3699 21.131-1.0867 8.1774-3.0653 13.879-4.9598 14.293-0.96108 0.20972-1.1475-0.35674-0.6583-2 0.3754-1.2609 0.84154-4.4061 1.0359-6.9894 0.19432-2.5832 0.6892-5.2402 1.0997-5.9045 0.43271-0.70015 0.32658-0.94826-0.25253-0.59036-1.7108 1.0574-0.76852-10.526 1.164-14.308l1.7884-3.5-2.6973 2.8728c-2.4206 2.5781-3.1265 2.8025-6.8812 2.1873-2.3012-0.37704-4.8668-0.7911-5.7015-0.92014-0.83467-0.12904-2.1847-0.62338-3-1.0985-0.81533-0.47515-0.39148 0.33365 0.94189 1.7973 1.3334 1.4637 1.91 2.6612 1.2814 2.6612-0.63225 0-0.89614 0.78194-0.59061 1.75 0.39971 1.2665-0.0234 1.0977-1.5314-0.61078-1.14-1.3-2.08-1.89-2.08-1.31 0 0.57847 0.48068 1.3488 1.0682 1.7119 0.5875 0.3631 0.8227 1.2999 0.52267 2.0818-0.30004 0.78187 0.60591 3.9988 2.0132 7.1488 1.9232 4.3049 2.4531 6.8829 2.1334 10.38-0.23392 2.5593-0.0232 5.3718 0.4683 6.25 0.63457 1.1339 0.47988 1.5968-0.53365 1.5968-1.958 0-3.3768-1.9114-5.1507-6.9393-1.4852-4.2096-1.6521-5.6871-1.5317-13.561 0.0336-2.2-0.21358-5.575-0.54938-7.5-0.33581-1.925-0.74813-4.6753-0.91627-6.1117s-0.89534-3.6864-1.616-5c-1.6908-3.0819-2.2125-6.1945-0.90252-5.3848 0.55638 0.34386-0.56611-1.9912-2.4944-5.1891-4.11-6.816-4.5027-11.45-1.4733-17.388 1.1208-2.197 1.8188-4.3488 1.5512-4.7818-0.26763-0.43303 0.41746-1.5614 1.5224-2.5075 2.1228-1.8176 2.3702-7.6613 0.35223-8.3217-1.1595-0.37942-10.528 15.289-12.327 20.617-0.63738 1.8873-0.86796 5.0373-0.51241 7 0.66347 3.6623 4.0359 11.173 5.4202 12.072 0.42649 0.27679 0.97361 1.8518 1.2158 3.5 0.3124 2.1258 0.48394 1.5991 0.59023-1.8123 0.10281-3.2999 0.50542-4.5892 1.283-4.1087 0.81164 0.50162 0.93397 4.6247 0.43114 14.531-0.69208 13.634-0.66296 13.919 2.0534 20.109 2.87 6.55 12.35 21.78 13.55 21.78 0.38057 0 4.661-4.3063 9.5121-9.5696zm-12.7-23.955c-0.69572-0.83829-1.0123-1.7768-0.70346-2.0856 0.30881-0.30882 1.0638 0.37706 1.6777 1.5242 1.3098 2.4475 0.8236 2.7277-0.97422 0.56148zm-18.373-30.058c-2.1488-5.5998 0.2796-13.684 7.115-23.686 4.1646-6.094 3.7652-3.4977-0.55623 3.6155-6.1488 10.121-6.978 13.766-4.563 20.06 0.33619 0.87609 0.16126 1.5929-0.38874 1.5929s-1.2732-0.7118-1.607-1.5818zm17.997 43.853c-0.3323-0.33229-0.56864 0.25834-0.52522 1.3125 0.048 1.165 0.28494 1.4019 0.60416 0.60417 0.28887-0.72188 0.25335-1.5844-0.0789-1.9167zm-1.4801-3.5375c-0.98762-0.98026-1.1025-0.8654-0.5598 0.5598 0.37553 0.98622 0.93469 1.5412 1.2426 1.2333 0.30789-0.30789 0.00064-1.1148-0.68278-1.7931zm19.231-16.045c0.41299 0.41298 0.42973-0.086 0.0372-1.1089-0.69083-1.8003-0.75656-1.8012-2.0529-0.0284-0.73654 1.0073-1.3232 2.5329-1.3037 3.3903 0.024 1.0548 0.44498 0.82116 1.302-0.72249 0.6966-1.2548 1.6044-1.9435 2.0174-1.5305zm-4.161-6.1152c0.38158-0.59012 3.4149-4.6729 6.7408-9.0729 8.1203-10.743 16.694-23.735 17.58-26.637 0.39637-1.2996-1.5147 1.012-4.2468 5.137s-6.4974 8.9238-8.3674 10.664c-5.3408 4.9701-7.9346 8.3624-10.69 13.981-1.406 2.8669-3.4101 5.4358-4.4534 5.7086-3.4556 0.90366-8.5368-3.3055-14.387-11.918-5.9306-8.7308-6.5627-11.062-5.0001-18.436 0.5678-2.6795 0.4662-3.2258-0.43337-2.3304-0.64628 0.64326-1.5212 3.0622-1.9442 5.3754-0.66595 3.6418-0.34814 4.9863 2.3696 10.025 5.0974 9.4499 12.107 17.732 15.86 18.736 3.4876 0.93402 5.8407 0.51792 6.9729-1.233zm5.72-0.56c1.1226-2.3573 1.1018-2.3892-0.36454-0.55887-0.85535 1.0676-1.5552 2.3801-1.5552 2.9167 0 1.2705 0.4619 0.70323 1.9197-2.3578zm-22.575-3.5431c-0.32569-0.84872-0.80663-1.3287-1.0688-1.0665-0.26213 0.26213-0.17998 0.95654 0.18255 1.5431 0.98605 1.5955 1.5624 1.2855 0.8862-0.4766zm-18.059-12.472c-0.28989-1.1086-0.99229-2.3031-1.5609-2.6545-0.56859-0.35141-0.80865-0.2319-0.53348 0.26558s0.78058 1.692 1.1231 2.6545c0.85956 2.4152 1.6181 2.2078 0.97125-0.26558zm-1.27-7.74c0.003-2.0625 0.67839-5.0389 1.5-6.6143s1.4938-3.0099 1.4938-3.1878c0-0.47215-2.552-0.65595-11.251-0.81031-4.2629-0.0756-7.7504-0.47503-7.75-0.88753 0.001-1.1789 9.7572-1.5044 14.501-0.48389 1.65 0.35497-0.6-1.1103-5-3.2561-8.801-4.2921-10.68-4.3369-16.554-0.39486-1.9546 1.3116-4.0921 2.3848-4.75 2.3848-2.3819 0-1.1215 1.8315 2.0538 2.9842 10.23 3.7139 18.697 5.746 22.292 5.3501 3.1672-0.34872 3.7081-0.18593 2.7078 0.81496-1.48 1.49-1.69 7.85-0.25 7.85 0.55 0 1.0028-1.6875 1.0062-3.75zm31.99-5.75c0-0.825-0.3375-1.5061-0.75-1.5136-0.4125-0.008-1.7625-0.285-3-0.61664-1.6172-0.43339-2.25-0.17175-2.25 0.93033 0 1.6308 1.397 2.4923 4.25 2.621 0.9625 0.0434 1.75-0.59605 1.75-1.421zm9.607-0.0818c-0.34-0.87-0.61-1.99-0.61-2.5 0-0.50157-1.0125-0.7232-2.25-0.49253-1.2375 0.23068-2.8125 0.45286-3.5 0.49373-0.69 0.05-1.25 0.98-1.25 2.08 0 1.6754 0.66667 2 4.107 2 3.3342 0 3.9928-0.29764 3.5-1.5818zm7.6687 0.59544c0.42-0.01 0.07-1.37-0.78-3.02-1.657-3.2042-2.2115-3.4688-4.3854-2.092-0.93635 0.593-1.1647 1.7564-0.70465 3.5895 0.55159 2.1977 1.0988 2.6 2.8854 2.121 1.2126-0.32512 2.5537-0.59727 2.9803-0.60478zm-25.28-2.4c0-1.8502-3.7301-2.7623-4.3792-1.0707-0.50236 1.3091 0.69998 2.2217 3.1292 2.3752 0.6875 0.0434 1.25-0.54357 1.25-1.3044zm31.831-1.1664c0.72151-0.6079-1.9776-4.4492-3.1162-4.4349-2.9145 0.0367-3.8577 1.5769-2.624 4.2846 1.0286 2.2575 1.4838 2.4676 3.3012 1.5239 1.1594-0.60207 2.257-1.2202 2.4391-1.3736zm-38.551-4.11-0.94494-2.8348-1.237 2.3113c-0.97756 1.8266-0.97964 2.6213-0.01 3.7897 1.8884 2.2754 3.3253 0.1343 2.1918-3.2661zm19.286 2.5913c6.7491-1.2154 17.216-4.7704 18.059-6.1335 0.30988-0.5014 0.28637-2.0155-0.0523-3.3647l-0.61567-2.453-16.234 0.0723c-8.9287 0.0398-17.039-0.23644-18.022-0.61382-1.5901-0.61017-1.7484-0.16002-1.4302 4.0652 0.38702 5.1378 2.3882 7.496 6.3612 7.496 1.2374 0 2.528 0.45 2.8679 1 0.77722 1.2576 1.7429 1.2503 9.0663-0.0685zm-31.828-5.622c-2.1619-2.1619-3.1675-1.1564-2.3 2.3 0.63135 2.5155 0.79296 2.588 2.3344 1.0466s1.539-1.7731-0.0344-3.3465zm53.655 3.1087c0.33-0.87 0.6-2.28 0.6-3.12 0-1.2561-0.27706-1.3107-1.5-0.29577-1.622 1.3461-2.0656 5-0.60699 5 0.49116 0 1.1662-0.7118 1.5-1.5818zm-57.769-5.0352c-0.0685-0.0643-2.3745-0.35772-5.1245-0.65201l-5-0.53506 4.5 2.3077c4.0511 2.0775 4.5623 2.1426 5.1245 0.65201 0.34346-0.91065 0.56846-1.7084 0.5-1.7727zm8.4436-1.5102c1.3412-2.506-0.11681-3.9344-3.1943-3.1296-2.7188 0.711-3.1285 1.8591-1.3115 3.6761 2.117 2.117 3.1472 1.992 4.5058-0.54655zm48.281-0.40486c-0.79-2.07-1.35-1.83-1.35 0.59 0 1.1325 0.43035 1.793 0.95633 1.468 0.52598-0.32507 0.70283-1.2516 0.39301-2.059zm3.65-6.27c1.925-0.50877 6.3922-2.3378 9.9272-4.0645s7.1631-3.1395 8.0626-3.1395c1.64 0 17.027-9.8737 21.256-13.639 2.9649-2.6404 9.7447-10.825 12.216-14.747 1.0789-1.7123 2.2426-3.3383 2.5861-3.6133 1.8619-1.4906 8.3325-14.816 10.048-20.693 3.5633-12.206 2.3537-30.415-2.8104-42.307-0.35827-0.825-0.71942-2.9485-0.80256-4.719-0.23455-4.9946-6.1295-18.617-7.6497-17.678-0.48553 0.30007-0.78248 0.17464-0.65988-0.27874 1.0553-3.9027-11.689-15.768-22.398-20.854-10.121-4.8066-24.831-8.3596-35.999-8.695l-9.17-0.28-1.83 5.5c-1.4024 4.212-1.7279 4.6804-1.39 2 0.24272-1.925 0.7292-4.2261 1.081-5.1136 0.52651-1.328-0.0931-1.6136-3.5006-1.6136h-4.1404l0.53516 3.6136 0.53516 3.6136-1.5852-3.75c-1.7564-4.155-4.2386-4.9918-4.4499-1.5l-0.13618 2.25-0.43337-2.25c-0.46-2.39-3.29-3.18-3.29-0.92 0 0.73179 1.0681 3.4404 2.3736 6.0191s1.9941 4.9231 1.5303 5.2098c-0.83056 0.51331-3.4089-4.7389-4.5414-9.251-0.41-1.64-1.3-2.31-3.08-2.31-1.8749 0-2.346 0.39762-1.8873 1.5929 1.4227 3.7075 1.7594 6.4071 0.79903 6.4071-0.56128 0-1.3309-1.8373-1.7103-4.0828-0.59842-3.542-0.97435-4.012-2.8379-3.5478-1.1815 0.29426-4.1465 0.85278-6.589 1.2412-2.4425 0.38838-5.5925 1.3071-7 2.0417-1.4075 0.73453-3.1469 1.3383-3.8652 1.3417-2.0988 0.01-13.321 5.8702-17.745 9.2667-11.09 8.5136-19.781 27.003-21.555 45.859-0.97179 10.328 0.15935 28.615 2.1575 34.881 0.61391 1.925 1.3064 4.85 1.5388 6.5 0.70738 5.0216 3.468 12.634 7.2534 20 4.111 8.0002 16.377 20.658 24.657 25.445 4.8372 2.7966 14.291 5.7769 21.5 6.778 1.925 0.26731 3.6808 0.65727 3.9017 0.86658 0.79601 0.75408 35.68-0.48213 39.098-1.3856zm-29.5-10.872c-5.7498-0.70633-16.5-3.7239-16.5-4.6316 0-0.50283 0.7875-0.60261 1.75-0.22175 4.6471 1.8388 15.602 3.4885 23.27 3.5041 8.2704 0.0168 18.173-1.9864 27.23-5.5082 4.2669-1.6593 5.2163-0.31899 1 1.4117-11.567 4.7478-25.556 6.8208-36.75 5.4456zm-6-5.8489c-4.4-0.77337-10.494-2.3136-13.543-3.4228-8.3025-3.0206-20.253-9.805-24.448-13.88-3.3724-3.2756-3.6652-3.9807-3.1739-7.6444 0.57406-4.2809 5.46-9.8814 7.9012-9.0567 2.7311 0.92264 15.257 1.6637 36.764 2.1751 24.011 0.57091 21.861 0.8041 47.868-5.1913 6.2524-1.4414 12.406-2.3601 13.675-2.0416 1.4936 0.37488 3.389 2.5766 5.3755 6.2443 3.0028 5.544 3.0311 5.7239 1.325 8.4072-4.3919 6.9075-19.46 16.38-33.243 20.898-3.575 1.1719-7.85 2.5821-9.5 3.1339-5.0269 1.6811-20.443 1.882-29 0.37792zm32.168-2.8998c11.324-2.9399 22.206-8.0118 28.999-13.517 1.742-1.4116 4.3328-3.3776 5.7573-4.3688 2.7521-1.915 2.5122-3.6182-1.0051-7.1355-1.4581-1.4582-1.8531-1.3753-4.6462 0.97495-1.6789 1.4127-4.3066 2.8194-5.8392 3.1259-1.8466 0.36932-2.6065 1.0269-2.2525 1.9493 0.66014 1.7203-0.43573 6.3875-1.4998 6.3875-0.42908 0-0.59628-1.575-0.37154-3.5 0.38884-3.3307-0.92087-4.748-2.3102-2.5-0.33992 0.55-2.1102 1-3.934 1s-4.7222 0.28125-6.441 0.625c-2.7593 0.55185-3.125 1.02-3.125 4 0 1.8562-0.45 3.375-1 3.375s-1-1.8551-1-4.1224c0-3.2743-0.26812-3.8999-1.3032-3.0409-2.66 2.21-39.7 4.03-39.7 1.96 0-0.43-0.72-0.79-1.61-0.79-1.252 0-1.5182 0.78111-1.1988 3.5171 0.25467 2.1815 0.0114 3.3795-0.6406 3.1548-0.57815-0.19924-1.0472-1.7754-1.0424-3.5026 0.005-1.7272-0.55079-3.3551-1.2347-3.6176-1.649-0.63277-3.4431 2.8443-2.6005 5.0399 0.45363 1.1821 0.29286 1.5057-0.50358 1.0134-0.64-0.39-1.17-1.76-1.17-3.04 0-1.6837-0.68738-2.4558-2.4936-2.8011-3.0847-0.58968-4.591 1.0735-3.8903 4.2956 0.51404 2.3637 0.47835 2.3814-1.0365 0.5142-1.3983-1.7236-1.4064-2.1817-0.0742-4.2148 0.82204-1.2546 1.4946-2.4524 1.4946-2.6618 0-0.20938-2.3625-0.29756-5.25-0.19596-5.0529 0.17778-5.25 0.29096-5.25 3.0143 0 2.585 0.90758 3.2944 10.5 8.2074 18.377 9.4121 37.012 11.711 55.668 6.8677zm-31.184-15.516c7.7676 0.80398 11.58 0.25146 13.305-1.9284 1.0763-1.3599 1.4315-1.3994 2.1486-0.23906 0.65452 1.059 2.477 1.2603 7.6509 0.845 7.1826-0.57656 9.9678-2.415 8.875-5.8583-0.29995-0.94506-0.0771-2.0077 0.49531-2.3615 0.65-0.4 1.04 0.75 1.04 3.04v3.6755l6.75-0.71031c7.683-0.8085 10.671-2.71 9.7876-6.2289-0.32-1.27-0.12-2.3 0.44-2.3 0.56048 0 1.019 1.3079 1.019 2.9064 0 2.5074 0.30888 2.8322 2.25 2.3662 4.0209-0.96525 8.75-6.3095 8.75-9.8882 0-3.1397-0.0843-3.2018-3.25-2.3951-26.819 6.8333-29.388 7.1974-52.675 7.4646l-22.425 0.25738-0.87961 2.3778c-1.36 3.71 0.58 6.91 4.22 6.91 2.25 0 3.02-0.46 3.02-1.81 0-0.99488 0.61688-2.6525 1.3708-3.6836 1.2109-1.656 1.3276-1.2407 1.0001 3.5589-0.20393 2.9885-0.13829 4.961 0.14587 4.3834 0.33329-0.67745 2.8062-0.8132 6.9676-0.38248zm-25.97-6.0218c-0.34668-1.0923 0.077-3.0186 0.96036-4.3668l1.5807-2.4124-4.7773-0.53847c-5.2047-0.58664-6.2377 0.12626-6.2629 4.3221-0.0207 3.4484 1.7242 4.95 5.7521 4.95 2.8861 0 3.2787-0.27932 2.7471-1.9544zm32.651-19.106c0.18378-1.2557 0.93452-2.4809 1.6683-2.7228 0.9065-0.29877 1.227 0.29208 1 1.8433-0.18378 1.2557-0.93452 2.4809-1.6683 2.7228-0.9065 0.29877-1.227-0.29208-1-1.8433zm10.89 0.62756c-1.0155-1.2236-1.0794-1.9438-0.24623-2.7769 0.83311-0.83311 1.2875-0.701 1.752 0.50939 1.0225 2.6647 0.0453 4.1364-1.5057 2.2675zm-29.968-15.961c-1.8264-2.2006-2.3663-10.753-0.85842-13.597 3.018-5.6923 7.7706-2.7982 7.7706 4.7319 0 7.5172-3.8901 12.506-6.9121 8.8651zm3.91-13.55c0-1.5113-1.3725-1.9858-2.658-0.91892-1.9745 1.6387-1.6333 2.7578 0.65799 2.1586 1.1-0.28766 2-0.84553 2-1.2397zm41.972 12.417c-2.1208-2.5554-2.4712-11.057-0.57507-13.951 3.3056-5.0449 6.512-2.4134 7.1876 5.8989 0.37451 4.6078 0.10876 5.8911-1.567 7.5668-2.4197 2.4197-3.3644 2.5105-5.0455 0.48481zm4.4147-12.033c0.66186-1.7248-0.71801-2.6275-2.7969-1.8297-2.39 0.91715-2.0757 4.336 0.34059 3.7041 1.062-0.27771 2.1673-1.1212 2.4563-1.8744zm-66.19-6.69c1.5503-2.811 3.6919-4.9023 6.3249-6.1766 4.4602-2.1585 15.197-3.1863 17.452-1.6707 2.4124 1.6211 0.68308 2.1167-3.4264 0.98198-5.6508-1.5603-11.675 0.41015-16.046 5.2485-1.93 2.13-3.5 4.32-3.5 4.87s-0.71 1-1.57 1c-1.3126 0-1.1845-0.70787 0.76897-4.25zm77.389-7.3499c-2.2882-1.9864-4.9907-3.3978-6.5-3.3945-4.1439 0.009-10.147 1.9958-10.746 3.5567-0.67808 1.767-2.3403 1.9009-2.3309 0.18773 0.004-0.6875 1.4941-2.2625 3.3119-3.5 6.1116-4.1606 15.744-2.1824 19.624 4.0301 1.9058 3.0517 0.85133 2.7755-3.3594-0.87996zm-98.58-7.84c0-0.24254 0.45-0.7191 1-1.059 0.55-0.33992 1-0.14148 1 0.44098s-0.45 1.059-1 1.059-1-0.19844-1-0.44098zm18-11c0-0.86 0.45-1.56 1-1.56s1 0.42344 1 0.94098-0.45 1.2191-1 1.559c-0.55 0.33992-1-0.0835-1-0.94098zm24-2.5c0-0.58 0.45-1.06 1-1.06s1 0.19844 1 0.44098-0.45 0.7191-1 1.059c-0.55 0.33992-1 0.14148-1-0.44098zm-31-0.5c0-0.24254 0.45-0.7191 1-1.059 0.55-0.33992 1-0.14148 1 0.44098s-0.45 1.059-1 1.059-1-0.19844-1-0.44098zm46.749-1.2425c-0.91807-1.6621-3.0141-13.385-2.4874-13.912 0.30014-0.30014 1.2823 2.6927 2.1825 6.6508 1.4556 6.3999 1.5894 9.5867 0.30483 7.261zm3.6478-1.8708c-0.84339-3.3603 0.0424-12.285 1.349-13.592 0.70442-0.70442 0.75126 0.4547 0.14869 3.6801-0.48379 2.5896-0.6005 6.4538-0.25937 8.5872 0.6909 4.3206-0.23721 5.3134-1.2383 1.3246zm-13.49-2.1432c-1.2768-2.0914-2.6781-3.9526-3.1141-4.1359-1.0067-0.42339-1.041-2.1673-0.0426-2.1649 1.0273 0.002 6.6167 8.9649 5.9849 9.5966-0.27871 0.27872-1.5514-1.2044-2.8282-3.2958zm18.619-3.8358c0.41744-6.5524 3.1382-17.136 4.146-16.128 0.24569 0.24569-0.25924 2.8751-1.1221 5.8431-0.86283 2.968-1.997 8.0789-2.5204 11.357l-0.95164 5.9611 0.44807-7.0332zm-61.53 2.53c0-0.55 0.19844-1 0.44098-1s0.7191 0.45 1.059 1c0.33992 0.55 0.14148 1-0.44098 1-0.58 0-1.06-0.45-1.06-1zm65.049-0.5529c-0.0596-2.5047 7.2678-17.907 9.0401-19.002 0.70016-0.43272 0.0184 1.4276-1.515 4.1341s-3.8429 7.6209-5.1321 10.921c-1.2893 3.3-2.3661 5.0762-2.393 3.9471zm59.95-0.45c0-0.55 0.19844-1 0.44098-1s0.7191 0.45 1.059 1c0.33992 0.55 0.14148 1-0.44098 1-0.58 0-1.06-0.45-1.06-1zm-42.5-3c0.33992-0.55 1.068-1 1.618-1s0.72189 0.45 0.38197 1-1.068 1-1.618 1-0.72189-0.45-0.38197-1zm19.5 0.059c0-0.58244 0.45-1.059 1-1.059s1 0.19844 1 0.44098-0.45 0.7191-1 1.059c-0.55 0.33992-1 0.14148-1-0.44098zm-16-5.5c0-0.24254 0.45-0.7191 1-1.059 0.55-0.33992 1-0.14148 1 0.44098s-0.45 1.059-1 1.059-1-0.19844-1-0.44098zm-63-1.56c0-0.55 0.45-1 1-1s1 0.45 1 1-0.45 1-1 1-1-0.45-1-1zm-46.31 88.442c1.8274-1.1763 2.0936-2.033 1.6085-5.176-0.7029-4.554-0.27994-3.9727-3.4738-4.7743-2.5013-0.62778-2.7248-0.40055-3.5095 3.567-1.0084 5.0994-3.7614 7.3427-5.7423 4.6793-1.9513-2.6236-1.9704-12.649-0.0256-13.395 2.1159-0.81194 2.9853 0.31002 1.5657 2.0205-1.3027 1.5696-0.45301 9.6359 1.015 9.6359 0.4797 0 0.87908-1.6875 0.8875-3.75 0.0214-5.2415 1.1343-6.6018 4.944-6.0427l3.1808 0.46685-0.66955-7.5871c-0.78-8.86-1.81-10.08-8.49-10.08-3.515 0-5.1437 0.54351-6.7422 2.25-7.3129 7.8066-4.7132 26.019 4.2591 29.837 2.505 1.066 8.3025 0.21384 11.19-1.6448zm-4.6761-17.409c-1.9302-4.66-3.347-5.3454-6.2801-3.0383-2.91 2.289-3.7336 2.4812-3.7336 0.87147 0-1.3677 5.0551-5.8634 6.595-5.8651 2.1996-0.002 8.0358 9.0346 6.6984 10.372-1.2091 1.2091-2.0616 0.60082-3.2797-2.3401zm183.88 10.117c6.54-9.18 2.91-25.15-5.7-25.15-2.5488 0-2.851 0.30375-2.4402 2.4526 0.44365 2.3208 0.5937 2.3708 2.7918 0.93051 2.1359-1.3995 2.4897-1.3554 4.3925 0.5474 2.0667 2.0667 2.8524 6.0695 1.1914 6.0695-0.48291 0-1.5902-1.0125-2.4606-2.25l-1.5826-2.25-2.0172 2.5c-3.0158 3.7376-2.5937 4.9955 1.6884 5.0318 3.5142 0.0298 3.6279 0.12413 1.8089 1.5-1.0676 0.80751-2.7551 1.4682-3.75 1.4682-2.3552 0-2.2941 1.2509 0.17028 3.4811 1.8035 1.6322 2.0349 1.6459 2.607 0.15499 0.65738-1.7131 4.4139-2.3162 4.4139-0.7087 0 0.51008-1.1564 1.837-2.5697 2.9488-1.9928 1.5675-3.1153 1.8139-5 1.0973-2.1563-0.81983-2.4303-0.65278-2.4303 1.4817 0 2.2874 0.96252 2.8648 5.6819 3.4086 0.65004 0.0749 2.0951-1.1463 3.2112-2.7138z"/>
    <path id="path2820" style="fill:#000000" d="m223 497.04c0-0.68845-0.76359-0.93623-1.8361-0.59582-1.5096 0.47913-19.692-0.84832-25.164-1.8372-7.338-1.3261-26.259-7.068-35.5-10.773-11.308-4.5339-28.247-13.736-43-23.358-4.4-2.87-9.35-5.9166-11-6.7701-9.545-4.94-23.989-20.46-39.291-42.21-7.688-10.93-16.209-24.14-16.209-25.13 0-0.28478-1.7501-3.5213-3.8891-7.1922-8.4404-14.486-9.3539-16.406-8.1549-17.147 0.82952-0.51267 0.33512-2.5524-1.7264-7.1228-4.977-11.04-8.986-22.14-10.615-29.41-0.863-3.85-2.73-12.18-4.148-18.5-1.4186-6.325-2.7759-13.525-3.0164-16-0.24045-2.475-0.71374-5.625-1.0517-7-0.33801-1.375-0.799-4.2802-1.0244-6.4561-0.22543-2.1758-0.633-5.1008-0.90572-6.5-2.3528-12.071-3.854-41.695-2.5965-51.24 0.60168-4.5673 1.3402-11.79 1.6412-16.051 0.30099-4.2608 0.7587-8.3108 1.0171-9 0.25843-0.68915 0.65146-2.603 0.8734-4.253s1.165-6.6 2.0956-11c0.93062-4.4 2.1217-10.468 2.6469-13.484 3.1036-17.824 15.335-46.254 24.002-55.788 1.3639-1.5003 5.601-7.4262 9.4159-13.168 7.915-11.916 33.115-38.168 42.435-44.207 3.025-1.9602 6.7789-4.4165 8.3419-5.4585 1.5631-1.042 4.0381-2.5829 5.5-3.4243 1.4619-0.84136 4.7114-2.7473 7.221-4.2354s7.4596-3.7886 11-5.1121c5.5475-2.0739 14.459-5.7076 21.437-8.741 2.4957-1.0849 36.57-9.5022 42-10.375 2.2-0.35367 6.925-1.2575 10.5-2.0085 13.03-2.7373 64.788 0.15888 87.5 4.8962 1.1 0.22944 7.625 1.6248 14.5 3.1008s14.484 3.0932 16.909 3.5937c2.425 0.50056 6.925 2.0739 10 3.4963s8.2966 3.4327 11.604 4.4674c6.4796 2.0273 27.224 13.486 37.013 20.444 11.601 8.2473 24.139 23.724 34.027 42.003 2.0826 3.85 4.7609 8.575 5.9518 10.5 8.9564 14.477 21.535 45.29 22.86 56 0.47877 3.8682 1.815 11.688 4.0158 23.5 1.1066 5.9395 7.4396 51.221 8.0418 57.5 2.9726 30.994 2.2304 85.198-1.4008 102.29-1.3518 6.3637-7.8022 26.654-9.3195 29.315-2.5363 4.4484-19.884 30.858-32.598 49.627-7.8838 11.638-19.991 23.067-33.103 31.249-2.475 1.5444-9.46 6.0994-15.522 10.122-11.206 7.436-25.647 15.019-37.588 19.736-7.1167 2.8113-18.886 4.9485-36.39 6.6082-11.639 1.1036-17.778 1.7604-23.5 2.5141-1.925 0.25357-7.1 0.71465-11.5 1.0246-11.635 0.81967-19.175 1.4294-26.25 2.1227-4.4778 0.43881-6.25 0.27828-6.25-0.56611zm96.201-10.891c0.38548-0.35981 0.25857-2.4538-0.28201-4.6533-1.5993-6.5073-1.7302-7.5428-2.2745-17.999-0.31232-6.0002-0.19264-8.8001 0.29922-7 0.45086 1.65 0.87298 6.0575 0.93806 9.7945 0.0651 3.737 0.85103 9.7115 1.7466 13.277 1.4671 5.8407 1.8382 6.419 3.75 5.8431 1.167-0.35149 2.5327-1.0219 3.0349-1.4899 0.85308-0.79479-1.0014-10.456-5.1155-26.651-1.7996-7.0838-1.1744-8.7025 3.7815-9.791 5.1319-1.1272 8.8974-3.5409 9.5442-6.118 0.34367-1.3693 0.3179-6.624-0.0573-11.677-1.6552-22.294-6.013-40.179-14.93-61.275-4.0614-9.6086-5.5172-11.908-10.911-17.236-6.7308-6.6483-12.938-10.976-21.989-15.331-7.4264-3.5732-13.409-8.4045-14.172-11.445-0.33-1.31-1.26-2.39-2.08-2.39-0.81452 0-2.4111-0.93011-3.5479-2.0669-2.6441-2.6441-1.2296-4.6281 3.9174-5.4945 2.0072-0.33789 5.0675-1.2498 6.8006-2.0265 1.7331-0.77666 3.452-1.4121 3.8198-1.4121 1.4439 0 9.3846-6.086 16.31-12.5 5.99-5.55 17.22-19.96 17.22-22.09 0-0.30593 1.8-3.6383 4-7.4052s4-7.4487 4-8.1817c0-0.95769 1.2158-1.236 4.3206-0.9891 5.9867 0.47614 10.029-2.9508 11.701-9.9188 1.3652-5.6908 0.64471-15.38-1.5308-20.587-1.6175-3.8712-7.321-9.8174-10.334-10.774-2.097-0.66556-3.8454-5.12-5.7108-14.55-1.21-6.1168-4.8976-12.3-18.994-31.848-1.8926-2.6246-13.805-10.662-19.952-13.461-4.5667-2.0796-17.381-5.1503-25.5-6.1103-11.23-1.3279-12-1.601-12-4.2545 0-1.3482 1.0056-5.3326 2.2346-8.8541 1.7967-5.1482 1.9878-6.6496 0.97504-7.6624-0.99827-0.99827-1.6665-1.0054-3.221-0.0346-1.0788 0.67373-3.055 1.225-4.3916 1.225-1.4641 0-3.2834 1.0932-4.5764 2.75-1.4126 1.8099-2.3242 2.3227-2.6667 1.5-0.95435-2.292-2.2559-1.289-2.9198 2.25-0.73399 3.9125-2.1264 4.6326-2.6145 1.3521-0.17575-1.1813-1.1311-2.6438-2.123-3.25-1.4458-0.88358-2.0175-0.72553-2.8832 0.79705-1.0364 1.823-1.1513 1.8044-2.8614-0.46275l-1.7816-2.3619-0.71368 3.8042c-0.39252 2.0923-0.44857 6.0426-0.12455 8.7785 0.513 4.3315 0.36807 4.9324-1.1216 4.65-0.99836-0.18927-1.8391-1.4312-2.0191-2.9828-0.42902-3.6981-4.6644-8.0388-7.4565-7.642-1.8951 0.26929-2.2298 0.92602-2.2004 4.3176 0.0191 2.2 0.39514 5.4754 0.83573 7.2786s0.42499 3.1766-0.0347 3.052c-2.5652-0.69562-18.432 1.6306-22.761 3.3371-13.639 5.3759-26.368 21.114-33.11 40.937-2.2062 6.4864-4.1824 17.757-3.62 20.645 0.30058 1.544-0.35001 1.5757-2.6654 0.12965-1.4241-0.88935-2.9475-0.57464-7.3887 1.5264-4.6388 2.1945-5.9944 3.4538-7.934 7.3704-5.077 10.252-1.9375 24.4 7.2579 32.708 2.1404 1.9338 4.2279 3.546 4.6388 3.5827 0.41092 0.0367 3.4471 0.2126 6.7471 0.39088s6.2864 0.37325 6.6365 0.43327c0.35008 0.06 0.88333 1.3466 1.185 2.8591 1.7818 8.9334 5.376 16.949 9.4285 21.026 2.3375 2.352 4.25 4.4895 4.25 4.75 0 0.26052-2.1375 0.48057-4.75 0.48899-2.6125 0.008-5.3963 0.42425-6.1861 0.92405-2.3696 1.4994 1.5192 8.529 7.8294 14.153 3.1002 2.7632 4.8238 4.9074 3.9448 4.9074-0.85867 0-4.2092 2.4257-7.4457 5.3904l-5.8845 5.3904 2.4961 2.0771c1.3729 1.1424 3.9586 2.5766 5.7461 3.1871 1.7875 0.61051 3.25 1.42 3.25 1.7988 0 0.37885-2.5875 2.2316-5.75 4.1173-11.77 7.0178-21.132 18.094-28.349 33.539-3.3461 7.1608-6.6893 17.51-7.4298 23-0.6049 4.4844-4.6804 18.927-7.536 26.706-1.6746 4.5618-3.2837 9.0283-3.5756 9.9255-0.5804 1.7838 0.25704 2.6854 10.096 10.869l6.6125 5.5-0.4879 8.2881c-0.26834 4.5584-0.23545 8.9459 0.0731 9.75 1.2708 3.3116 2.128 0.96347 2.8043-7.6811 0.39338-5.0286 0.90803-9.6454 1.1437-10.259 0.23563-0.61406-0.64568-1.7872-1.9585-2.607-3.8007-2.3734-13.437-11.012-14.042-12.589-0.30333-0.79045 0.1748-3.1167 1.0625-5.1695 0.88771-2.0528 1.9828-4.6323 2.4337-5.7323 0.80634-1.9675 2.7806-9.2675 3.4588-12.789 0.19036-0.98844 0.80573-3.2402 1.3675-5.0039 2.2004-6.9083 4.0756-13.559 6.088-21.593 4.2739-17.061 11.457-26.931 29.554-40.613 4.3641-3.2992 9.0343-6.9924 10.378-8.2071 2.3262-2.1025 2.3502-2.2391 0.5-2.8452-2.3614-0.77351-5.9601-2.0364-9.8416-3.4539-2.77-1.0116-2.8142-1.1218-1-2.495 1.0439-0.79017 2.348-1.4373 2.898-1.4381 0.55-0.00077 0.15362 0.49024-0.88085 1.0911-1.6669 0.96823-1.3256 1.3173 3 3.0688 2.6845 1.087 6.6663 2.7191 8.8484 3.6271 2.2352 0.93001 6.6736 1.6508 10.165 1.6508 3.9854 0 5.9187 0.35692 5.4166 1-1.2347 1.5814-1.8692 6.4932-0.91505 7.0829 0.47624 0.29434 0.86589 1.3226 0.86589 2.285 0 0.96242 0.6819 2.6234 1.5153 3.691 1.4327 1.8353 1.4855 1.7775 0.96895-1.0589-0.38234-2.0993 0.22497-1.3593 2.0227 2.4645 1.413 3.0055 2.8895 5.7055 3.281 6 1.0114 0.76072 1.4481 6.0354 0.49978 6.0359-0.43332 0.00021-0.78785 4.6127-0.78785 10.25v10.25l5.3734 10.5c4.9007 9.5764 12.223 20 14.05 20 0.4055 0 3.6261-2.9914 7.1569-6.6477 10.15-10.511 10.57-10.874 19.508-16.883 9.332-6.2736 10.824-8.3355 11.916-16.47 0.42427-3.1608 2.179-8.1755 4.1258-11.791 7.8121-14.508 9.5613-21.355 7.2319-28.31-1.3072-3.903-4.7467-8.0882-6.0068-7.3094-0.47005 0.29051-0.85464 0.12879-0.85464-0.35938 0-1.6794-6.1901-10.231-7.03-9.7119-0.46244 0.2858 0.48013 3.7229 2.0946 7.6381 1.6145 3.9151 2.8832 8.069 2.8194 9.2309-0.11074 2.0167-0.13793 2.0218-0.59973 0.11246-1.3274-5.488-6.6146-16.57-7.4887-15.696-0.60679 0.60679-0.19664 2.62 1.1247 5.5205 2.0905 4.5888 2.771 7.3135 1.2129 4.8562-0.60111-0.94801-1.7919 0.17287-4.2347 3.9862-1.8691 2.9178-6.4661 8.6863-10.216 12.819-3.7494 4.1326-8.1434 10.101-9.7644 13.264-2.1278 4.1511-3.5132 5.75-4.9826 5.75-2.3372 0-7.9359-2.6827-7.9359-3.8026 0-0.41318-1.8433-3.2045-4.0963-6.2028-7.0939-9.4411-7.9094-11.698-6.4955-17.976 0.77048-3.421 1.5137-4.9541 2.0113-4.1489 0.59082 0.95595 1.1736 0.72834 2.3178-0.90522 0.9761-1.3936 1.1609-2.414 0.51127-2.8234-0.55948-0.35264-1.1895-1.5412-1.4-2.6412-0.27995-1.4627-1.2615-0.25387-3.6539 4.5-1.7991 3.575-2.9783 5.375-2.6205 4 0.35781-1.375 1.05-2.9275 1.5382-3.45 0.48819-0.5225 0.88761-1.578 0.88761-2.3456s0.91432-2.6797 2.0318-4.2491c2.2271-3.1277 1.8386-7.9553-0.64024-7.9553-0.76537 0-1.3938 0.3375-1.3966 0.75-0.003 0.4125-1.1482 2.1-2.5454 3.75-1.5064 1.7789-2.0234 2.0943-1.2701 0.77496 1.6652-2.9165 0.0465-4.6208-3.5349-3.7219-3.2789 0.82295-3.3846 2.7954-0.27557 5.1406 2.0471 1.5441 2.2197 2.1281 1.2704 4.2967-0.60429 1.3803-1.378 2.7347-1.7194 3.0097-1.5345 1.2362-3.2433 5.7751-3.9264 10.429-0.68172 4.6452-0.75467 4.7534-0.86895 1.2888-0.0686-2.0802 0.54725-5.3905 1.3686-7.3562 0.82135-1.9658 1.2744-3.9284 1.0068-4.3615-0.26764-0.43305-4.5177-0.72274-9.4445-0.64376-5.0299 0.0806-8.5787-0.23512-8.0931-0.72007 0.47564-0.47501 4.2786-0.69127 8.4511-0.48057s7.5863 0.26907 7.5863 0.12969c0-0.13937-2.5875-1.589-5.75-3.2213-3.1625-1.6324-5.3975-2.9896-4.9668-3.016 0.43079-0.0265 3.0183 1.0845 5.75 2.4688l4.9668 2.5168v-2.4435c0-1.4863-0.68556-2.6227-1.75-2.9008-1.465-0.38286-1.4222-0.47622 0.26287-0.57333 1.1071-0.0638 2.461-1.1285 3.0087-2.366 0.82989-1.8751 1.7024-2.2185 5.2371-2.0607 5.2465 0.23419 5.5762-1.2184 0.49134-2.1644-5.0225-0.93445-13.213-4.5082-16.049-7.0029-1.2644-1.1121-3.9644-2.5499-6-3.1952-2.8805-0.91301-3.1723-1.1902-1.3163-1.25 2.3817-0.0768 2.381-0.0798-0.47727-2.3268-6.3376-4.9822-10.274-10.191-21.661-28.662-3.58-5.82-3.92-6.09-7.78-6.09-7.971 0-14.609-5.0171-17.407-13.156-3.1716-9.2255 1.5009-23.318 8.3228-25.102 1.2444-0.32541 4.4635-0.0207 7.1535 0.67704l4.891 1.2687 0.49458-4.0937c0.27202-2.2515 0.76106-6.5053 1.0868-9.4528 0.55439-5.0172 2.4465-12.045 4.4801-16.641 0.48675-1.1 1.8343-4.2403 2.9945-6.9785 2.8041-6.6179 10.232-16.224 15.759-20.381 8.41-6.33 24.6-12.15 33.79-12.15 2.7921 0 3.305-0.31564 2.8436-1.75-0.42947-1.3351-0.33281-1.4278 0.40765-0.3912 0.71629 1.0028 2.1165 1.1629 5.3443 0.611 2.4056-0.41129 12.249-0.74247 21.874-0.73594 16.59 0.0113 18.072 0.17497 28.5 3.1481 16.655 4.7486 26.039 9.8479 34.486 18.74 3.8579 4.0614 7.0144 7.813 7.0144 8.3369 0 0.52391 1.0554 2.5078 2.3453 4.4085 1.2899 1.9008 2.899 5.6333 3.5757 8.2944 0.67675 2.6612 1.5772 5.5135 2.001 6.3385 0.42381 0.825 1.3424 4.65 2.0413 8.5 1.7771 9.7893 1.6152 9.5 5.3182 9.5 2.3579 0 4.1032 0.8111 5.9172 2.75 6.2314 6.6602 7.3011 13.871 3.449 23.25-2.8257 6.8796-6.0558 8.8746-10.58 6.5348-2.7973-1.4465-3.0578-1.4211-4.029 0.39359-0.57108 1.0671-1.0383 2.6937-1.0383 3.6148 0 0.92109-3.014 6.6063-6.6977 12.634-7.2999 11.944-15.525 20.939-26.802 29.308-8.175 6.067-11.935 7.9083-20.63 10.102-3.5036 0.88383-6.7295 1.9453-7.1688 2.3587-1.0759 1.0127 6.0908 9.9426 11.464 14.285 4.4734 3.6149 19.764 14.034 28.195 19.213 7.477 4.5925 13.974 12.411 17.673 21.267 3.2246 7.7212 8.2713 24.554 9.3811 31.29 0.31718 1.925 1.0396 6.425 1.6053 10 0.56574 3.575 1.4958 8.525 2.0667 11 0.57097 2.475 1.5204 7.3873 2.1099 10.916l1.0717 6.4162-3.3842 2.8595c-1.8613 1.5727-5.3226 4.0309-7.6918 5.4625-2.6174 1.5816-4.1059 3.1285-3.7937 3.9422 0.28265 0.73657 0.0836 1.6052-0.44242 1.9302-0.52598 0.32508-0.95633-0.0712-0.95633-0.8806 0-1.1194-1.2458-0.79038-5.2053 1.3749-3.5903 1.9634-6.15 2.706-8.25 2.3935-2.2552-0.33557-2.545-0.23414-1.1178 0.3912 1.7286 0.75737 1.7543 0.91047 0.25 1.4877-0.92229 0.35391-2.3481 0.38591-3.1685 0.0711-0.82036-0.3148-1.7342 0.06-2.0308 0.83286-0.54525 1.4209 1.5858 17.337 3.5436 26.466l1.064 4.9613 9.2074-1.4091c5.064-0.77499 9.5228-1.7035 9.9082-2.0633zm-103-79.25c-0.93692-1.7033-3.0946-4.9658-4.7949-7.25-4.4625-5.995-10.43-19.784-10.291-23.779 0.1052-3.0179 0.19902-2.8937 0.88858 1.1764 0.76776 4.5317 8.0535 20.25 9.9213 21.405 0.53966 0.33353 2.1983 2.8426 3.6858 5.5756s3.0324 4.9692 3.4331 4.9692c0.40068 0 1.7917-1.3459 3.0911-2.9909s2.7883-2.995 3.3087-3c0.52039-0.005-0.58039 1.5659-2.4462 3.4909s-3.775 3.5-4.2427 3.5c-0.46769 0-1.6169-1.3936-2.5538-3.097zm11.9-7.1835c1.3178-1.2542 4.0446-4.1375 6.0596-6.4072s5.7492-5.349 8.2984-6.843c2.5492-1.4939 6.1881-4.7504 8.0865-7.2366s3.4495-3.8932 3.447-3.1266c-0.007 2.0958-5.4412 7.4778-11.397 11.288-2.911 1.8621-7.4722 5.9102-10.136 8.9958-2.6639 3.0855-5.2733 5.6101-5.7987 5.6101-0.52541 0 0.12291-1.0262 1.4407-2.2804zm-11.501-3.5529c-0.28327-0.45834 0.12038-0.83334 0.89699-0.83334s1.1803 0.375 0.89699 0.83334c-0.28 0.45-0.68 0.83-0.89 0.83-0.21008 0-0.61373-0.375-0.89699-0.83333zm-2.9795-6.7053c-0.34295-0.8937-0.59502-2.1506-0.56015-2.7931 0.0349-0.64251 0.49453-0.0904 1.0215 1.227 0.52695 1.3174 0.77902 2.5743 0.56015 2.7931-0.21887 0.21887-0.67854-0.33327-1.0215-1.227zm15.38 1.1c0-0.24254 0.45-0.7191 1-1.059 0.55-0.33992 1-0.14148 1 0.44098s-0.45 1.059-1 1.059-1-0.19844-1-0.44098zm-13.31-2.56c-0.34284-0.825-0.56659-2.175-0.49722-3 0.28865-3.4328-0.2545-5.1888-1.4617-4.7256-0.89558 0.34367-1.2727-0.66176-1.2727-3.393 0-2.1348 0.3174-3.8814 0.70534-3.8814 1.11 0 2.047 3.8563 1.2502 5.1456-0.4188 0.67763-0.28543 0.89546 0.3194 0.52166 0.93198-0.576 1.9036 1.1828 3.6654 6.6347 0.32025 0.99106 0.17149 1.548-0.33058 1.2378-0.50208-0.31029-1.1023 0.22883-1.3338 1.1981-0.34929 1.4624-0.527 1.507-1.0443 0.26224zm14.086-1.7626c-0.41706-1.5948-0.17753-1.9464 1.0145-1.489 1.2099 0.46427 1.3925 0.16667 0.81273-1.3248-1.2033-3.0957-1.1771-3.9388 0.11449-3.6856 0.66771 0.13091 0.98896-0.34847 0.7139-1.0653-0.27507-0.71681-0.087-2.3989 0.41797-3.738 0.78627-2.0851 0.90688-1.8245 0.83997 1.8153-0.043 2.3375-0.49497 4.25-1.0044 4.25-0.50946 0-0.41442 0.61678 0.21121 1.3706 0.87168 1.0503 0.7038 1.9062-0.71841 3.6626-1.8455 2.2791-1.859 2.2803-2.4019 0.2042zm-27.88-19.24c-0.60623-6.3518-0.63657-6.0998 0.62554-5.1956 0.53556 0.38366 0.73074 2.938 0.43521 5.6956l-0.53582 5-0.52493-5.5zm31.127 4.5c0-0.55 0.43621-1.675 0.96937-2.5s0.96937-1.05 0.96937-0.5-0.43621 1.675-0.96937 2.5-0.96937 1.05-0.96937 0.5zm20.636-4.1667c-1.1864-1.1864-0.70766-4.8999 0.8885-6.8922 1.5023-1.8751 1.5193-1.8668 0.5 0.24313-0.58035 1.2013-1.0353 3.2263-1.011 4.5 0.0375 1.9637 0.34511 1.7457 2.0239-1.4343 1.0888-2.0625 2.2031-3.75 2.4761-3.75 0.27304 0-0.42185 1.8-1.5442 4-2.1663 4.2464-2.2933 4.3734-3.3333 3.3333zm-22.64-0.83c0-0.55 0.43621-1.675 0.96937-2.5s0.96937-1.05 0.96937-0.5-0.43621 1.675-0.96937 2.5-0.96937 1.05-0.96937 0.5zm-18.568-2.6176c-0.54714-1.7239-0.8753-1.8745-1.6663-0.76452-0.75333 1.0571-0.84606 0.9535-0.39426-0.44031 0.32491-1.0024 0.12653-2.6898-0.44085-3.75-1.7761-3.3187-0.34467-2.1054 2.3882 2.0243 1.4384 2.1735 2.2056 4.2051 1.7049 4.5145-0.5007 0.30945-1.217-0.40336-1.5917-1.584zm8.3237 0.70405c-2.0425-0.72918-3.9225-1.1169-4.1778-0.86163-0.53204 0.53204-6.0017-7.7115-6.1208-9.2248-0.0433-0.55-0.7332-0.85536-1.5332-0.67857-1.1558 0.2554-1.2012 0.0637-0.22122-0.93333 0.67834-0.69012 1.3886-1.0598 1.5783-0.82143 3.8155 4.7927 5.7328 8.0525 5.2222 8.8787-0.38021 0.61519-0.0111 0.79131 0.91427 0.43623 0.85357-0.32755 1.5519-0.11474 1.5519 0.47291 0 1.4444 7.6744 3.4301 9.4212 2.4377 0.76684-0.43569 4.8108-5.2481 8.9866-10.694 4.1758-5.4462 7.5923-9.4737 7.5923-8.95 0 0.52369-0.53035 1.4825-1.1786 2.1307-0.6482 0.6482-2.1463 3.1007-3.3291 5.45s-2.659 4.2714-3.2803 4.2714c-0.62137 0-2.2824 1.575-3.6912 3.5-2.8336 3.872-5.3479 6.023-6.9619 5.9561-0.58238-0.0241-2.73-0.6405-4.7725-1.3697zm-17.62-6.58c0-1.375 0.22698-1.9375 0.50439-1.25s0.27741 1.8125 0 2.5-0.50439 0.125-0.50439-1.25zm55.84 0.06c0-0.51754 0.44485-1.2159 0.98855-1.5519 0.56686-0.35034 0.7345 0.0511 0.39301 0.94098-0.66 1.73-1.38 2.05-1.38 0.61zm-56.921-5.4757c-0.0434-1.0542 0.19292-1.6448 0.52522-1.3125 0.33229 0.33229 0.36781 1.1948 0.0789 1.9167-0.31922 0.79773-0.55618 0.56078-0.60416-0.60417zm61-1.58c1.46-3.06 1.92-3.63 1.92-2.36 0 0.53655-0.69982 1.849-1.5552 2.9167-1.4664 1.8303-1.4872 1.7984-0.36454-0.55887zm-58.051-5.25c-1.6571-2.8894-2.9699-6.5989-2.9198-8.25 0.0853-2.8107 0.14775-2.759 0.98955 0.82013 0.49418 2.1011 2.0667 5.8136 3.4946 8.25 1.4278 2.4364 2.3374 4.4299 2.0213 4.4299-0.31614 0-1.9297-2.3625-3.5856-5.25zm-7.4226-2.3318c-1.1928-3.1084-0.57408-8.5624 1.4133-12.458 2.7808-5.4507 3.3214-4.9869 0.80861 0.69367-1.5196 3.4352-1.9026 5.7919-1.4629 9 0.61188 4.4642 0.31214 5.5558-0.75904 2.7644zm68.66-3.42c0-2.475 0.19502-3.4875 0.43337-2.25 0.23836 1.2375 0.23836 3.2625 0 4.5-0.23835 1.2375-0.43337 0.225-0.43337-2.25zm-9.1318-0.5c0-1.1 0.38674-2.9 0.85943-4 0.85943-2 0.85943-2 0.85943 0 0 1.1-0.38674 2.9-0.85943 4-0.85943 2-0.85943 2-0.85943 0zm-10.6-0.5c2.03-3.67 7.46-11.13 7.46-10.26 0 0.52919-1.4076 2.9422-3.128 5.3622-3.4065 4.7919-5.7322 7.4217-4.3334 4.9zm-43.071-15.937c0.83521-1.6151 1.9725-3.2172 2.5274-3.5601 0.55486-0.34292 0.0636 0.97854-1.0917 2.9366-2.5328 4.2927-3.565 4.7409-1.4357 0.62349zm-36.47 0.54c0-1.3338 7.7284-5.5934 9.9821-5.5018 2.2394 0.091 2.1711 0.18509-0.61745 0.85025-1.7244 0.41133-4.5369 1.7459-6.25 2.9657-1.71 1.23-3.11 1.99-3.11 1.69zm15.5-5.6303c-1.3355-0.59132-0.50479-0.68786 2.5-0.29056 2.475 0.32725 4.6875 0.75739 4.9167 0.95585 0.86863 0.75225-5.5068 0.18036-7.4167-0.66529zm-8.5-3.7409c-3.8997-2.3684-14-11.612-14-12.812 0-0.23158 0.675-0.42105 1.5-0.42105s1.5 0.58131 1.5 1.2918c0 1.8983 7.8106 9.1868 13 12.131 2.475 1.4042 4.05 2.5509 3.5 2.5481-0.55-0.003-3.025-1.2348-5.5-2.738zm13.765-0.94063c1.2457-0.23942 2.0098-0.84798 1.6981-1.3524-0.31172-0.50438 0.13161-0.64906 0.98517-0.32152 2.7007 1.0364 1.6794 2.3869-1.6981 2.2454-2.3761-0.0996-2.641-0.25324-0.98517-0.5715zm-4.26-3.83c-1.65-0.75553-5.025-1.466-7.5-1.5788-4.0436-0.18434-4.1513-0.24747-1.0622-0.62248 3.6194-0.43936 11.739 1.4063 12.647 2.8746 0.72236 1.1688-0.50284 0.96686-4.0848-0.67328zm-18.682-7.6818c0.53328-0.53328 1.8049-0.79255 2.8258-0.57615 1.3748 0.29142 1.1234 0.54288-0.9696 0.96961-1.8248 0.37205-2.4824 0.23268-1.8562-0.39346zm5.913-1.438c0.67703-0.27392 2.027-0.29059 3-0.0371 0.97297 0.25354 0.41903 0.47766-1.231 0.49804-1.65 0.0204-2.4461-0.18706-1.769-0.46099zm51.348-149.76c-0.0434-1.0542 0.19292-1.6448 0.52522-1.3125 0.33229 0.33229 0.36781 1.1948 0.0789 1.9167-0.31922 0.79773-0.55618 0.56078-0.60416-0.60417zm-12-1c-0.0434-1.0542 0.19292-1.6448 0.52522-1.3125 0.33229 0.33229 0.36781 1.1948 0.0789 1.9167-0.31922 0.79773-0.55618 0.56078-0.60416-0.60417zm16-2c-0.0434-1.0542 0.19292-1.6448 0.52522-1.3125 0.33229 0.33229 0.36781 1.1948 0.0789 1.9167-0.31922 0.79773-0.55618 0.56078-0.60416-0.60417zm-63.08 329.57c0-3.2193 0.28911-8.6193 0.64246-12 0.55781-5.3369 0.42191-6.1467-1.0316-6.1467-4.0168 0-18.04-5.4605-23.791-9.2639-1.4739-0.97479-2.902-1.4128-3.1736-0.97339-0.27158 0.43943-0.80963 5.1017-1.1957 10.361l-0.70187 9.5617 2.8754 2.0189c3.97 2.78 23.3 12.29 25 12.29 1.02 0 1.38-1.54 1.38-5.85zm1.35-27.4c1.0052-12.913 0.78774-46.75-0.30048-46.75-1.1894 0-2.4703 6.4501-1.6866 8.4925 0.31817 0.82914 0.30567 2.2185-0.0278 3.0874-0.47331 1.2334-1.7823 0.4185-5.9686-3.7158-3.16-3.11-5.37-4.66-5.37-3.77 0 1.5191 2.4946 4.9274 8.8622 12.108 2.8006 3.1581 3.2668 4.3351 2.7913 7.0461-0.48187 2.7474-1.0164 24.42-0.74009 30.005 0.0476 0.9625 0.46991 1.75 0.93839 1.75s1.1408-3.7125 1.494-8.25zm133.28 0c-0.77026-7.4114-1.3816-11.024-2.665-15.75-1.9556-7.2007-1.4088-8.6681 6.0781-16.312 6.1607-6.2901 9.1008-10.88 7.8013-12.18-0.62-0.61999-1.8131 0.45533-9.5849 8.6387l-7.2437 7.6274-0.98431-3.637c-0.54137-2.0003-1.4931-6.3062-2.1149-9.5686-0.78457-4.1163-1.3875-5.4726-1.97-4.4317-0.7498 1.3398 0.26278 7.8769 4.0567 26.19 0.54994 2.6545 0.99989 6.3586 0.99989 8.2314s0.5416 6.5635 1.2036 10.424c1.0045 5.858 1.5234 7.0186 3.1381 7.0186 1.7757 0 1.8812-0.51331 1.285-6.25zm-72.785-0.30105c2.1539-4.7274-2.0416-10.152-5.1291-6.6315-2.7386 3.1226-2.9597 5.8742-0.64501 8.0306 2.5404 2.3668 4.2466 1.9533 5.7741-1.399zm-3.84-1.89c0-1.41 0.45-2.56 1-2.56s1 0.87344 1 1.941c0 1.0675-0.45 2.2191-1 2.559-0.56716 0.35052-1-0.48962-1-1.941zm10 2.94c0-3.1037 1.2841-3.202 3.2687-0.25 1.8757 2.79 3.6466 1.4453 1.8613-1.4134-0.92829-1.4864-0.98828-2.3784-0.21214-3.1545 2.9811-2.9811-0.45267-6.5993-4.9179-5.1821-1.7039 0.5408-2 1.513-2 6.5674 0 3.2884 0.44571 5.9326 1 5.9326 0.55 0 1-1.125 1-2.5zm0.5-6.5c0.33992-0.55 1.068-1 1.618-1s0.72189 0.45 0.38197 1-1.068 1-1.618 1-0.72189-0.45-0.38197-1zm-50 6c0.74876-2.3591 5.5-2.842 5.5-0.55902 0 1.5272 1.8007 3.0917 2.6179 2.2745 0.98735-0.98735-5.1288-12.762-6.4878-12.49-1.7302 0.34632-5.2786 9.2236-4.499 11.255 0.81116 2.1139 2.1146 1.8953 2.8689-0.4811zm1.5-4.941c0-0.51754 0.45-1.2191 1-1.559 0.55-0.33992 1 0.0835 1 0.94098 0 0.85746-0.45 1.559-1 1.559s-1-0.42344-1-0.94098zm28 1.882c0-3.27 0.34-3.94 2-3.94 1.1752 0 2-0.66667 2-1.6166 0-1.1885-0.59587-1.457-2.25-1.0137-1.2375 0.33164-3.2625 0.60913-4.5 0.61664-1.2375 0.008-2.25 0.46365-2.25 1.0136 0 0.55 0.675 1 1.5 1 1.114 0 1.5 1.1732 1.5 4.559 0 2.7847 0.38919 4.3185 1 3.941 0.55-0.33992 1-2.3915 1-4.559zm33 1.5818c0-3.01-0.96-5.52-2.11-5.52-1.0121 0-1.2356 7.324-0.25353 8.3062 1.1196 1.1196 2.3605-0.34352 2.3605-2.7834zm11.273 1.4977c1.7949-2.5626 1.0757-7.2689-1.5397-10.076-1.976-2.121-2.119-2.1374-3.3981-0.38809-1.4676 2.007-1.6621 4.5597-0.71029 9.3189 0.73153 3.6577 3.4958 4.2183 5.6481 1.1455zm-3.7834-2.2055c-0.36674-1.4612-0.47838-3.4799-0.2481-4.4859 0.355-1.5508 0.61357-1.4272 1.6993 0.81175 0.9134 1.8836 0.98454 3.1699 0.2481 4.4859-0.94169 1.6827-1.0912 1.6113-1.6993-0.81175zm10.691 2.0134c0.3607-2.4513 2.8196-3.7892 2.8196-1.5341 0 0.80349 0.675 2.0211 1.5 2.7058 1.9064 1.5822 1.8998 1.5052-0.54905-6.4234-1.127-3.6487-2.4406-6.3921-2.9191-6.0963-0.85 0.54-3.03 9.21-3.03 12.08 0 2.2918 1.826 1.6881 2.1804-0.72089zm-61.383-0.0839c1.5837-1.9082 2.4919-6.4682 1.581-7.9376-0.54954-0.88645-1.1718-0.0201-1.9344 2.6932-0.91317 3.249-1.5766 4-3.534 4-2.1684 0-2.4098-0.4257-2.4098-4.2513 0-2.7351-0.44582-4.2508-1.25-4.25-0.6875 0.00071-1.2977 0.56379-1.356 1.2513-0.2669 3.1484 0.38946 7.3628 1.3238 8.5 1.3293 1.6178 6.235 1.6142 7.5793-0.006zm78.2-5.18c0-3.6562-2.092-5.9534-6.3429-6.9652l-2.8429-0.67669 0.5834 5.7275c0.66081 6.4874 1.6767 7.576 5.7462 6.1573 2.3508-0.8195 2.8562-1.5703 2.8562-4.2429zm-6.0136 1.7519c-0.008-0.44496-0.28675-1.8282-0.62052-3.0739-0.48274-1.8016-0.27542-2.1377 1.0136-1.643 1.7866 0.6856 2.1973 3.9334 0.62052 4.9079-0.55 0.33992-1.0061 0.25398-1.0136-0.19098zm-81.34-19.31c0.75995-3.7998 1.9869-3.8016 4.1465-0.006 0.93692 1.6465 2.0269 2.9965 2.4221 3 0.82183 0.007-0.0797-2.9108-1.4474-4.6847-0.60003-0.77827-0.18455-2.1835 1.1988-4.0546 2.8333-3.8323 1.8427-6.2544-2.558-6.2544-3.7097 0-3.8043 0.17418-5.2957 9.75-0.85913 5.5161 0.48578 7.4892 1.5336 2.25zm1.35-6.8776c0-1.3113 2.585-3.2041 3.342-2.4471 1.37 1.37 0.58 3.33-1.34 3.33-1.1 0-2-0.3949-2-0.87756zm32 8.4127c0-0.80565-0.92734-1.9611-2.0608-2.5677-2.4747-1.3244-2.0048-3.5805 0.66451-3.1902 1.7881 0.26145 1.7965 0.19813 0.14626-1.1102-2.2824-1.8096-2.2088-2.2792 0.5-3.1915 2.1375-0.71984 2.1064-0.77957-0.62182-1.1948-3.5246-0.53643-4.543 0.40791-5.628 5.2183-1.2725 5.6422-0.45548 6.6887 5.7498 7.3648 0.6875 0.0749 1.25-0.52299 1.25-1.3286zm-40.007-2.5252c2.8696-4.0299 2.4972-10.369-0.63529-10.815-2.867-0.40876-6.3576 4.5563-6.3576 9.0432 0 1.8859 0.3 3.729 0.66667 4.0956 1.515 1.515 4.329 0.48151 6.3262-2.3233zm-4.6158-3.1453c0.36717-1.8358 1.316-3.9863 2.1085-4.7788 1.2546-1.2546 1.5226-1.2282 2.072 0.20362 0.93658 2.4407-0.9576 7.159-3.0357 7.5618-1.5581 0.30201-1.7187-0.11705-1.1448-2.9866zm28.658 4.6171c3.2202-1.6652 4.8478-5.8508 3.2612-8.3866-0.54896-0.87737-2.4152-1.7362-4.1473-1.9086l-3.14-0.31v6.0634c0 3.3348 0.24735 6.0634 0.54966 6.0634s1.8708-0.68318 3.4855-1.5182zm-2.36-4.72c0.76617-4.025 1.0778-4.4036 2.4748-3.0066 1.4731 1.4731 0.22111 6.2566-1.6375 6.2566-1.1028 0-1.3059-0.78821-0.83731-3.25zm24.982 2.782c-0.93973-2.4489 1.1075-2.7154 2.7579-0.35909 0.84998 1.2135 1.7177 2.0085 1.9283 1.7667 0.8824-1.0133 1.4935-10.94 0.67349-10.94-0.49246 0-1.0338 1.9125-1.2029 4.25l-0.3075 4.25-2.326-3.936c-1.8157-3.0724-2.5254-3.6209-3.2347-2.5-1.0593 1.6741-1.2447 7.2973-0.27262 8.2693 1.2235 1.2235 2.5547 0.68586 1.984-0.8013zm23.384-1.0738c1.0628-1.2806 0.89426-2.063-0.99502-4.6184-2.2853-3.091-2.0726-3.8464 1.4603-5.1866 0.55-0.20864 0.73547-0.66799 0.41216-1.0208-0.62239-0.67911-6.9122 1.2055-6.9122 2.0711 0 0.2793 1.1436 1.8669 2.5414 3.5281 2.7129 3.2241 2.7874 5.2605 0.19312 5.2812-0.87633 0.007-1.9251 0.34452-2.3306 0.75-0.40548 0.40549 0.40766 0.73725 1.807 0.73725s3.12-0.69382 3.8238-1.5418zm7.777-5.7297c-0.17-1.78-0.76-3.01-1.31-2.73-1.0594 0.52972-1.4993 5.5721-0.68563 7.8595 0.83645 2.3513 2.3456-1.5254 1.9974-5.131zm7.4315 3.5216c0.34212-2.5018 0.45433-2.5695 1.2435-0.75 2.0502 4.7271 4.4712 3.4843 4.498-2.309 0.01-2.131-0.3717-3.0698-1.0718-2.6371-0.59791 0.36953-0.86504 1.5211-0.59362 2.559 0.7269 2.7796-0.63872 2.2989-3.1611-1.1129-2.9-3.92-4.16-3.79-4.16 0.42 0 6.2528 2.5071 9.2149 3.2432 3.8318zm-74.06-71.467c-0.71756-0.71756-1.1833-0.7766-1.1833-0.15 0 1.3348 1.1826 2.5174 1.85 1.85 0.28417-0.28416-0.0158-1.0492-0.66667-1.7zm29.375-18.599c-0.80747-2.5441-6.2884-3.5406-6.9035-1.2551-0.37995 1.4117-0.43464 1.4098-0.53887-0.0184-0.0638-0.87422-1.2324-2.0982-2.5969-2.7199-2.106-0.95954-2.6354-0.84183-3.5027 0.7788-0.56197 1.05-0.68305 2.0921-0.26906 2.3157 1.7869 0.96509 13.477 3.5414 14.094 3.1062 0.18771-0.13231 0.0604-1.1256-0.2829-2.2073zm19.035-0.1222c4.7694-2.1098 5.1083-2.7203 3.0625-5.5182-0.99294-1.3579-2.0423-1.6634-4.014-1.1686-2.6459 0.66408-2.6554 0.69867-1.074 3.8975l1.5956 3.2274-2.3898-2.8783c-1.8354-2.2106-2.8987-2.7167-4.5836-2.182-1.7439 0.5535-2.0862 1.2463-1.6688 3.3783 0.51384 2.6251 0.50295 2.6315-0.51328 0.30361-0.89936-2.0602-1.521-2.3-4.6469-1.7928-4.5462 0.73775-4.7871 1.0061-3.3363 3.7169 1.0874 2.0318 1.6868 2.1648 7.1742 1.5912 3.2932-0.34421 7.9707-1.503 10.394-2.5752zm-11.6-4.37c3.267-0.6515 12.575-4.0171 13.801-4.9904 0.71558-0.56788 1.1656-2.4208 1-4.1177l-0.3-3.08h-18.25-18.249l-0.00051 4.801c-0.00047 4.5532 0.18244 4.8775 3.5435 6.2818 1.9492 0.81443 3.9431 1.2341 4.4309 0.93266 0.48779-0.30147 1.1981-0.0445 1.5786 0.57104 0.60997 0.98695 6.4508 0.8024 12.447-0.39326zm17.958-7.9506c-1.14-3.573-1.4153-3.8659-1.7436-1.8558-0.21442 1.3128 0.13724 2.7127 0.78147 3.1108 0.82892 0.51229 0.70833 0.9016-0.4125 1.3317-1.897 0.72796-2.0541 2.8003-0.34209 4.5123 2.2054 2.2054 3.2746-2.2164 1.7167-7.0991zm-52.443 5.2094c0.64-2.01-0.93-4.95-2.64-4.95-1.0202 0-1.1982 5.3461-0.21089 6.3333 1.191 1.191 2.1851 0.70897 2.8486-1.3813zm55.48-12.16c1.375-0.29277 5.8623-2.1644 9.9718-4.1593 4.1095-1.9948 8.2169-3.6269 9.1276-3.6269 0.91068 0 2.216-0.675 2.9007-1.5 0.68469-0.825 1.6039-1.5 2.0427-1.5 1.9938 0 16.872-11.359 20.545-15.685 10.562-12.441 17.308-24.271 20.531-36.005 2.7423-9.9845 2.1296-23.325-1.6089-35.031-1.3662-4.278-2.4898-8.6937-2.4968-9.8128-0.0226-3.5975-4.0687-13.711-7.6351-19.084-8.3568-12.59-19.652-20.126-38.999-26.021-8.0559-2.4545-10.523-2.7238-26.628-2.9068-15.768-0.17918-17.759-0.0204-17.829 1.4222-0.0504 1.036-0.26155 1.1714-0.58333 0.37396-0.50756-1.2579-7.4777-1.7766-8.6133-0.64107-0.33491 0.3349-2.5474 0.74431-4.9167 0.90979-6.2382 0.43571-10.394 1.2253-12.479 2.371-1.0056 0.55254-4.4442 1.9326-7.6412 3.0669-16.261 5.769-26.759 18.024-33.873 39.543-2.0933 6.3318-2.3094 8.7661-2.264 25.5 0.0392 14.414 0.42571 19.749 1.75 24.154 0.93484 3.1096 1.6997 6.3428 1.6997 7.1849 0 0.84204 0.51915 2.7978 1.1537 4.3461 0.63451 1.5483 1.2839 3.4744 1.4431 4.2801 0.15918 0.80577 2.1083 5.1357 4.3314 9.6222 3.3184 6.6968 5.6464 9.6839 13.004 16.685 15.673 14.915 24.738 17.767 55.068 17.328 10.725-0.15531 20.625-0.52193 22-0.8147zm-23.25-11.448c0.6875-0.27741 1.8125-0.27741 2.5 0s0.125 0.50439-1.25 0.50439-1.9375-0.22698-1.25-0.50439zm5 0c0.6875-0.27741 1.8125-0.27741 2.5 0s0.125 0.50439-1.25 0.50439-1.9375-0.22698-1.25-0.50439zm5.068-0.55568c0.53328-0.53328 1.8049-0.79255 2.8258-0.57615 1.3748 0.29142 1.1234 0.54288-0.9696 0.96961-1.8248 0.37205-2.4824 0.23268-1.8562-0.39346zm-18.07-0.44c0.6875-0.27741 1.8125-0.27741 2.5 0s0.125 0.50439-1.25 0.50439-1.9375-0.22698-1.25-0.50439zm-9.4792-1.9419c0.33229-0.33229 1.1948-0.36781 1.9167-0.0789 0.79773 0.31922 0.56078 0.55618-0.60417 0.60416-1.0542 0.0434-1.6448-0.19293-1.3125-0.52522zm9.4792-3.0581c0.6875-0.27741 1.8125-0.27741 2.5 0s0.125 0.50439-1.25 0.50439-1.9375-0.22698-1.25-0.50439zm16.521 0.0581c0.33229-0.33229 1.1948-0.36781 1.9167-0.0789 0.79773 0.31922 0.56078 0.55618-0.60417 0.60416-1.0542 0.0434-1.6448-0.19293-1.3125-0.52522zm20.73-0.4c0.825-0.53316 1.95-0.96937 2.5-0.96937s0.325 0.43621-0.5 0.96937-1.95 0.96937-2.5 0.96937-0.325-0.43621 0.5-0.96937zm-44-1.0457c-1.0955-0.74131-0.69092-0.83408 1.5-0.34401 3.6769 0.82247 4.4751 1.3948 1.9167 1.3744-1.0542-0.008-2.5917-0.47209-3.4167-1.0304zm-4.7292-0.55848c0.33229-0.33229 1.1948-0.36781 1.9167-0.0789 0.79773 0.31922 0.56078 0.55618-0.60417 0.60416-1.0542 0.0434-1.6448-0.19293-1.3125-0.52522zm-9.6697-2.8684c-3.2444-1.3338-6.3944-2.9496-7-3.5905-0.60562-0.64096 0.4508-0.38116 2.3476 0.57732s5.7218 2.552 8.5 3.5412c2.7782 0.98917 4.3763 1.8207 3.5513 1.8478s-4.1545-1.042-7.3989-2.3758zm51.9 1.48c2.7491-1.1813 4.328-1.1813 2.5 0-0.825 0.53316-2.175 0.94464-3 0.9144-0.98906-0.0362-0.81874-0.34772 0.5-0.9144zm-65.396-8.4968c-7.42-4.06-10.1-7.26-10.1-12.05 0-5.8552 3.6621-9.4956 9.3864-9.331 3.6472 0.1049 3.7856 0.18994 1.2206 0.75-4.0725 0.88922-5.2539 3.1556-3.6559 7.0134 0.71039 1.715 1.7995 3.1249 2.4203 3.133 0.62077 0.008 0.008 0.58191-1.3625 1.2751-4.2172 2.1337-3.6679 4.3831 1.9186 7.8558 2.7899 1.7343 5.0726 3.311 5.0726 3.5038 0 0.52117-0.13335 0.46271-4.8957-2.1463zm82.9 2.07c0-0.275 0.9-0.98167 2-1.5704 1.1-0.5887 2-0.84537 2-0.57037s-0.9 0.98167-2 1.5704c-1.1 0.5887-2 0.84537-2 0.57037zm-63.83-5.32c-0.16938-4.2824-1.2136-5.1404-4.0615-3.337-0.81676 0.5172-1.1657 1.7529-0.84326 2.9861 0.30258 1.1571 0.14211 1.8516-0.3566 1.5433-0.5-0.31-0.91-1.42-0.91-2.48 0-1.2372-0.92896-2.1551-2.6073-2.5763-2.9698-0.74537-4.6892 0.99519-3.9616 4.0104 0.3366 1.3949 0.16269 1.5997-0.65987 0.77713-0.82257-0.82257-0.80783-1.7953 0.056-3.6911 1.5899-3.4894 1.6066-3.4601-2.0771-3.6299-2.9382-0.13546-2.9918-0.18926-0.55883-0.56075 2.1879-0.33406 2.7489-1.0074 3-3.6002 0.17829-1.8412 0.82198-3.0886 1.5228-2.9512 1.8316 0.35909 0.37706-2.5498-1.5492-3.098-0.91567-0.26064 0.58514-0.39876 3.3351-0.30693l5 0.16697-0.32943 3.3654c-0.58007 5.9259 0.4249 7.8685 4.305 8.3215 1.9211 0.22427 3.6736-0.0635 3.8946-0.63958 0.22095-0.57605 0.8506 0.0776 1.3992 1.4526 0.54863 1.375 0.76335 2.725 0.47717 3-0.28619 0.275-0.72124-0.0625-0.96678-0.75-0.9678-2.7098-3.1684-1.1607-3.5513 2.5l-0.39226 3.75-0.16811-4.25zm-11.564-9.9792c-0.3323-0.33229-0.56864 0.25834-0.52522 1.3125 0.048 1.165 0.28494 1.4019 0.60416 0.60417 0.28887-0.72188 0.25335-1.5844-0.0789-1.9167zm80.39 12.38c0-0.22907 1.6875-1.678 3.75-3.2199 3.0712-2.296 3.39-2.3912 1.7612-0.52607-1.8953 2.1703-5.5112 4.6281-5.5112 3.746zm-5.8253-5.9713c-0.15872-3.4681-0.3806-3.7541-2.4247-3.1258l-2.25 0.6916 2.1623-2.3742c1.1893-1.3058 2.3655-3.4992 2.6138-4.8742 0.36755-2.0353 0.47679-1.8757 0.58766 0.85841 0.12703 3.1328 0.32091 3.3152 2.8862 2.7149 4.1184-0.96376 9.4439-7.0616 9.0614-10.376-0.17126-1.4837-0.76138-2.6425-1.3114-2.575-0.55 0.0675-3.025 0.37191-5.5 0.67645l-4.5 0.55369 4.5-1.4433c2.475-0.79381 5.6999-1.1832 7.1665-0.86533 2.7786 0.60226 4.3137 2.8698 3.1823 4.7005-0.38131 0.61696-0.18524 0.77224 0.46649 0.36945 0.68709-0.42465 1.7473 0.77902 2.7267 3.0955 1.4715 3.4806 1.4705 4.0384-0.0118 6.826-0.88784 1.6697-2.6078 3.6413-3.8222 4.3814l-2.2079 1.3457 2.1743-2.3814c1.998-2.1883 2.0627-2.645 0.79827-5.6314-1.6663-3.9356-4.2206-4.2115-7.4238-0.80187-1.2649 1.3465-3.569 2.7269-5.1201 3.0676-2.4589 0.54007-2.8688 1.1552-3.1997 4.8019l-0.37949 4.1824-0.1747-3.8174zm-55.06 1.4097c-0.84666-0.5362 0.51354-0.67285 3.5-0.35163 2.6867 0.28898 5.0724 0.69054 5.3015 0.89236 0.90521 0.7972-7.5048 0.28052-8.8015-0.54073zm12.89-0.4c1.925-0.65468 3.95-1.4843 4.5-1.8436 0.55-0.35931 2.35-0.0982 4 0.58016l3 1.2334-3.5-0.0657c-1.925-0.0361-5.3 0.23843-7.5 0.61016l-4 0.67589 3.5-1.1903zm13.879-0.9694c0.4825-0.4825 2.1696-0.71609 3.7491-0.5191 2.6436 0.32972 2.5739 0.39943-0.87727 0.87727-2.1497 0.29765-3.3748 0.14485-2.8718-0.35817zm10.12-0.86c0-0.43748-0.77276-0.49888-1.7172-0.13645-1.523 0.58442-1.5513 0.47909-0.25-0.9311 0.80728-0.87486 1.917-1.2285 2.4672-0.78617 0.55 0.44214 2.125 0.97635 3.5 1.1871 2.2586 0.34624 2.1862 0.43531-0.75 0.92263-1.7875 0.29666-3.25 0.18144-3.25-0.25604zm7.2708-1.4624c0.33229-0.33229 1.1948-0.36781 1.9167-0.0789 0.79773 0.31922 0.56078 0.55618-0.60417 0.60416-1.0542 0.0434-1.6448-0.19293-1.3125-0.52522zm-48.11-3.4c0-1.375 0.22698-1.9375 0.50439-1.25s0.27741 1.8125 0 2.5-0.50439 0.125-0.50439-1.25zm-1.16-6.08c-3.2351-0.62529-3.1404-0.67352 1.25-0.63726 2.6125 0.0216 4.75 0.14313 4.75 0.27012 0 0.76533-2.9925 0.94844-6 0.36714zm20.888-0.21527c0.4387-0.43614 4.5808-0.65768 9.2047-0.49231l8.407 0.30068-9.2047 0.4923c-5.0626 0.27077-8.8457 0.13547-8.407-0.30067zm18.862-1.3693c0.6875-0.27741 1.8125-0.27741 2.5 0s0.125 0.50439-1.25 0.50439-1.9375-0.22698-1.25-0.50439zm5.5208-0.94189c0.33229-0.33229 1.1948-0.36781 1.9167-0.0789 0.79773 0.31922 0.56078 0.55618-0.60417 0.60416-1.0542 0.0434-1.6448-0.19293-1.3125-0.52522zm9.73-2.39c1.375-0.44035 3.4-0.80064 4.5-0.80064 1.5837 0 1.4796 0.16667-0.5 0.80064-1.375 0.44035-3.4 0.80064-4.5 0.80064-1.5837 0-1.4796-0.16667 0.5-0.80064zm-39-6.8089c0-0.44488 0.63247-1.6738 1.4055-2.731 1.3146-1.7979 1.3717-1.7456 0.88343 0.80887-0.47 2.43-2.29 3.97-2.29 1.92zm11-1.7502c0-0.85746 0.45-1.2809 1-0.94098s1 1.0415 1 1.559c0 0.51754-0.45 0.94098-1 0.94098s-1-0.70156-1-1.559zm-29.76-15.6c-1.8722-1.8722-1.5954-12.337 0.37857-14.311 5.0328-5.0328 8.5425 8.2369 3.7375 14.131-0.82602 1.0132-1.2169 1.2797-0.86867 0.59223 0.34825-0.6875 0.19412-1.25-0.34251-1.25s-1.1313 0.46687-1.3215 1.0375c-0.22093 0.66279-0.79277 0.59056-1.5833-0.2zm4.3164-11.925c1.1471-1.856-1.2522-3.4081-3.0115-1.948-0.84831 0.70403-1.5424 1.675-1.5424 2.1576 0 1.2583 3.7534 1.0855 4.5538-0.20957zm40.83 9.4798c-0.43319-1.726-0.18612-2.9039 0.73095-3.4847 0.99783-0.63194 1.0357-0.88164 0.13535-0.89267-0.6875-0.008-1.25-0.69031-1.25-1.5153 0-0.825 0.87344-1.5 1.941-1.5 1.0675 0 2.2191-0.45 2.559-1 0.33992-0.55 1.0137-1 1.4973-1 1.1844 0 0.76233 5.3053-0.49728 6.25-0.64028 0.48021-0.53816 1.0486 0.28387 1.58 1.9594 1.2667 0.30805 4.17-2.3718 4.17-1.7243 0-2.553-0.71353-3.0284-2.6073zm-0.39-10.77c0-1.6454 1.7954-3.1684 2.6856-2.2782 0.30388 0.30388-0.17606 1.2811-1.0665 2.1716-1.4 1.4-1.62 1.42-1.62 0.11zm-61.941-2.2326c-0.13032-2.4424 4.705-7.8867 8.9412-10.067 4.5891-2.3623 12.533-2.9422 15.229-1.1116 0.73824 0.50139-0.73815 0.58628-3.5205 0.20243-8.0178-1.1061-14.362 2.2279-19.399 10.195-0.65516 1.0362-1.2177 1.388-1.25 0.78184zm80.694-9.93c-0.96088-1.285-3.3234-2.9063-5.25-3.603-1.92-0.7-3.5-1.61-3.5-2.02 0-1.5117 5.8047 1.3356 8.5369 4.1874 1.5495 1.6173 2.6251 3.1262 2.3902 3.3531-0.23491 0.22687-1.2133-0.63883-2.1742-1.9238zm-20.75-0.72c0-0.9347 1.0125-2.33 2.25-3.1007 2.7984-1.7427 8.75-2.9043 8.75-1.7078 0 0.48791-1.8025 1.1916-4.0055 1.5638-2.3956 0.40473-4.6062 1.5343-5.5 2.8104-1.236 1.7647-1.4945 1.8398-1.4945 0.43422zm-30.941-26.041c-0.75074-1.2125-2.023-3.217-2.8272-4.4545s-1.2452-2.25-0.98005-2.25c0.70518 0 5.9629 8.1183 5.535 8.5463-0.19953 0.19952-0.97701-0.62927-1.7278-1.8418zm17.02-1.1212c-0.0434-1.0542 0.19292-1.6448 0.52522-1.3125 0.33229 0.33229 0.36781 1.1948 0.0789 1.9167-0.31922 0.79773-0.55618 0.56078-0.60416-0.60417zm-3.92-7.59c0-1.375 0.22698-1.9375 0.50439-1.25s0.27741 1.8125 0 2.5-0.50439 0.125-0.50439-1.25zm-9.699-6.0665c-0.36253-0.58659-0.44468-1.281-0.18255-1.5431 0.26212-0.26213 0.74306 0.21781 1.0688 1.0665 0.67618 1.7621 0.0999 2.0721-0.8862 0.4766zm-8-4c-0.36253-0.58659-0.44468-1.281-0.18255-1.5431 0.26212-0.26213 0.74306 0.21781 1.0688 1.0665 0.67618 1.7621 0.0999 2.0721-0.8862 0.4766zm-61.21 93.22c0.5269-0.5269 0.66525-2.6887 0.30745-4.8039-0.47472-2.8065-1.3516-4.1762-3.2446-5.0681-3.3584-1.5824-4.3131-0.89837-4.3131 3.0901 0 1.7874-0.6475 4.1234-1.4389 5.191-1.3474 1.8178-1.5471 1.8345-3.142 0.26336-1.8575-1.8298-2.6566-6.7392-1.8024-11.072 0.96683-4.9038 2.2549-2.9064 1.6852 2.6132-0.37248 3.609-0.16354 5.6043 0.63878 6.1001 1.7132 1.0588 2.3526 0.0559 3.0166-4.732 0.56985-4.1088 0.68853-4.2258 4.0966-4.0366l3.5098 0.19483-0.69454-8.0818c-0.4249-4.9443-1.2058-8.3978-2.0114-8.8957-2.0647-1.276-8.565-2.1398-10.79-1.4337-3.1778 1.0086-6.0663 5.9438-7.1803 12.268-1.6714 9.4888 2.4695 18.239 10.112 21.368 1.6562 0.67797 9.7372-1.4513 11.25-2.9642zm-5.7222-16.894c-1.3758-5.4817-4.1033-6.6803-7.4915-3.2921-1.0799 1.0799-2.2092 1.566-2.5095 1.0801-0.73901-1.1958 4.2868-5.0436 6.5876-5.0436 1.7164 0 5.8855 6.3471 5.8855 8.9602 0 2.171-1.8131 0.92081-2.472-1.7046zm184.52 8.6593c5.72-11.22 1.27-24.92-8.1-24.92-1.47 0-1.95 0.69-1.95 2.83 0 3.795 0.95154 4.5205 3.2274 2.4609 2.0393-1.8455 4.1961-1.1553 6.1704 1.9746 1.4311 2.2688-0.26521 3.6329-1.8398 1.4796-0.71-0.96-1.65-1.75-2.09-1.75-1.8 0-4.47 3.46-4.47 5.78 0 2.2446 0.2966 2.4146 3.25 1.8627 3.0329-0.56678 3.1204-0.50834 1.3089 0.875-1.0676 0.81529-2.482 1.4823-3.143 1.4823-2.0896 0-2.2956 2.594-0.30469 3.8374 1.5382 0.96059 2.4039 0.87127 4.4314-0.45722 3.3132-2.1709 4.6357-0.75788 1.5966 1.706-2.671 2.1654-5.6656 2.4893-6.7527 0.7303-0.50287-0.81367-0.96819-0.57926-1.4887 0.75-1.2783 3.2643-0.98865 4.277 1.3522 4.7279 5.804 1.1179 6.6686 0.78566 8.7934-3.3794z"/>
  </g>
  <metadata>
    <rdf:RDF>
      <cc:Work>
        <dc:format>image/svg+xml</dc:format>
        <dc:type rdf:resource="http://purl.org/dc/dcmitype/StillImage"/>
        <cc:license rdf:resource="http://creativecommons.org/licenses/publicdomain/"/>
        <dc:publisher>
          <cc:Agent rdf:about="http://openclipart.org/">
            <dc:title>Openclipart</dc:title>
          </cc:Agent>
        </dc:publisher>
        <dc:title>autoeducacion</dc:title>
        <dc:date>2010-12-10T06:23:16</dc:date>
        <dc:description>necesitamos conocerlo todo, necesitamos cuestionarlo todo</dc:description>
        <dc:source>https://openclipart.org/detail/100117/autoeducacion-by-radiopiromania</dc:source>
        <dc:creator>
          <cc:Agent>
            <dc:title>radiopiromania</dc:title>
          </cc:Agent>
        </dc:creator>
        <dc:subject>
          <rdf:Bag>
            <rdf:li>autodidactas rebeldes</rdf:li>
            <rdf:li>autoeducacion</rdf:li>
            <rdf:li>autonomia</rdf:li>
            <rdf:li>empirismo</rdf:li>
            <rdf:li>hay que conocerlo todo hay que cuestionarlo todo.</rdf:li>
            <rdf:li>hazlo tu misma</rdf:li>
            <rdf:li>pedagogia del error</rdf:li>
            <rdf:li>pedagogia libertaria</rdf:li>
          </rdf:Bag>
        </dc:subject>
      </cc:Work>
      <cc:License rdf:about="http://creativecommons.org/licenses/publicdomain/">
        <cc:permits rdf:resource="http://creativecommons.org/ns#Reproduction"/>
        <cc:permits rdf:resource="http://creativecommons.org/ns#Distribution"/>
        <cc:permits rdf:resource="http://creativecommons.org/ns#DerivativeWorks"/>
      </cc:License>
    </rdf:RDF>
  </metadata>
</svg>
