<?xml version="1.0" encoding="UTF-8" standalone="no"?>
<!-- Created with Inkscape (http://www.inkscape.org/) -->

<svg
   xmlns:dc="http://purl.org/dc/elements/1.1/"
   xmlns:cc="http://creativecommons.org/ns#"
   xmlns:rdf="http://www.w3.org/1999/02/22-rdf-syntax-ns#"
   xmlns:svg="http://www.w3.org/2000/svg"
   xmlns="http://www.w3.org/2000/svg"
   xmlns:sodipodi="http://sodipodi.sourceforge.net/DTD/sodipodi-0.dtd"
   xmlns:inkscape="http://www.inkscape.org/namespaces/inkscape"
   width="724.92285"
   height="870.7243"
   id="svg2"
   version="1.1"
   inkscape:version="0.48.4 r9939"
   sodipodi:docname="Cartoon Head 73.svg">
  <title
     id="title2998">Cartoon Head 74</title>
  <defs
     id="defs4" />
  <sodipodi:namedview
     id="base"
     pagecolor="#ffffff"
     bordercolor="#666666"
     borderopacity="1.0"
     inkscape:pageopacity="0.0"
     inkscape:pageshadow="2"
     inkscape:zoom="0.35"
     inkscape:cx="344.12348"
     inkscape:cy="371.13747"
     inkscape:document-units="px"
     inkscape:current-layer="layer1"
     showgrid="false"
     fit-margin-top="0"
     fit-margin-left="0"
     fit-margin-right="0"
     fit-margin-bottom="0"
     inkscape:window-width="1366"
     inkscape:window-height="744"
     inkscape:window-x="0"
     inkscape:window-y="24"
     inkscape:window-maximized="1" />
  <metadata
     id="metadata7">
    <rdf:RDF>
      <cc:Work
         rdf:about="">
        <dc:format>image/svg+xml</dc:format>
        <dc:type
           rdf:resource="http://purl.org/dc/dcmitype/StillImage" />
        <dc:title>Cartoon Head 74</dc:title>
        <dc:date>2017</dc:date>
        <dc:creator>
          <cc:Agent>
            <dc:title>Doodleguy</dc:title>
          </cc:Agent>
        </dc:creator>
        <dc:rights>
          <cc:Agent>
            <dc:title>Public Domain</dc:title>
          </cc:Agent>
        </dc:rights>
        <dc:publisher>
          <cc:Agent>
            <dc:title></dc:title>
          </cc:Agent>
        </dc:publisher>
        <dc:subject>
          <rdf:Bag>
            <rdf:li>cartoon</rdf:li>
            <rdf:li>head</rdf:li>
            <rdf:li>woman</rdf:li>
            <rdf:li>glasses</rdf:li>
            <rdf:li>bkack</rdf:li>
            <rdf:li>white</rdf:li>
            <rdf:li></rdf:li>
          </rdf:Bag>
        </dc:subject>
        <cc:license
           rdf:resource="http://creativecommons.org/licenses/publicdomain/" />
      </cc:Work>
      <cc:License
         rdf:about="http://creativecommons.org/licenses/publicdomain/">
        <cc:permits
           rdf:resource="http://creativecommons.org/ns#Reproduction" />
        <cc:permits
           rdf:resource="http://creativecommons.org/ns#Distribution" />
        <cc:permits
           rdf:resource="http://creativecommons.org/ns#DerivativeWorks" />
      </cc:License>
    </rdf:RDF>
  </metadata>
  <g
     inkscape:label="Layer 1"
     inkscape:groupmode="layer"
     id="layer1"
     transform="translate(-30.876525,-32.775358)">
    <path
       style="fill:#000000"
       d="m 381.61172,901.55861 c 0,-4.07438 2.66798,-8.6288 5.05477,-8.6288 4.23492,0 14.33496,-29.62846 17.29516,-50.73539 3.36315,-23.97977 3.08909,-48.14169 -0.5619,-49.54271 -1.40241,-0.53815 -4.46341,2.06502 -6.80224,5.78485 -2.33883,3.71982 -9.99694,11.85327 -17.01802,18.07434 -7.02108,6.22107 -12.76559,12.64226 -12.76559,14.26932 0,1.62707 -1.31045,2.9583 -2.91213,2.9583 -1.60165,0 -4.14197,1.4819 -5.64514,3.29311 -5.15814,6.21519 -17.17845,9.72464 -28.15767,8.22093 -17.36069,-2.37774 -31.21538,-14.20542 -44.44058,-37.93872 -3.88739,-6.97612 -12.18901,-17.91594 -18.44805,-24.31071 -6.25905,-6.39476 -12.60651,-13.52943 -14.10549,-15.8548 -6.91745,-10.73111 -13.31149,-21.71042 -16.21454,-27.84229 -4.73292,-9.99688 -15.55387,-25.46824 -24.69634,-35.30983 -4.45687,-4.79766 -8.11525,-9.51119 -8.12973,-10.4745 -0.0148,-0.96333 -3.83151,-5.63333 -8.48226,-10.37778 -4.65074,-4.74447 -8.4559,-10.3775 -8.4559,-12.51785 0,-2.94145 -1.59791,-3.89154 -6.54505,-3.89154 -9.89423,0 -29.79294,-6.36909 -35.6039,-11.39593 -34.00921,-29.4201 -47.40431,-56.12281 -43.56563,-86.8467 1.07636,-8.61482 3.01508,-13.22749 7.64088,-18.17942 3.40923,-3.64959 6.19857,-7.35213 6.19857,-8.22788 0,-0.87575 3.74706,-4.78242 8.3268,-8.68146 4.57973,-3.89904 8.72034,-8.5518 9.20137,-10.33949 1.08394,-4.02841 19.64534,-14.12735 34.76833,-18.91688 l 11.32065,-3.5853 -5.60024,-6.22889 c -3.08013,-3.42588 -11.64637,-12.88791 -19.03609,-21.02671 -7.38973,-8.1388 -15.85396,-17.46286 -18.80942,-20.72016 -2.95546,-3.2573 -5.37358,-6.72151 -5.37358,-7.69823 0,-0.97674 -2.37821,-2.37279 -5.28493,-3.10232 -2.99246,-0.75108 -5.28494,-2.8546 -5.28494,-4.84937 0,-1.93761 -1.95961,-5.60885 -4.3547,-8.1583 -3.36253,-3.57925 -4.44161,-7.76294 -4.73611,-18.36234 l -0.38142,-13.72696 12.13503,-11.94269 c 6.67427,-6.56848 12.11877,-12.63605 12.09891,-13.48353 -0.019,-0.84746 -5.23772,-3.5524 -11.59527,-6.01097 l -11.55917,-4.47013 1.2163,4.84606 c 1.81725,7.24057 -0.93343,13.60708 -5.87905,13.60708 -3.47375,0 -4.07156,-0.9686 -3.06732,-4.96978 1.7493,-6.96974 -6.845991,-23.80825 -18.59014,-36.41882 -9.575792,-10.28226 -9.680873,-10.55484 -9.71288,-25.19705 -0.0397,-18.1816 -3.218932,-14.96986 -5.255495,5.30937 -1.643692,16.36726 -6.98064,24.64013 -17.160439,26.60061 -5.183024,0.99818 -7.568618,0.22313 -11.151908,-3.6231 -10.925534,-11.72719 -13.855839,-44.39934 -6.708557,-74.79886 8.543337,-36.33738 11.479121,-46.63259 14.213813,-49.84485 1.562677,-1.83559 2.871479,-4.68946 2.908449,-6.34193 0.03698,-1.65248 1.463931,-4.85109 3.170966,-7.108 1.707053,-2.25693 3.10374,-5.79532 3.10374,-7.86311 0,-3.99995 2.912234,-9.63735 16.717586,-32.36143 4.757563,-7.83112 8.650101,-14.65695 8.650101,-15.16853 0,-0.90758 2.586725,-4.23161 7.92741,-10.18696 1.453353,-1.62062 2.642467,-3.81577 2.642467,-4.87809 0,-2.43385 28.202567,-31.12928 38.912997,-39.593006 4.41397,-3.488057 11.66476,-9.671433 16.11288,-13.740832 11.02172,-10.083281 22.84095,-17.106662 45.71941,-27.167959 24.87624,-10.939888 43.24373,-14.972544 80.61904,-17.700268 30.08025,-2.195342 30.23835,-2.183398 35.40908,2.674241 2.85665,2.68369 5.1939,7.002771 5.1939,9.597953 0,3.441278 1.00141,4.465053 3.69946,3.782095 2.0347,-0.515031 14.63927,1.086543 28.01016,3.559049 13.37089,2.472525 29.81152,5.352178 36.53476,6.39923 11.50339,1.791485 37.60371,11.562316 46.96723,17.582494 2.32537,1.495092 6.60617,3.31112 9.51288,4.03566 5.97031,1.488173 25.3677,18.516153 25.3677,22.268983 0,1.34761 0.88335,2.45019 1.96297,2.45019 1.07965,0 3.24301,1.18911 4.8075,2.64246 6.83055,6.34535 24.75166,20.61126 25.89227,20.61126 6.4473,0 58.23816,51.02192 58.23816,57.37347 0,1.24596 4.11157,9.57665 9.13683,18.51265 16.26095,28.91556 26.17065,54.1236 38.72852,98.51677 5.61501,19.84954 5.98185,23.61694 6.01049,61.72805 0.0224,29.68665 -0.67924,41.29806 -2.61197,43.23078 -1.45335,1.45335 -2.64246,5.24993 -2.64246,8.43683 0,3.1869 -0.88891,6.34373 -1.97532,7.0152 -1.08643,0.67144 -3.4276,6.19749 -5.2026,12.2801 -1.77497,6.08262 -8.94283,20.09653 -15.92857,31.14206 -6.98573,11.04551 -12.70644,21.98533 -12.71269,24.3107 -0.019,7.00783 43.8204,63.65833 54.54614,70.48629 12.57485,8.00512 25.6665,18.17445 25.6665,19.93726 0,1.03384 4.9314,6.55846 10.95866,12.2769 7.91899,7.51325 12.64846,10.39718 17.05076,10.39718 6.37195,0 14.33666,3.33939 16.72843,7.01377 1.50766,2.31616 16.26127,5.10561 36.65016,6.92942 6.97613,0.62402 15.2999,2.13831 18.49728,3.36506 6.04333,2.31867 8.05106,8.05945 2.81863,8.05945 -1.64712,0 -3.32285,0.98419 -3.72383,2.18714 -0.47871,1.43609 -5.80214,1.02474 -15.5025,-1.19789 -8.12537,-1.86175 -20.44946,-4.28782 -27.38687,-5.39127 -6.93739,-1.10345 -16.45028,-3.76522 -21.13975,-5.91504 -4.68944,-2.14983 -12.98753,-5.52118 -18.44015,-7.49189 -8.74395,-3.16024 -22.85274,-14.39724 -22.85274,-18.20113 0,-2.93111 -9.73857,-12.20678 -14.24316,-13.56616 -6.08429,-1.83604 -41.88871,-38.02202 -51.29005,-51.83659 -1.74403,-2.56274 -5.1,-6.77461 -7.45775,-9.35977 -2.35771,-2.58514 -5.5976,-8.67216 -7.19974,-13.52669 -1.60214,-4.85453 -5.14301,-10.2876 -7.86857,-12.07346 -4.81089,-3.15221 -4.9556,-3.06545 -4.9556,2.97072 0,8.34852 -1.946,12.90548 -5.51112,12.90548 -3.84218,0 -3.81308,-9.47238 0.0877,-28.53865 7.7821,-38.03757 10.77759,-45.45045 18.36612,-45.45045 4.18389,0 5.3002,4.11289 2.03687,7.5046 -1.84532,1.91793 -8.81167,35.17407 -7.63349,36.441 0.91945,0.98872 27.52832,-40.09216 31.32644,-48.36421 4.20292,-9.15389 9.94885,-30.59418 9.94885,-37.12328 0,-2.59381 0.7248,-5.16399 1.61068,-5.71149 0.88586,-0.5475 1.50572,-11.78126 1.37745,-24.96394 -0.19196,-19.72854 -1.4247,-28.45602 -6.96858,-49.33621 -9.94147,-37.44303 -15.20377,-54.71626 -17.35643,-56.97162 -1.05425,-1.10454 -1.91684,-3.39526 -1.91684,-5.0905 0,-5.99207 -24.19821,-52.2935 -34.95844,-66.89033 -11.47482,-15.5662 -30.92761,-36.06129 -41.10718,-43.30981 l -6.03311,-4.29593 3.89576,10.06203 c 2.14265,5.53413 5.97715,19.57494 8.52107,31.20179 2.54391,11.62687 6.33309,28.77682 8.42036,38.11103 2.08729,9.33419 5.35569,29.31125 7.26313,44.39346 6.38693,50.50195 6.34087,49.61892 2.58873,49.61892 -2.14587,0 -4.75036,-3.8589 -7.13389,-10.56988 -3.78019,-10.64339 -9.40435,-14.11629 -11.98206,-7.39891 -1.99244,5.19223 -18.2613,3.5517 -18.2613,-1.84146 0,-1.34535 3.80516,-4.09461 8.4559,-6.10947 4.65074,-2.01485 8.4559,-4.98803 8.4559,-6.60707 0,-11.12823 -8.18975,-45.29973 -16.15381,-67.40129 -1.57958,-4.3836 -2.87197,-9.28314 -2.87197,-10.88788 0,-3.69863 -14.26602,-33.95819 -24.49686,-51.96008 -12.13537,-21.35306 -13.5277,-24.12433 -13.54165,-26.95316 -0.0169,-3.29599 -4.70873,-3.4431 -7.90402,-0.24781 -3.40637,3.40637 -9.02079,0.64153 -9.02079,-4.44231 0,-2.36186 -0.9513,-4.29428 -2.11398,-4.29428 -1.16268,0 -2.11398,-1.90257 -2.11398,-4.22795 0,-3.60157 1.40933,-4.22795 9.51289,-4.22795 6.49828,0 10.77471,1.26184 13.49472,3.98184 2.7985,2.79851 5.78267,3.6369 10.04139,2.82117 3.68418,-0.70571 4.81651,-1.55944 2.88857,-2.17786 -1.74403,-0.55945 -3.93169,-2.30459 -4.86148,-3.87813 -0.9298,-1.57356 -3.03673,-2.86099 -4.68208,-2.86099 -1.64534,0 -3.92683,-1.74764 -5.07001,-3.883653 C 445.17583,94.396194 426.42993,84.788453 408.03636,78.281154 383.22986,69.505117 347.3568,64.529072 317.32813,65.6988 c -11.53606,0.449373 -20.27542,-0.05031 -20.27542,-1.159403 0,-2.724094 -5.71121,-4.624854 -9.51289,-3.166022 -1.74403,0.669266 -3.17097,2.541969 -3.17097,4.161615 0,1.619645 -1.75514,2.944786 -3.9003,2.944786 -7.37866,0 -14.29788,10.272666 -35.20511,52.267514 -28.32954,56.90347 -30.68584,87.0477 -11.29552,144.50406 4.54433,13.46547 7.65327,26.07004 6.90877,28.01016 -1.78758,4.65835 -11.287,4.54851 -14.87033,-0.17187 -3.99857,-5.26742 -3.60892,-11.0683 0.7567,-11.26526 2.21003,-0.0998 2.63558,-0.59616 1.05698,-1.23315 -1.45336,-0.58643 -2.64832,-3.12739 -2.65549,-5.64652 -0.007,-2.51916 -1.5629,-7.43415 -3.45721,-10.92221 -8.94419,-16.46933 -13.56064,-48.15828 -10.93271,-75.04609 2.40755,-24.63341 6.29107,-38.56099 17.35236,-62.2315 5.19522,-11.11752 8.58016,-20.21359 7.52211,-20.21359 -3.44972,0 -75.76142,75.57488 -78.97024,82.53392 -1.04969,2.27647 -2.71445,4.13903 -3.69945,4.13903 -0.98503,0 -1.79094,0.89634 -1.79094,1.99189 0,1.09552 -3.8265,8.09479 -8.50335,15.55388 -10.93063,17.43327 -15.31121,36.7042 -12.42183,54.64565 2.42231,15.04105 13.96853,41.9632 17.99698,41.9632 1.5662,0 3.44454,2.37822 4.17409,5.28493 1.25761,5.01072 2.10977,5.28877 16.42357,5.35868 70.03257,0.34208 190.97153,1.71426 192.67099,2.18606 1.16269,0.32278 7.34606,-0.11585 13.74084,-0.97453 6.48558,-0.87095 18.63766,-0.554 27.48167,0.71679 8.72014,1.253 31.55106,3.26668 50.73538,4.47486 19.18432,1.20821 36.78316,3.07992 39.10852,4.15938 2.32538,1.07947 12.05585,2.46859 21.62331,3.08695 9.56742,0.61833 19.79377,2.21704 22.72522,3.5527 6.98484,3.18252 6.97998,10.8053 -0.0127,19.11505 l -5.34208,6.34868 7.98454,8.75431 c 4.3915,4.81485 10.26453,13.69937 13.05117,19.74339 l 5.06663,10.98912 3.96302,-5.03815 c 6.70151,-8.519 10.21492,-21.98542 10.21492,-39.15067 0,-18.95644 -6.98096,-68.01078 -11.62551,-81.69093 -1.74476,-5.13914 -3.17231,-10.21919 -3.17231,-11.28905 0,-7.46631 -32.65901,-62.98756 -38.35341,-65.2019 -0.99667,-0.38758 -1.81211,-2.52798 -1.81211,-4.75645 0,-3.09268 1.50122,-4.05179 6.34192,-4.05179 3.48806,0 6.34194,0.83172 6.34194,1.84827 0,1.01654 3.39932,5.53517 7.55407,10.04137 4.15474,4.50622 9.90194,12.94956 12.77153,18.76299 2.86962,5.81343 6.07924,11.99681 7.13253,13.74083 3.90815,6.47122 12.26809,31.14644 15.75668,46.50744 1.98041,8.72014 4.59009,18.70868 5.79933,22.19673 1.20921,3.48806 2.66866,22.67141 3.24319,42.62965 l 1.0446,36.28774 -6.70453,13.19366 c -3.68749,7.25649 -8.89524,14.91687 -11.57282,17.02303 -3.42869,2.69701 -4.5775,5.35053 -3.88496,8.97338 0.73819,3.86157 -0.12219,5.49483 -3.4513,6.55144 -2.43904,0.77411 -4.43461,2.29467 -4.43461,3.37902 0,1.08432 -0.90033,1.9715 -2.00071,1.9715 -4.10937,0 -29.17458,15.94218 -43.94619,27.951 -10.71703,8.71258 -15.8366,14.45711 -17.10641,19.19455 -2.52943,9.43699 -0.99525,12.04575 7.08389,12.04575 8.09775,0 24.28096,6.45506 30.14451,12.02386 5.92724,5.62928 21.59696,13.82294 21.59696,11.29298 0,-1.1974 1.42693,-2.1771 3.17097,-2.1771 2.18189,0 3.17095,2.18914 3.17095,7.01839 0,4.87441 2.14639,9.55631 7.02624,15.32632 3.86443,4.56935 7.5544,9.75026 8.1999,11.51314 0.64552,1.76289 3.90491,4.5935 7.24309,6.29029 23.21972,11.80242 58.9709,41.32836 70.72106,58.40664 3.85097,5.59719 8.00127,9.25791 10.49602,9.25791 3.17557,0 4.12639,1.46135 4.12639,6.34192 0,5.80409 -0.61005,6.34193 -7.19335,6.34193 -6.35319,0 -8.07328,-1.32565 -14.72715,-11.35016 -4.1436,-6.24257 -12.98473,-16.33198 -19.64696,-22.42088 -14.27748,-13.04883 -42.97676,-34.59555 -44.3074,-33.26493 -0.51049,0.5105 0.27029,7.24588 1.73509,14.96753 2.07539,10.94056 3.6062,14.32027 6.93543,15.31209 7.88203,2.3481 21.77677,17.76417 23.29228,25.84252 0.78408,4.17943 3.25193,8.8782 5.48416,10.44172 2.23223,1.56351 5.48992,5.61066 7.23935,8.99367 4.50904,8.71953 10.90042,11.78619 15.63468,7.50174 2.02952,-1.83669 4.80426,-3.33945 6.16606,-3.33945 3.99228,0 2.84048,11.69871 -1.54231,15.6651 -3.3592,3.04002 -5.36195,3.27471 -12.20971,1.4308 -11.82238,-3.18342 -22.0986,-15.20411 -29.07243,-34.0077 -5.16949,-13.93851 -13.17505,-25.36769 -17.76876,-25.36769 -0.84051,0 -2.5945,6.77176 -3.89774,15.04834 -1.46179,9.28344 -4.18869,17.5089 -7.11811,21.47116 -4.1168,5.56825 -4.32925,6.7303 -1.59686,8.73386 1.73346,1.27109 4.45835,7.41498 6.05535,13.6531 1.59698,6.23811 4.12259,11.80981 5.61246,12.38154 1.48988,0.5717 2.70886,2.17352 2.70886,3.55959 0,2.95736 14.18697,8.67397 19.55427,7.87935 2.81246,-0.41639 3.69945,0.95053 3.69945,5.70092 0,6.13996 -3.00734,8.81496 -9.91006,8.81496 -4.47955,0 -19.68558,-12.38418 -19.68558,-16.03244 0,-1.64632 -1.42693,-2.99333 -3.17096,-2.99333 -1.74403,0 -3.17096,-1.42693 -3.17096,-3.17096 0,-1.74403 -0.86768,-3.17096 -1.92815,-3.17096 -1.0605,0 -2.59717,-4.04298 -3.41484,-8.98439 -1.95674,-11.82528 -2.86653,-13.02947 -7.02224,-9.2944 -4.11849,3.70162 -69.68734,37.30455 -72.79175,37.30455 -4.79134,0 -20.79559,12.02594 -23.20972,17.4403 -1.42562,3.19738 -3.72267,5.81342 -5.10452,5.81342 -1.38186,0 -3.14897,2.00548 -3.92692,4.45656 -3.03183,9.55246 4.62324,47.96056 10.78757,54.12489 1.66421,1.66419 3.02582,4.47577 3.02582,6.24794 0,7.54593 24.21181,34.85085 36.46606,41.12464 9.43469,4.83024 11.1343,12.42854 2.78009,12.42854 -9.36688,0 -16.4256,-4.19606 -28.98037,-17.22743 -20.01342,-20.77316 -41.03823,-69.16482 -36.4071,-83.79623 0.70279,-2.22036 -0.96825,-1.32669 -4.32553,2.31324 -3.00889,3.26222 -5.47071,7.15776 -5.47071,8.65676 0,1.49898 -1.90258,4.44724 -4.22795,6.55168 -2.32538,2.10444 -4.22795,4.74045 -4.22795,5.85784 0,1.11738 -3.45476,6.73793 -7.67724,12.4901 -6.75934,9.20807 -7.39121,11.08621 -5.28493,15.70901 1.31576,2.88777 2.3923,7.52782 2.3923,10.31123 0,2.78338 0.83053,5.574 1.84565,6.20136 6.07379,3.7538 -0.45778,64.80825 -7.95244,74.33616 -2.4547,3.12064 -4.46308,7.44818 -4.46308,9.61676 0,2.16858 -0.92686,3.94286 -2.05969,3.94286 -1.13284,0 -3.53547,2.85386 -5.33922,6.34192 -2.30337,4.45423 -4.83647,6.34192 -8.51019,6.34192 -2.87686,0 -5.23065,-0.87349 -5.23065,-1.94106 z m -35.8181,-69.4195 c 15.91719,-10.85476 42.40047,-41.41901 63.70551,-73.52232 25.45658,-38.35908 47.64926,-62.06834 70.51453,-75.33338 7.67254,-4.45113 14.8771,-8.09297 16.01008,-8.09297 2.87699,0 39.18232,-19.29613 49.41228,-26.26243 30.51977,-20.78302 31.14448,-70.4663 1.39752,-111.14591 -7.02031,-9.60041 -16.73129,-18.87094 -22.32169,-21.30931 -5.49983,-2.39883 -12.53137,-6.75594 -13.97746,-8.66109 -0.5977,-0.78748 -4.8785,-1.73877 -9.51288,-2.11398 -7.43349,-0.60185 -8.50763,-0.10718 -9.11799,4.19888 -0.55367,3.90621 -1.8127,4.75063 -6.30369,4.22795 -4.92921,-0.57371 -5.92156,-2.05409 -8.15829,-12.17083 -1.75456,-7.9358 -1.93547,-14.83872 -0.58175,-22.19673 1.71432,-9.31794 3.69913,-12.32901 15.57222,-23.62424 13.09119,-12.45403 39.78494,-32.50526 43.27348,-32.50526 3.80746,0 8.8058,-8.31755 9.05988,-15.07614 0.37126,-9.87522 -5.0765,-20.48259 -16.05115,-31.25339 -7.48916,-7.35006 -9.94873,-8.65662 -13.15243,-6.98679 -2.16736,1.12966 -10.48716,3.67527 -18.48847,5.65691 -12.34041,3.05628 -16.67071,3.22934 -28.53865,1.14063 -7.69496,-1.35427 -21.83549,-2.84487 -31.42339,-3.31242 -9.58791,-0.46756 -24.33288,-2.30724 -32.7666,-4.08819 -8.43374,-1.78097 -20.56613,-4.33298 -26.96091,-5.67117 -6.39477,-1.33816 -17.33459,-5.04211 -24.31071,-8.23093 -6.97611,-3.18882 -14.3486,-6.32685 -16.38329,-6.97339 -2.04782,-0.6507 -3.69946,-3.25437 -3.69946,-5.83184 0,-5.90072 -5.81035,-12.45947 -9.71152,-10.96244 -1.63478,0.62732 -2.97232,2.83962 -2.97232,4.9162 0,2.07658 -1.63811,4.40421 -3.6402,5.17249 -2.92385,1.12198 -3.07498,1.74621 -0.76796,3.17204 2.38703,1.47526 2.08475,6.16283 -1.78914,27.74528 -2.56378,14.28356 -6.02337,27.91455 -7.68797,30.29111 -1.66459,2.37654 -3.02653,6.41045 -3.02653,8.96424 0,2.55378 -1.57633,7.38984 -3.50297,10.74678 -5.32433,9.27714 -2.62249,16.6317 6.66363,18.13863 9.56299,1.55184 20.09306,9.04385 20.09306,14.29594 0,2.2462 -1.10551,4.08401 -2.45667,4.08401 -4.80703,0 -25.02501,-7.14351 -25.02501,-8.84196 0,-0.95035 -1.28137,-1.72792 -2.8475,-1.72792 -4.6683,0 -11.95032,-7.56045 -11.95032,-12.40727 0,-2.48185 2.8944,-12.83445 6.43201,-23.00577 5.66912,-16.29993 14.70775,-51.68524 14.70775,-57.57944 0,-3.14088 -7.68913,-2.60114 -11.06713,0.77686 -4.43163,4.43163 -16.59273,6.56087 -18.63148,3.26209 -1.2138,-1.96394 -2.47732,-2.10338 -4.49236,-0.49572 -2.98764,2.38359 -27.88397,9.58147 -44.60925,12.89715 -6.50724,1.29001 -16.98819,1.23198 -29.48512,-0.1632 -12.96706,-1.44774 -19.62357,-1.46137 -20.09697,-0.0413 -0.43091,1.29272 -6.88427,1.7272 -16.4938,1.11051 -13.86486,-0.88977 -15.78596,-0.57424 -15.78596,2.59283 0,1.98324 -5.23208,9.09119 -11.62685,15.79545 -9.03834,9.47576 -11.62687,13.66786 -11.62687,18.82972 0,7.90364 11.92584,25.41828 17.44029,25.61331 2.11402,0.0748 3.69946,1.77242 3.69946,3.96125 0,2.10673 2.85386,5.94035 6.34193,8.5192 3.48806,2.57883 6.34192,5.69151 6.34192,6.91709 0,1.22556 4.63132,7.14263 10.29182,13.14905 22.98467,24.3893 31.98767,36.92576 31.98767,44.54218 0,4.04099 -1.0923,5.48709 -4.1446,5.48709 -2.27954,0 -5.30073,-1.23762 -6.71375,-2.75026 -2.59737,-2.78051 -13.69363,-2.36769 -17.68031,0.65776 -1.16269,0.88236 -5.20566,2.26536 -8.98439,3.07334 -3.77873,0.80798 -6.87042,2.28066 -6.87042,3.27262 0,0.99195 -1.87212,2.39774 -4.16024,3.12396 -2.28814,0.72623 -11.5632,8.63845 -20.61124,17.58274 l -16.45102,16.26234 0.12599,12.68385 c 0.1408,14.18403 7.9066,40.30337 13.61552,45.79441 2.00993,1.93321 5.7358,6.88271 8.27972,10.99889 2.54393,4.11615 7.19146,8.85233 10.32784,10.52484 3.13638,1.67249 11.22931,5.99806 17.98426,9.61237 15.38128,8.22991 20.27935,8.56355 18.88828,1.28654 -0.927,-4.84928 -0.38005,-5.28493 6.63507,-5.28493 5.38656,0 7.64536,0.93685 7.64536,3.17095 0,1.74404 0.95128,3.17097 2.11396,3.17097 1.1627,0 2.11398,2.82159 2.11398,6.2702 0,8.15975 6.10715,20.85203 10.74103,22.32278 2.00007,0.63479 4.22481,3.49829 4.9439,6.36335 0.71907,2.86506 2.59247,5.20919 4.16311,5.20919 1.57065,0 7.73906,7.37248 13.70758,16.3833 5.96851,9.01082 11.56218,17.33459 12.43035,18.49727 0.86814,1.16269 3.75987,6.39478 6.42603,11.62686 9.62415,18.88638 15.37472,26.98902 26.50986,37.35273 6.65515,6.19405 13.59665,15.33705 16.82472,22.1606 8.52394,18.01814 29.74289,37.72316 40.60477,37.70765 2.32537,-0.004 6.65993,-1.66449 9.63235,-3.69154 z M 312.37906,741.487 c -4.66347,-1.96897 -2.94382,-9.20932 2.69665,-11.35381 2.93649,-1.11648 5.89213,-3.47115 6.56807,-5.23262 0.67594,-1.76149 2.24143,-3.20269 3.47884,-3.20269 1.23742,0 4.00533,-1.5887 6.1509,-3.53043 3.53768,-3.20152 5.10747,-3.25076 16.85101,-0.52849 14.97556,3.47151 20.18945,8.74966 13.52888,13.69562 -5.91549,4.39269 -12.30635,3.75367 -17.09493,-1.7093 l -4.16926,-4.75645 -0.65859,7.96891 c -0.63776,7.71719 -0.90487,7.95985 -8.4559,7.68218 -4.28851,-0.1577 -9.69989,0.24643 -12.02525,0.89802 -2.32538,0.65161 -5.41706,0.68268 -6.87042,0.0691 z m 7.43279,-83.27692 c -5.5041,-0.92687 -12.17038,-3.43102 -14.81392,-5.56478 -15.48013,-12.49488 -20.02682,-16.83767 -39.22012,-37.46129 -4.99302,-5.36511 -10.87063,-9.75473 -13.06134,-9.75473 -4.65041,0 -10.62706,-5.36754 -10.62706,-9.544 0,-1.59505 -1.9134,-4.24029 -4.25198,-5.87831 -4.64035,-3.25021 -15.88084,-2.98867 -41.65422,0.96924 -11.83183,1.81696 -16.69256,1.74638 -21.66824,-0.31462 -12.06255,-4.99646 -7.53875,-7.52089 18.42453,-10.28145 38.87102,-4.13298 40.38036,-4.45594 41.80524,-8.94536 1.53219,-4.82746 6.39288,-5.35859 8.10915,-0.88608 2.73993,7.1402 5.11218,2.24604 6.47303,-13.35444 1.7666,-20.25202 9.04582,-37.4999 17.12219,-40.57053 11.89857,-4.52382 20.93417,-2.63962 31.363,6.54022 5.39576,4.74954 9.8105,9.95863 9.8105,11.57576 0,1.61711 1.76672,5.84536 3.92606,9.39607 l 3.92605,6.45586 1.28343,-10.83674 c 0.70591,-5.96022 3.02912,-13.83664 5.16272,-17.50313 3.20938,-5.51528 5.37562,-6.77684 12.54495,-7.30596 8.44155,-0.62303 9.05398,-0.19893 23.67785,16.3967 8.25668,9.36996 15.01215,17.75597 15.01215,18.63557 0,1.58843 2.04908,2.8999 13.90452,8.89925 3.39803,1.71955 6.93897,4.33558 7.86876,5.81342 0.92979,1.47784 3.67879,2.68699 6.10888,2.68699 2.43008,0 5.63854,1.66476 7.12989,3.69945 2.3427,3.19623 6.46933,3.69946 30.3371,3.69946 15.19404,0 26.68328,-0.31709 25.53164,-0.70465 -1.15162,-0.38758 -2.09386,-2.52798 -2.09386,-4.75644 0,-5.54257 11.19155,-5.45169 21.69187,0.1761 4.33866,2.32536 10.77562,4.22794 14.30438,4.22794 3.75294,0 6.92098,1.31614 7.63274,3.17097 0.66926,1.74402 2.54197,3.17095 4.16161,3.17095 1.76442,0 2.94479,2.21023 2.94479,5.51411 0,4.98525 -0.55757,5.36409 -5.81344,3.95001 -11.21534,-3.01746 -20.9679,-3.61676 -63.41278,-3.89679 -32.92388,-0.21721 -42.80303,0.32595 -42.80799,2.35361 -0.009,3.20333 -16.19844,34.08919 -20.31461,38.75296 -1.62005,1.83558 -2.94555,4.10115 -2.94555,5.0346 0,2.29844 -18.15287,20.32746 -25.08022,24.90915 -5.8994,3.9018 -15.67674,4.36246 -32.4917,1.53085 z m 34.11786,-17.37173 c 4.99947,-4.94141 10.79816,-12.3139 12.88599,-16.38329 2.08784,-4.06941 8.20272,-14.53359 13.58867,-23.25372 l 9.79258,-15.85481 -9.03825,-1.56363 c -4.97106,-0.85998 -10.94572,-0.88795 -13.27703,-0.0622 -2.33129,0.82581 -16.12983,1.60261 -30.66342,1.72619 -70.17209,0.59673 -73.9891,0.80798 -73.9891,4.09485 0,3.85434 29.10546,35.49611 42.11877,45.78909 1.99221,1.57574 5.77613,4.7486 8.40873,7.05079 2.74392,2.39953 9.4479,4.75335 15.70956,5.51577 6.00766,0.7315 11.92437,1.46393 13.14829,1.62764 1.2239,0.16362 6.31575,-3.74533 11.31521,-8.68674 z m -44.88289,-70.81814 c -12.292,-27.48778 -24.73673,-44.92196 -32.06588,-44.92196 -7.15532,0 -13.40214,14.25161 -15.11175,34.4761 l -1.3744,16.25929 25.57583,0 25.57584,0 -2.59964,-5.81343 z m 61.99503,3.62735 c 8.72014,-0.12388 14.37041,-0.87166 12.55619,-1.66197 -1.81426,-0.79028 -4.66812,-2.63179 -6.34194,-4.09225 -13.74952,-11.9968 -19.79713,-18.10758 -29.277,-29.58274 -6.00323,-7.26679 -11.59377,-13.20632 -12.4234,-13.19898 -4.42949,0.0393 -9.3277,14.91975 -10.41177,31.63049 l -1.16994,18.03454 15.60653,-0.45203 c 8.58358,-0.2486 22.74118,-0.55328 31.46133,-0.67706 z M 198.75293,362.17484 c 27.43933,-1.71524 37.67022,-3.36807 47.18389,-7.62262 3.86011,-1.72626 8.26281,-2.66113 9.78379,-2.07748 1.52096,0.58367 3.69517,0.13149 4.83158,-1.00498 1.13638,-1.13639 7.79722,-2.87626 14.80187,-3.86636 7.00463,-0.9901 14.51455,-3.29742 16.68869,-5.1274 2.17416,-1.82997 5.85408,-4.69444 8.17763,-6.36548 2.32354,-1.67104 3.7139,-3.54897 3.0897,-4.17319 -0.62421,-0.62422 -35.34474,-1.27771 -77.15674,-1.45224 -68.11987,-0.2843 -78.17247,0.11691 -96.71245,3.86012 -11.37984,2.29757 -21.19304,4.67981 -21.80709,5.29385 -2.04818,2.04818 14.16577,12.83037 25.23173,16.77896 16.02376,5.71764 35.82652,9.9843 39.46272,8.50258 1.74403,-0.71068 13.63514,-1.94628 26.42468,-2.74576 z m 307.44539,-1.77586 c 19.63311,-7.37531 22.78285,-12.65513 9.86826,-16.54195 -4.77035,-1.4357 -11.70892,-2.62481 -15.41903,-2.64246 -3.71011,-0.0169 -7.36016,-1.02638 -8.11122,-2.2416 -0.75105,-1.21521 -5.80146,-2.1074 -11.22313,-1.98261 -23.50598,0.54105 -40.07142,-0.23499 -53.04127,-2.48481 -16.25384,-2.81949 -82.59594,-3.66491 -82.59704,-1.05257 -4e-4,0.98087 1.90184,2.28092 4.22722,2.88903 2.32536,0.6081 4.22794,2.30619 4.22794,3.77357 0,1.46737 2.82233,3.83699 6.27183,5.26583 3.44952,1.42883 7.37115,3.92245 8.71475,5.5414 1.3436,1.61892 5.14345,2.94352 8.44412,2.94352 3.30068,0 14.36184,2.04157 24.58035,4.53682 19.57944,4.78106 43.32762,7.33733 71.42851,7.68857 13.69631,0.17122 19.90011,-0.91119 32.62871,-5.69274 z m -397.9244,-36.1283 c 9.1759,0 30.23074,-4.53333 30.23074,-6.50901 0,-0.93355 -0.95378,-2.28684 -2.11953,-3.00732 -2.37757,-1.4694 -7.99683,-13.26478 -14.60108,-30.64918 -8.20482,-21.59753 -3.75181,-57.69406 9.53223,-77.26919 2.79093,-4.11265 5.0744,-8.01188 5.0744,-8.66493 0,-0.65307 2.85387,-4.7907 6.34193,-9.19473 3.48805,-4.40402 6.34193,-8.86787 6.34193,-9.91964 0,-1.05178 13.79367,-16.10571 30.65262,-33.45317 16.85894,-17.34749 30.67343,-32.04631 30.69886,-32.66408 0.0254,-0.61774 4.39013,-4.92833 9.69934,-9.57907 5.30921,-4.650753 18.47664,-17.225347 29.26098,-27.943532 18.93739,-18.821218 19.47157,-19.611028 15.6205,-23.096186 -3.76091,-3.403588 -4.66667,-3.39445 -15.94466,0.160658 -6.57649,2.073056 -13.28191,5.093855 -14.90094,6.712887 -1.61902,1.619052 -4.25036,2.943706 -5.84738,2.943706 -1.59702,0 -9.53795,3.329511 -17.6465,7.39891 -8.10858,4.069409 -16.2755,7.398911 -18.14873,7.398911 -1.87324,0 -9.79844,5.324024 -17.61156,11.831158 -7.81312,6.507153 -15.63261,13.011658 -17.37664,14.454448 -4.65681,3.85253 -12.68385,13.6637 -12.68385,15.50306 0,0.87506 -2.17662,3.95952 -4.83694,6.85435 -2.66033,2.89484 -6.07693,8.28668 -7.59246,11.98185 -1.51554,3.69518 -4.09534,7.23266 -5.73293,7.86106 -1.63757,0.6284 -2.97741,2.59932 -2.97741,4.37986 0,1.78052 -0.71852,3.2373 -1.59671,3.2373 -2.12523,0 -6.18278,12.09804 -10.98955,32.7666 -14.327401,61.60612 -15.647092,81.62389 -6.66516,101.10093 5.5716,12.08179 5.3072,21.50958 -0.6032,21.50958 -5.523447,0 -11.731745,-9.00751 -13.147389,-19.07533 -2.879915,-20.48135 -6.090537,-15.74081 -8.370563,12.35924 -1.41938,17.4931 -1.318144,18.05347 4.601995,25.47297 l 6.053324,7.58638 4.506217,-5.24422 c 2.914686,-3.39203 6.721396,-5.24423 10.778116,-5.24423 z M 55.818904,312.12004 c -0.09517,-3.19999 -0.317627,-11.14523 -0.494546,-17.6561 -0.362061,-13.32352 3.665356,-23.04262 9.548418,-23.04262 4.58003,0 4.980949,3.77998 1.015152,9.571 -4.148146,6.05732 -5.725255,14.29894 -3.430748,17.92824 1.254032,1.98354 2.005636,2.20037 2.026014,0.58449 0.01693,-1.41291 2.706899,-5.69372 5.975783,-9.51288 3.268884,-3.81919 7.11221,-10.98696 8.540748,-15.92838 1.428548,-4.94141 3.863402,-8.98439 5.410781,-8.98439 2.03377,0 3.218612,-5.41884 4.275522,-19.55426 0.804154,-10.75485 2.756131,-24.31071 4.337726,-30.12413 1.581586,-5.81344 3.909734,-17.53976 5.173615,-26.0585 1.26388,-8.51876 4.191031,-19.6442 6.504791,-24.72323 2.31378,-5.07901 4.20686,-10.19621 4.20686,-11.37152 0,-3.36809 12.11424,-23.04361 22.49066,-36.52857 5.20633,-6.766 8.4459,-12.30185 7.19901,-12.30185 -3.73569,0 -42.37351,40.18093 -42.37351,44.06582 0,0.98249 -1.90258,3.50814 -4.227955,5.61258 -2.325375,2.10445 -4.227944,4.69651 -4.227944,5.76018 0,1.06367 -2.663253,5.9105 -5.918329,10.77072 -3.255056,4.86024 -8.879161,15.49582 -12.497962,23.63461 -3.61881,8.13881 -8.565894,19.26425 -10.993469,24.72323 -2.427605,5.45896 -4.413836,11.40452 -4.413836,13.21234 0,1.80781 -0.951285,3.28694 -2.113968,3.28694 -1.162692,0 -2.113977,2.84325 -2.113977,6.31833 0,3.4751 -2.00838,13.63894 -4.463068,22.58633 -3.556382,12.96311 -4.255874,20.16138 -3.443175,35.43267 0.560924,10.54057 2.307235,21.68117 3.880685,24.75691 l 2.860842,5.59226 3.719385,-6.11604 c 2.045652,-3.36383 3.641582,-8.73419 3.546495,-11.93418 z M 514.07818,277.23476 c -0.58644,-1.45337 -1.06627,-0.26425 -1.06627,2.64246 0,2.90672 0.47983,4.09582 1.06627,2.64247 0.58643,-1.45335 0.58643,-3.83158 0,-5.28493 z m -2.06994,-16.77968 c -0.67482,-1.68638 -1.17575,-1.18547 -1.27718,1.2772 -0.0918,2.22846 0.40784,3.47705 1.1103,2.7746 0.70245,-0.70248 0.77754,-2.52579 0.16679,-4.0518 z m -2.11398,-19.02577 c -0.67482,-1.68638 -1.17575,-1.18548 -1.27717,1.2772 -0.0918,2.22847 0.40785,3.47704 1.1103,2.77459 0.70245,-0.70247 0.77753,-2.52577 0.16678,-4.05179 z m -2.11398,-14.79782 c -0.67482,-1.68638 -1.17574,-1.18548 -1.27717,1.2772 -0.0918,2.22847 0.40785,3.47704 1.1103,2.77459 0.70246,-0.70247 0.77755,-2.52578 0.1668,-4.05179 z m -3.31363,-12.49503 c -1.29711,-3.72091 -2.35839,-8.61605 -2.35839,-10.87811 0,-7.36193 -8.80121,-33.30736 -11.30426,-33.32429 -2.56578,-0.0169 -7.7215,-9.46267 -7.7215,-14.14578 0,-1.51224 1.51732,-2.74952 3.37182,-2.74952 2.7486,0 2.30362,-1.85606 -2.40737,-10.04138 -7.98594,-13.8756 -11.02568,-16.99264 -18.08287,-18.54266 -3.36057,-0.7381 -7.03815,-2.93243 -8.17239,-4.87627 -1.13428,-1.94384 -2.09124,-2.49309 -2.12658,-1.22059 -0.0353,1.27251 2.31967,5.07766 5.2334,8.4559 2.91372,3.37824 5.89579,8.04481 6.62684,10.37019 0.73103,2.32537 1.93543,4.70359 2.67644,5.28493 3.4364,2.696 23.58407,47.14643 27.7873,61.30526 5.22533,17.60169 6.16112,19.80247 7.74624,18.21735 0.59934,-0.59935 0.0285,-4.13411 -1.26868,-7.85503 z M 306.69742,53.468718 c 0.79104,-1.279947 -0.48969,-4.255173 -2.84611,-6.611611 -3.82053,-3.820516 -5.6194,-4.08352 -16.61451,-2.42923 -9.76313,1.468943 -12.49617,2.72136 -13.12776,6.015828 -0.67975,3.545581 -0.31236,3.757884 2.48514,1.436148 3.62518,-3.008605 22.57253,-1.294466 22.57253,2.04212 0,2.67281 5.815,2.322816 7.53071,-0.453255 z M 455.28025,293.08956 c -3.36326,-4.0268 -8.13532,-14.31539 -8.13532,-17.53975 0,-4.23497 5.74906,-1.74097 10.35847,4.49359 2.6464,3.57946 5.21103,6.10873 5.69915,5.62059 1.24617,-1.24614 -4.24416,-27.07248 -9.7688,-45.95229 -2.55169,-8.72013 -5.1105,-19.42214 -5.68619,-23.78221 -0.5757,-4.36006 -1.89808,-7.9274 -2.93866,-7.9274 -1.04056,0 -1.89192,-2.00956 -1.89192,-4.46569 0,-5.34138 -16.40277,-38.68662 -26.57621,-54.02687 -3.98607,-6.01044 -7.24738,-11.84996 -7.24738,-12.97667 0,-2.97817 -15.31484,-20.10575 -30.12414,-33.68984 -5.49065,-5.036373 -4.77383,-11.109524 1.31123,-11.109524 6.15283,0 25.81749,19.142164 37.28665,36.295884 18.71935,27.99744 41.17244,80.99963 45.96819,108.51137 0.60801,3.48806 1.94074,6.88323 2.96161,7.54479 1.02087,0.66159 2.07856,6.59911 2.35044,13.19448 0.27186,6.59537 1.08328,11.99961 1.80318,12.00945 2.0499,0.0281 3.57889,13.03263 2.42543,20.62913 -0.92908,6.11864 -1.79073,6.87042 -7.87456,6.87042 -3.91965,0 -8.14832,-1.57682 -9.92117,-3.69946 z m -50.9433,-6.21367 c -4.4784,-1.17032 -5.29119,-13.34059 -0.89096,-13.34059 2.32491,0 2.34577,-2.82097 0.12113,-16.38331 -2.6083,-15.90192 -4.591,-23.8047 -16.57405,-66.06169 -6.35947,-22.426 -6.25634,-22.1485 -16.69727,-44.93371 -9.84494,-21.48492 -17.14855,-31.06936 -22.591,-29.64613 -7.37671,1.92904 -4.59925,-4.78369 3.25429,-7.86517 4.06941,-1.5967 7.39891,-4.15247 7.39891,-5.6795 0,-1.82982 2.88296,-2.7764 8.4559,-2.7764 11.66326,0 11.42504,5.32677 -0.32221,7.20523 l -8.77811,1.40368 5.60715,5.8526 c 3.08393,3.21893 5.60714,7.35435 5.60714,9.18983 0,1.83546 1.90258,3.83475 4.22795,4.44286 2.52959,0.6615 4.22795,2.88348 4.22795,5.53148 0,2.43422 0.95129,4.42587 2.11398,4.42587 1.16268,0 2.11397,1.78165 2.11397,3.95921 0,2.17759 2.05246,8.59878 4.561,14.26934 6.68701,15.11588 22.13731,67.80782 27.36001,93.30898 3.92941,19.18639 4.17183,23.2229 1.82212,30.34254 -2.66673,8.0803 -3.64681,8.68116 -11.0179,6.75488 z m -79.41033,-43.73028 c -7.19183,-20.20239 -13.07605,-37.74728 -13.07605,-38.98865 0,-1.24139 -1.67634,-3.50011 -3.72523,-5.0194 -2.67784,-1.98568 -3.85813,-6.1535 -4.19793,-14.82372 -0.26,-6.63378 -1.39368,-16.17092 -2.5193,-21.19369 -3.15586,-14.08205 -4.8197,-51.9776 -2.90224,-66.101724 1.51547,-11.163136 2.32598,-12.769284 6.76024,-13.396567 l 5.03829,-0.712727 -1.4713,22.909458 c -1.06103,16.52107 -0.54207,29.39384 1.86108,46.16318 3.0485,21.27267 14.23744,62.2182 21.46123,78.53653 1.62189,3.66378 2.94888,7.67447 2.94888,8.91267 0,1.2382 1.31279,5.37522 2.91734,9.1934 7.72637,18.38566 8.76109,31.25285 2.51324,31.25285 -1.39272,0 -8.41643,-16.52923 -15.60825,-36.73161 z m 38.18782,27.22754 c -3.57067,-4.05558 -3.33152,-7.40773 0.5285,-7.40773 1.76164,0 3.17096,-1.87908 3.17096,-4.22794 0,-2.49342 1.40932,-4.22796 3.43521,-4.22796 2.71999,0 3.16012,1.37545 2.11397,6.60618 -0.72667,3.63339 -1.32123,7.91419 -1.32123,9.51288 0,3.74943 -4.52989,3.60349 -7.92741,-0.25543 z m -88.27183,-7.93622 c -4.71871,-9.27853 -11.15007,-86.14445 -7.2077,-86.14445 0.84362,0 1.03426,-3.72466 0.42368,-8.277 -1.76743,-13.17718 3.57116,-71.00229 7.61538,-82.486264 5.18436,-14.721506 7.7058,-17.04944 18.46665,-17.04944 6.90079,0 9.25405,0.823228 9.25405,3.237296 0,1.780546 -1.66476,3.751742 -3.69946,4.380495 -11.34041,3.5043 -14.10617,10.575346 -18.51852,47.345543 -5.97473,49.78993 -3.43718,124.13504 4.50818,132.08039 1.60159,1.60158 2.91198,5.35816 2.91198,8.34791 0,8.47676 -9.20184,7.51706 -13.75424,-1.43448 z m 90.43022,-13.15598 c -1.42891,-1.62457 -4.4219,-8.48522 -6.65109,-15.2459 -8.55699,-25.9517 -15.08,-48.37365 -15.07096,-51.80438 0.004,-1.96608 -0.94189,-4.16263 -2.10457,-4.88121 -1.16269,-0.71858 -2.11398,-4.10424 -2.11398,-7.52367 0,-3.41944 -0.83789,-6.21717 -1.86201,-6.21717 -1.02409,0 -4.40244,-11.17764 -7.50739,-24.8392 -3.10497,-13.66155 -7.02352,-29.67924 -8.70787,-35.59486 -3.99228,-14.02123 -3.87542,-15.669009 1.11119,-15.669009 4.82858,0 10.62416,9.760556 10.62416,17.892479 0,2.98025 0.83225,7.07045 1.84945,9.08937 2.73447,5.42739 8.75866,32.36942 8.73818,39.07985 -0.0106,3.19738 0.93353,5.81343 2.09621,5.81343 1.1627,0 2.11398,1.46585 2.11398,3.25742 0,1.79159 1.97707,9.63973 4.39347,17.44029 2.41642,7.80058 7.26173,23.69575 10.76741,35.32262 3.50564,11.62685 7.23632,23.32489 8.29037,25.99564 3.93302,9.96553 0.20125,14.89669 -5.96655,7.8843 z M 514.7921,184.74837 c 0,-1.16269 -1.42693,-2.11397 -3.17095,-2.11397 -1.74404,0 -3.17097,-1.42693 -3.17097,-3.17097 0,-4.02046 5.70526,-4.10961 9.66389,-0.15093 3.92844,3.92843 3.856,7.54991 -0.15093,7.54991 -1.74404,0 -3.17097,-0.95129 -3.17097,-2.11398 z"
       id="path3030"
       inkscape:connector-curvature="0" />
  </g>
</svg>
