<?xml version="1.0" encoding="UTF-8" standalone="no"?>
<!-- Created with Inkscape (http://www.inkscape.org/) -->

<svg
   xmlns:dc="http://purl.org/dc/elements/1.1/"
   xmlns:cc="http://creativecommons.org/ns#"
   xmlns:rdf="http://www.w3.org/1999/02/22-rdf-syntax-ns#"
   xmlns:svg="http://www.w3.org/2000/svg"
   xmlns="http://www.w3.org/2000/svg"
   xmlns:sodipodi="http://sodipodi.sourceforge.net/DTD/sodipodi-0.dtd"
   xmlns:inkscape="http://www.inkscape.org/namespaces/inkscape"
   width="210mm"
   height="297mm"
   viewBox="0 0 744.09448819 1052.3622047"
   id="svg2"
   version="1.1"
   inkscape:version="0.91 r13725"
   sodipodi:docname="gravure-gorillaz-singer-smockin-music-8.svg">
  <title
     id="title4149">Gorillaz Singer Smocking</title>
  <defs
     id="defs4" />
  <sodipodi:namedview
     id="base"
     pagecolor="#ffffff"
     bordercolor="#666666"
     borderopacity="1.0"
     inkscape:pageopacity="0.0"
     inkscape:pageshadow="2"
     inkscape:zoom="0.35"
     inkscape:cx="-146.42857"
     inkscape:cy="402.85714"
     inkscape:document-units="px"
     inkscape:current-layer="layer1"
     showgrid="false"
     inkscape:window-width="1538"
     inkscape:window-height="877"
     inkscape:window-x="-8"
     inkscape:window-y="-8"
     inkscape:window-maximized="1" />
  <metadata
     id="metadata7">
    <rdf:RDF>
      <cc:Work
         rdf:about="">
        <dc:format>image/svg+xml</dc:format>
        <dc:type
           rdf:resource="http://purl.org/dc/dcmitype/StillImage" />
        <dc:title>Gorillaz Singer Smocking</dc:title>
      </cc:Work>
    </rdf:RDF>
  </metadata>
  <g
     inkscape:label="Calque 1"
     inkscape:groupmode="layer"
     id="layer1">
    <path
       style="fill:#000000"
       d="m 164.60713,1025.6513 c -0.30678,-0.5481 -1.32551,-2.3152 -2.26385,-3.927 -1.47284,-2.53 -2.44051,-4.9977 -7.07904,-18.0525 -2.95515,-8.31707 -10.46586,-29.04811 -16.69047,-46.0691 l -11.31747,-30.9471 -6.73826,-32.35384 -6.73825,-32.35384 -1.95964,-33.23829 c -1.92282,-32.61382 -1.96639,-33.6693 -2.31894,-56.17674 l -0.35931,-22.93843 1.86949,-21.32891 1.86948,-21.32892 4.35821,-22.13267 4.35821,-22.13265 11.16436,-26.61199 11.16434,-26.612 13.43197,-27.54764 13.43195,-27.54766 0.6523,-6.75148 0.6523,-6.75144 -3.17872,-5.90875 -3.17871,-5.90872 0.19933,-3.0461 c 0.10957,-1.67534 0.33837,-3.17672 0.50831,-3.33638 0.22294,-0.20945 15.88024,-9.03234 18.01058,-10.14898 0.126,-0.0661 -1.32475,-6.6975 -3.2239,-14.73661 -1.89915,-8.03908 -3.38913,-14.66632 -3.31108,-14.72718 0.078,-0.0608 5.24234,1.0643 11.47621,2.50034 6.23387,1.43604 11.38806,2.56906 11.45379,2.51783 0.0657,-0.0512 3.10086,-10.47568 6.74476,-23.16539 5.76049,-20.06064 6.85275,-24.1892 8.36795,-31.62958 l 1.74265,-8.55736 -0.8349,-13.08698 c -0.45919,-7.19782 -0.87682,-13.18265 -0.92808,-13.29959 -0.0513,-0.11694 -5.09935,13.02434 -11.21803,29.20288 -6.11868,16.17852 -11.26017,29.38193 -11.42554,29.34092 -0.63116,-0.15656 -3.80916,-4.14096 -5.81975,-7.29647 -7.10092,-11.14454 -16.40899,-32.14866 -25.01235,-56.44169 l -1.30385,-3.68161 -3.51223,2.65942 c -10.15485,7.68909 -23.12981,13.9086 -39.54995,18.9581 -4.7717,1.46739 -11.86209,3.27803 -12.10251,3.09055 -0.0888,-0.0693 1.88134,-13.91738 4.37823,-30.77355 2.4969,-16.85614 4.49469,-30.68402 4.43954,-30.72862 -0.0552,-0.0446 -2.18321,1.37969 -4.72904,3.16506 -4.51665,3.16749 -5.51436,3.70753 -41.187651,22.29467 -20.10737,10.47672 -36.779906,19.11472 -37.050046,19.19556 -0.280155,0.0838 -0.646461,-0.009 -0.852577,-0.21602 -0.198769,-0.19963 -0.948249,-0.94668 -1.665509,-1.66011 l -1.304104,-1.29715 12.536456,-33.00898 12.536468,-33.009 16.054885,-25.20318 16.054896,-25.20317 11.570543,-11.52483 11.570539,-11.52486 -0.48863,-1.02803 -0.48864,-1.02801 -6.19724,0.53337 c -23.028001,1.98198 -83.569045,7.1261 -85.400981,7.25648 l -2.231696,0.15879 1.598973,-2.32328 c 13.011445,-18.90538 34.009331,-38.35025 56.083359,-51.93537 14.252332,-8.77136 30.708075,-16.26877 45.512305,-20.73585 l 2.21551,-0.66851 -1.01282,-0.3449 c -4.23149,-1.44091 -13.12099,-4.96071 -16.34711,-6.47265 -16.275486,-7.62755 -33.388211,-18.42284 -52.573697,-33.16525 -9.587187,-7.36695 -14.222232,-11.27804 -13.657604,-11.52442 0.779973,-0.34036 9.735871,-1.99755 16.824271,-3.11314 36.272137,-5.70862 73.9759,-6.78089 103.528,-2.94425 7.27968,0.9451 20.17311,3.17577 22.66387,3.92106 0.30664,0.0918 0.38735,0.0213 0.26359,-0.23017 -0.0981,-0.19932 -0.27122,-0.84533 -0.38473,-1.43557 l -0.20639,-1.07315 1.85486,-0.0705 1.85486,-0.0705 11.56903,-20.84192 11.56903,-20.841934 4.8966,-5.650706 C 240.86595,45.16998 268.69758,19.304263 282.43175,13.52 c 1.88885,-0.795504 5.37174,-1.686357 5.6734,-1.451138 0.0765,0.05962 -0.0297,12.956254 -0.23584,28.659175 -0.37187,28.32332 -0.3698,28.596337 0.25918,34.27157 0.34872,3.146451 0.63402,6.182327 0.63402,6.746412 l 0,1.025595 0.82685,-0.330704 c 0.45477,-0.181877 4.61532,-1.602548 9.24567,-3.15704 l 8.41881,-2.826347 14.58261,-2.816392 c 65.5094,-12.652062 107.27549,-17.866432 119.51714,-14.921353 0.82685,0.198921 1.82012,0.553758 2.2073,0.788521 l 0.70393,0.426846 -2.71819,1.223234 c -10.06994,4.531653 -19.90128,13.178792 -29.49071,25.938483 -2.42585,3.227839 -9.03801,13.350728 -9.03801,13.836738 0,0.15139 4.37423,0.66459 11.20003,1.31405 l 11.20003,1.06565 21.04705,6.79998 c 11.57587,3.73999 21.92651,7.0401 23.00141,7.33358 8.30098,2.26637 20.70386,6.48018 31.87124,10.82809 40.23501,15.66509 74.95563,36.43965 100.09173,59.88836 2.08477,1.94482 4.35413,4.10761 5.04303,4.80619 2.21162,2.24269 13.61632,17.25235 21.80738,28.70058 19.37297,27.07659 30.68223,46.37513 34.07282,58.14312 0.7966,2.76484 1.41977,8.7918 0.90902,8.7918 -0.12357,0 -1.01768,-0.51668 -1.9869,-1.14816 -1.96134,-1.27789 -0.23552,-0.71791 -30.34395,-9.84586 -9.34149,-2.83206 -17.01975,-5.12172 -17.0628,-5.08815 -0.0431,0.0336 0.94372,2.5839 2.19286,5.66738 1.2491,3.08351 4.08961,10.30406 6.31221,16.04568 l 4.04107,10.43931 2.70655,24.72902 c 1.4886,13.60097 2.70976,25.30928 2.7137,26.01849 0.009,1.59823 -4.48552,36.99769 -4.77227,37.58806 -0.15037,0.30956 -1.15268,-1.11785 -3.62177,-5.15786 -3.14679,-5.14888 -25.32009,-41.86875 -33.77553,-55.93362 -1.99613,-3.32037 -3.71702,-6.03704 -3.82421,-6.03704 -0.10721,0 -0.48415,0.46418 -0.83765,1.03152 -0.64039,1.02785 -0.64292,1.10724 -0.70922,22.21396 l -0.0665,21.18244 -2.93321,17.93527 c -2.85591,17.46261 -3.03309,18.35101 -6.7233,33.70965 -3.01668,12.55536 -7.06679,31.24816 -7.46861,34.47048 -0.0603,0.48404 0.20513,0.61179 2.48815,1.19715 3.59048,0.92057 5.58244,1.66754 7.66714,2.87506 5.35236,3.10025 4.57064,7.71388 -2.13588,12.60573 -2.20375,1.60743 -6.02838,3.89003 -8.11779,4.84479 -1.11456,0.50933 -1.27897,0.68235 -1.16049,1.22125 0.78507,3.57123 1.03921,4.99761 1.04001,5.83742 0.003,2.653 -2.23065,11.80609 -5.1642,21.16587 l -3.04945,9.72959 -7.5628,13.62561 -7.56283,13.62561 -5.05794,4.37557 c -2.78188,2.40656 -5.09907,4.34352 -5.14929,4.30435 -0.0502,-0.0391 -0.9076,-5.9321 -1.90525,-13.09542 -1.33569,-9.5902 -2.88168,-18.7684 -5.86348,-34.81022 -2.22723,-11.98232 -4.73789,-25.58408 -5.57926,-30.22616 -0.84134,-4.64206 -1.60434,-8.73026 -1.69547,-9.08486 -0.15965,-0.62103 -0.235,-0.64473 -2.05055,-0.64473 l -1.88482,0 -0.56941,0.9964 c -3.0078,5.26304 -16.95761,16.4637 -38.15827,30.63831 -10.62431,7.10334 -23.16089,14.77173 -24.16592,14.78187 -0.74463,0.007 -17.01124,3.51181 -17.6275,3.79749 -0.86873,0.40271 -10.21166,0.54321 -14.01291,0.21072 -19.78624,-1.7306 -49.61986,-10.12652 -84.66363,-23.82639 l -8.47492,-3.31315 -0.32512,1.54508 c -1.27548,6.06159 -3.26957,16.31641 -3.18551,16.38196 0.0562,0.0439 1.12497,-0.085 2.37505,-0.2864 6.60134,-1.06322 15.24593,-1.07269 21.74232,-0.0238 15.28556,2.46792 27.49826,9.23491 37.21429,20.62032 1.33406,1.56327 2.69449,3.23794 3.02311,3.72146 l 0.59753,0.87911 -1.23712,0.87489 c -3.51175,2.48351 -11.21332,10.93919 -22.25743,24.43691 -4.94711,6.04616 -11.97339,14.95342 -12.48126,15.82253 -0.2899,0.49616 -0.0647,0.80178 2.25132,3.05602 4.70061,4.57509 20.05793,23.21081 27.81689,33.75504 3.89028,5.28681 8.17022,10.93114 9.51097,12.54298 1.34079,1.61183 2.74133,3.31685 3.11229,3.78896 0.54707,0.69619 1.46954,4.3699 4.88271,19.4452 l 4.2082,18.58681 -1.35765,25.68608 c -0.74669,14.12733 -2.50984,42.77733 -3.91806,63.66666 l -2.56046,37.98058 0.6208,6.76627 c 0.34144,3.72144 0.56691,6.80826 0.50109,6.8596 -0.0658,0.0513 -1.11429,-0.22645 -2.32988,-0.61732 l -2.21012,-0.71064 -4.55857,3.46341 -4.55855,3.46343 -0.044,23.43644 c -0.0379,20.18151 0.015,23.38875 0.38029,23.09314 0.23335,-0.18882 6.13341,-5.56563 13.11122,-11.94849 6.97779,-6.38285 12.79462,-11.63692 12.92628,-11.6757 0.13168,-0.0388 0.86847,0.56695 1.63735,1.34608 l 1.39797,1.41664 0.9135,-0.52554 c 0.50245,-0.28903 7.26608,-7.65729 15.03033,-16.3739 l 14.1168,-15.84837 14.54919,-13.92655 14.54916,-13.92652 7.87268,-4.68047 c 4.32995,-2.57424 7.91858,-4.78978 7.97475,-4.92341 0.0562,-0.13362 -0.47918,-6.52028 -1.18964,-14.19259 l -1.29175,-13.94967 2.80341,-22.97591 2.80344,-22.97592 3.19497,-7.61956 3.19498,-7.61956 18.48369,-31.18159 c 10.16605,-17.14988 18.59374,-31.27069 18.7282,-31.37959 0.13446,-0.10888 6.85472,-2.04473 14.93396,-4.30184 l 14.6895,-4.10388 23.27556,-1.55441 23.27556,-1.55441 -4.83721,-3.64718 -4.8372,-3.64717 -0.30624,-2.33618 c -1.13522,-8.65979 -0.47774,-18.98159 1.76985,-27.78451 3.59399,-14.07624 12.01512,-25.33605 23.51153,-31.4371 l 1.71744,-0.91141 1.09667,2.73929 c 3.72115,9.29465 7.08973,22.60159 8.71483,34.42609 0.64353,4.68243 0.92553,18.80281 0.46351,23.21037 -0.72873,6.95241 -2.31829,14.18678 -4.21644,19.18995 l -0.87627,2.30966 1.25386,-0.13403 c 0.68958,-0.0737 4.58431,-0.20488 8.65493,-0.29147 l 7.40111,-0.15743 0.17779,1.02963 c 0.0978,0.56628 0.81084,6.14643 1.58462,12.40033 0.77375,6.2539 1.45156,11.41111 1.50622,11.46046 0.0546,0.0493 6.36171,-1.92435 14.01568,-4.38596 7.65397,-2.46162 14.99873,-4.68589 16.32168,-4.9428 8.33421,-1.61854 17.98954,-2.98126 22.06536,-3.11425 2.07449,-0.0677 2.25836,-0.0336 2.78717,0.51717 0.88588,0.92261 2.0069,3.78092 2.7961,7.12936 1.28495,5.45178 2.66507,15.22366 3.03502,21.48935 l 0.18572,3.14549 -2.09301,4.0199 -2.09303,4.01987 -0.22481,11.56935 -0.22485,11.56936 -2.36349,4.19393 -2.36349,4.19392 1.38949,1.43441 c 4.14886,4.28296 7.815,13.09497 10.21518,24.55332 l 0.81572,3.89423 0.98341,0.27728 c 1.50232,0.42358 3.90793,2.24812 4.75868,3.60919 1.65983,2.65547 2.07719,4.56386 2.08706,9.54264 0.0123,6.29602 -1.33526,12.93167 -4.3185,21.26274 -1.94478,5.43111 -0.16834,4.34896 -14.00046,8.52858 -6.58171,1.98878 -12.1164,3.73266 -12.29929,3.87527 -0.1829,0.14262 -1.10002,1.03972 -2.03802,1.9936 l -1.70547,1.73428 -40.83024,14.64265 c -22.45663,8.05346 -46.47732,16.73096 -53.37931,19.28335 -6.90199,2.5524 -12.62372,4.64072 -12.71494,4.64072 -0.0912,0 -1.36424,-0.62832 -2.82894,-1.39626 l -2.66308,-1.39625 -10.02877,1.51791 -10.02881,1.51788 -17.70005,-0.36742 c -9.735,-0.2021 -17.72949,-0.33597 -17.76551,-0.29749 -0.036,0.0384 -5.12015,6.76931 -11.29811,14.95741 -6.17797,8.1881 -11.44313,14.97893 -11.70036,15.09075 -0.25722,0.1118 -1.36348,0.92787 -2.45832,1.81348 -4.57753,3.70268 -12.70707,13.65008 -23.25897,28.45991 -6.18994,8.68772 -10.91732,15.70841 -11.27536,16.74517 -0.18737,0.5426 -0.41685,1.14131 -0.50993,1.33047 -0.10934,0.2223 0.95956,1.23709 3.02338,2.87016 l 3.19263,2.52625 0,2.986 0,2.98598 -26.98533,29.81091 c -14.84192,16.396 -26.95276,29.9223 -26.91298,30.05835 0.0398,0.13615 2.6529,5.46981 5.80695,11.85263 5.20268,10.52864 6.4314,13.32305 13.24685,30.12652 4.13175,10.1867 7.58254,18.706 7.66841,18.9317 0.12673,0.333 -0.0325,0.4103 -0.84633,0.4103 l -1.00251,0 -12.01501,-15.7666 c -11.46789,-15.04874 -12.12919,-15.98021 -14.52192,-20.45562 -1.37876,-2.57898 -8.85371,-16.66337 -16.61095,-31.2988 l -14.10411,-26.60986 -4.35836,-13.65468 -4.3584,-13.6547 -0.91154,-21.98141 -0.91154,-21.98143 2.96206,-25.20317 c 1.62917,-13.86175 2.93071,-25.23459 2.89231,-25.273 -0.0383,-0.0384 -2.01056,1.22327 -4.38264,2.8037 -4.91897,3.27731 -3.53778,2.79605 -16.05397,5.5936 -4.79572,1.0719 -8.81327,2.01052 -8.92792,2.08579 -0.11461,0.0753 0.38784,6.30875 1.11661,13.85211 1.04084,10.77393 1.52128,17.78777 2.2404,32.70551 l 0.91539,18.9903 -0.51547,20.56485 -0.51548,20.56487 4.79763,3.5763 c 2.63866,1.96696 5.91992,4.42412 7.29168,5.46034 l 2.4941,1.88402 -3.47158,16.2927 c -1.9094,8.961 -3.53781,16.51794 -3.61871,16.79337 -0.11297,0.38444 0.94315,1.52649 4.54982,4.92026 10.31759,9.70822 20.7818,20.52701 27.97775,28.92565 6.52426,7.6146 12.42846,16.4373 13.45932,20.112 l 0.21603,0.7701 -3.24973,-0.067 -3.24972,-0.067 -20.49275,-22.7058 c -11.27102,-12.48812 -20.74845,-22.97269 -21.06097,-23.29915 l -0.56824,-0.59341 -3.00149,3.89268 c -2.85292,3.70016 -3.70867,4.55922 -3.36376,3.37693 0.0847,-0.29005 1.21348,-8.11061 2.50856,-17.37901 l 2.35466,-16.85166 -1.27597,-0.88293 c -0.70179,-0.48561 -1.59498,-0.94537 -1.98486,-1.02165 -0.53615,-0.10495 -5.42556,1.68272 -20.06715,7.33697 -10.64707,4.11163 -19.40718,7.37178 -19.46696,7.2448 -0.34958,-0.74297 13.61353,-8.54932 20.56827,-11.49914 6.62785,-2.8111 11.09169,-3.93148 15.66416,-3.93148 2.61853,0 2.94906,-0.0562 5.01405,-0.85295 l 2.21069,-0.85296 1.80788,-5.12945 1.80784,-5.12944 -8.23544,-6.33282 c -4.5295,-3.48305 -8.16866,-6.41708 -8.08705,-6.52007 0.0816,-0.10297 0.96669,-0.38041 1.96682,-0.61653 1.35853,-0.32073 1.8184,-0.5375 1.8184,-0.85707 0,-0.93508 -5.72179,-35.77544 -6.0037,-36.55676 -0.16597,-0.46011 -0.57852,-9.54706 -0.91678,-20.19323 l -0.61496,-19.35669 1.51409,-11.80894 c 0.83275,-6.49492 1.59059,-12.19346 1.6841,-12.66343 l 0.16999,-0.85448 -13.92716,2.20605 c -12.068,1.91157 -17.95258,3.01929 -44.08234,8.29822 -16.58536,3.35069 -30.72447,6.09159 -31.42024,6.09089 -0.69577,0 -7.73761,-0.47544 -15.64852,-1.05502 -7.91092,-0.57955 -14.70987,-1.05375 -15.10878,-1.05375 l -0.72529,0 0.002,14.1255 c 0.001,7.76902 0.19982,22.35463 0.44155,32.41244 0.4034,16.784 0.56507,19.92482 1.96705,38.21505 0.84013,10.96045 1.62238,20.2268 1.73832,20.59187 0.20046,0.63129 0.24988,0.5911 1.0091,-0.82056 0.43908,-0.81639 1.56242,-4.28016 2.49634,-7.69723 5.70011,-20.85613 12.2536,-38.05602 17.53686,-46.02613 1.67778,-2.53103 4.68755,-5.4934 5.38036,-5.29564 0.22046,0.0629 -1.42482,6.9519 -4.88846,20.46859 -2.87141,11.20556 -5.3554,20.7007 -5.51998,21.10032 -0.16456,0.39964 -0.37893,1.09585 -0.47638,1.54717 -0.0975,0.45131 -1.25995,4.61862 -2.58335,9.2607 -5.51348,19.33916 -8.98538,31.83835 -8.98538,32.34786 0,0.29852 2.6384,13.62026 5.86312,29.60368 3.2247,15.98356 5.8631,29.23506 5.8631,29.44796 0,0.2128 -0.17453,0.3869 -0.38785,0.3869 -0.32384,0 -8.63231,-16.1114 -8.63231,-16.7394 0,-0.1025 -3.24432,-8.3479 -7.20958,-18.32332 l -7.20959,-18.13682 -3.1696,-31.83642 -3.16959,-31.83638 1.06595,-19.34197 c 0.58626,-10.63809 1.33546,-23.77304 1.66489,-29.18879 1.18776,-19.52667 1.51167,-26.21819 1.27766,-26.39534 -0.13097,-0.0991 -4.8384,-1.56525 -10.46097,-3.25797 -5.62257,-1.6927 -10.32397,-3.15604 -10.44756,-3.25186 -0.12359,-0.0958 -0.38713,-5.21307 -0.58563,-11.37162 l -0.36091,-11.19741 -2.79694,-1.28353 -2.79693,-1.28351 6e-4,-3.33322 c 3.1e-4,-1.83327 0.27436,-13.13088 0.60891,-25.10576 0.34175,-12.23296 0.49486,-21.88891 0.34944,-22.03811 -4.72356,-4.84675 -26.22845,-27.89377 -26.16086,-28.0369 0.30993,-0.65618 3.75493,-4.68162 4.0045,-4.67921 0.16536,0.002 5.83533,5.95962 12.59992,13.24004 6.7646,7.2804 12.36129,13.18875 12.43711,13.12962 0.3145,-0.24523 -0.61893,-10.59257 -1.44314,-15.99735 -0.49906,-3.27269 -0.8823,-6.95014 -0.87537,-8.40004 0.007,-1.41841 0.66861,-14.55336 1.47076,-29.18879 l 1.45847,-26.60986 5.29719,-10.87794 c 2.91345,-5.98288 5.24234,-10.92074 5.1753,-10.973 -0.0671,-0.0522 -3.68888,3.12361 -8.04854,7.0575 -4.35967,3.93387 -8.06198,7.13095 -8.22735,7.10458 -0.16537,-0.0263 -1.06359,-0.68093 -1.99605,-1.45461 l -1.69538,-1.40669 0.58641,-1.75837 c 1.50632,-4.51668 4.02553,-9.55084 7.50868,-15.00467 5.95803,-9.32885 12.22261,-16.15085 21.43745,-23.34494 6.79597,-5.30563 12.79094,-8.95933 21.05992,-12.83516 15.48908,-7.26006 34.50692,-11.75762 55.17714,-13.04898 3.66056,-0.22868 4.42806,-0.36016 7.81748,-1.33924 2.06712,-0.59712 3.81179,-1.11914 3.87707,-1.16002 0.3872,-0.24266 -4.73189,-13.26635 -7.17544,-18.25526 -2.814,-5.7453 -5.15626,-9.11574 -7.40451,-10.65496 -0.9209,-0.63048 -1.29084,-0.74243 -2.11059,-0.63871 -0.74026,0.0937 -9.11323,-1.69741 -32.80179,-7.0167 -17.49426,-3.92837 -37.49047,-8.41488 -44.43599,-9.97 -9.08866,-2.03501 -13.15125,-3.05292 -14.49421,-3.63163 -1.0263,-0.44223 -1.93037,-0.88532 -2.00906,-0.98461 -0.0787,-0.0992 0.62723,-0.4191 1.56876,-0.7107 l 1.71184,-0.53019 28.25973,5.74482 c 32.6605,6.63944 59.6116,12.13603 63.28801,12.90738 1.6877,0.35409 6.21747,1.89582 13.33737,4.53943 5.9299,2.20178 10.85717,4.0621 10.94948,4.13407 0.62365,0.48632 -1.0243,0.21814 -7.14352,-1.16251 -3.82635,-0.86331 -6.99985,-1.53209 -7.05223,-1.48621 -0.0524,0.0459 2.08688,6.72116 4.75386,14.83393 l 4.84907,14.75049 17.3153,8.34603 17.31529,8.34601 21.66162,16.4776 21.66158,16.47758 6.44738,10.12818 6.44737,10.12818 1.1443,-1.34383 1.1443,-1.34383 -5.19742,-15.77017 -5.19742,-15.77016 -2.11391,-2.57892 c -1.69112,-2.06317 -17.81205,-21.57287 -36.7868,-44.51969 -1.37456,-1.6623 -2.49919,-3.16528 -2.49919,-3.33994 0,-0.17467 0.41118,-2.49185 0.91369,-5.1493 l 0.91368,-4.83172 14.01135,-15.74205 c 7.70625,-8.65811 14.46323,-16.22786 15.01553,-16.82164 l 1.00415,-1.07961 -1.31537,-2.01009 c -4.23122,-6.46587 -10.80045,-11.51876 -18.96715,-14.58917 -4.87751,-1.83375 -10.32159,-3.0711 -15.48461,-3.51939 -1.12611,-0.0978 -9.50431,0.49959 -26.26122,1.87245 l -24.60751,2.01601 -11.81755,-1.42688 -11.81756,-1.42687 -41.29866,-10.97479 c -24.59095,-6.53485 -41.3308,-10.86895 -41.37809,-10.71321 -0.0436,0.14389 0.72905,5.55191 1.71716,12.01784 1.73593,11.35936 1.78005,11.78908 1.30666,12.72875 -0.33051,0.65608 -0.62776,0.93126 -0.91359,0.84574 -1.02018,-0.30527 -7.92015,3.75017 -10.48369,6.16173 -1.86958,1.75875 -3.89483,4.80555 -4.20247,6.32221 -0.17499,0.86266 -0.10172,1.09158 0.51285,1.6033 l 0.71696,0.59698 -0.86737,0.54073 c -0.7266,0.45298 -0.83254,0.6489 -0.65282,1.20727 0.66291,2.05946 5.39546,7.94252 9.90125,12.30827 2.90702,2.81665 4.20214,3.76398 4.87193,3.56356 0.3525,-0.10546 0.4235,-0.009 0.30791,0.42008 -0.0827,0.30645 -0.23556,1.2693 -0.33987,2.1397 -0.1043,0.87038 -0.24819,1.58251 -0.31974,1.58251 -0.0716,0 -2.57793,-1.48365 -5.56972,-3.29702 -2.99178,-1.81336 -5.4762,-3.264 -5.52093,-3.22365 -0.0447,0.0403 -0.50992,4.66268 -1.03376,10.27184 -1.20107,12.86087 -1.50282,15.49696 -1.82839,15.97284 -0.20465,0.29913 -13.42107,34.92903 -17.74953,46.50759 -0.48204,1.28946 -3.71396,11.68137 -7.18204,23.09313 -4.80192,15.80079 -7.5975,25.66944 -11.72307,41.38377 l -5.41746,20.63512 -0.61202,6.79531 c -2.52224,28.0044 -3.10335,34.87164 -3.20377,37.85968 -0.0628,1.86973 -0.25434,7.61957 -0.42556,12.77742 -0.17124,5.15787 -0.5135,14.4478 -0.76059,20.64428 l -0.44925,11.26636 2.57391,28.4726 c 2.539,28.08671 2.61224,28.73789 5.40425,48.04901 l 2.83037,19.57642 8.26494,32.11939 c 5.64368,21.93262 10.17322,38.77571 14.28186,53.10717 l 6.01691,20.98781 0.45666,12.421 c 0.25117,6.8316 0.53904,13.9772 0.63971,15.8792 0.18033,3.4069 0.17365,3.4581 -0.45131,3.4581 -0.45836,0 -0.78912,-0.2764 -1.19215,-0.9964 z m 249.83631,-70.09771 c 19.87244,-23.11653 37.22444,-41.47461 45.63132,-48.277 1.37975,-1.11644 2.95218,-2.26686 3.49428,-2.5565 l 0.98567,-0.52664 -1.42645,-2.81206 c -1.33898,-2.63965 -1.49085,-2.82933 -2.47691,-3.09366 -6.18404,-1.65771 -17.42917,-11.0099 -30.86868,-25.67242 -5.50849,-6.00977 -11.12982,-12.56752 -11.12982,-12.98388 0,-0.71931 -3.06674,-9.84839 -4.22847,-12.5873 -2.01177,-4.74303 -3.76345,-7.25155 -5.06374,-7.25155 -0.28927,0 -0.8073,0.39966 -1.16971,0.90243 -0.35773,0.49633 -6.53604,6.06155 -13.72952,12.36714 -8.74863,7.66878 -13.08119,11.63598 -13.0855,11.98206 -0.003,0.28455 0.67155,5.41153 1.50018,11.39331 l 1.50658,10.87595 9.62653,27.87675 c 8.02527,23.23978 10.21226,29.2514 13.14799,36.14103 1.93684,4.54537 3.59057,8.25985 3.675,8.2544 0.0844,0 1.7095,-1.81977 3.61125,-4.03206 z m 47.87496,-71.09865 c 13.86155,-24.48414 30.47558,-45.98788 44.67581,-57.8245 1.00503,-0.83774 3.49968,-3.47174 5.54364,-5.85334 2.04401,-2.38159 4.919,-5.59214 6.38893,-7.13453 2.95557,-3.10128 7.00632,-6.43828 7.81537,-6.43828 0.54782,0 0.54812,-0.0152 -0.0615,3.13708 l -0.17596,0.9098 2.52527,-0.15202 c 1.38889,-0.0836 12.50678,-0.57575 24.70646,-1.09367 19.83228,-0.84195 22.69792,-0.91611 27.0605,-0.70028 2.68359,0.13278 5.75873,0.23982 6.83364,0.23789 l 1.95437,-0.003 14.74535,-7.79139 14.74532,-7.79142 29.00246,-8.66112 c 19.91697,-5.94791 30.60367,-9.26384 34.11387,-10.58505 l 5.11142,-1.92393 -2.40538,0.12022 -2.40536,0.12021 -1.80404,-0.945 c -3.00615,-1.57464 -12.19168,-9.15623 -17.40124,-14.36264 l -1.5411,-1.54018 -5.11143,-0.26713 c -15.27477,-0.79832 -47.23852,-2.72867 -47.44232,-2.86512 -0.13026,-0.0872 -0.9682,-3.89465 -1.86209,-8.46095 l -1.62532,-8.30236 -2.02385,-28.7199 -2.02389,-28.71989 -5.69016,-8.49874 c -3.1296,-4.67432 -5.76181,-8.49874 -5.84933,-8.49874 -0.11013,0 -31.40334,13.4454 -32.48219,13.95624 -0.0429,0.0204 -0.51706,3.66696 -1.0537,8.10363 -0.78752,6.51098 -1.05915,8.0667 -1.40847,8.0667 -2.27347,0 -3.29849,-9.78338 -2.71428,-25.90651 l 0.32703,-9.02626 1.93579,-8.65366 c 1.06469,-4.75953 1.9704,-8.67591 2.0127,-8.70311 0.0423,-0.0272 2.10341,-0.44236 4.58023,-0.92256 19.56065,-3.7925 35.68163,-10.39981 44.21377,-18.12142 4.62458,-4.18526 7.20541,-8.77959 7.5691,-13.47437 l 0.17679,-2.28216 -1.32133,-0.46745 c -1.66455,-0.58889 -2.96312,-0.59242 -7.2297,-0.0197 -5.90876,0.79323 -15.78179,3.19122 -26.20847,6.36558 l -4.15435,1.26477 0.17469,0.69058 c 0.0961,0.37983 0.30672,1.07283 0.46805,1.54004 l 0.29335,0.84949 6.99371,0.51729 c 3.84653,0.28453 7.27675,0.51464 7.62267,0.51138 0.34595,-0.003 3.55686,-1.48295 7.13535,-3.2882 3.57847,-1.80526 6.58646,-3.28228 6.68435,-3.28228 0.59756,0 -0.62245,1.04079 -5.57884,4.75929 l -5.56244,4.17319 -8.26848,-0.15746 c -4.54767,-0.0865 -9.55385,-0.22373 -11.12487,-0.30479 l -2.85639,-0.14732 -0.0839,-3.10643 c -0.0461,-1.70855 -0.18146,-3.11041 -0.30067,-3.11526 -0.11925,-0.005 -7.26271,0.80514 -15.87442,1.79995 l -15.65761,1.80876 -0.82319,2.12706 c -0.45278,1.16988 -2.63196,6.55812 -4.84263,11.97388 l -4.01941,9.84681 -15.76475,24.77261 -15.76475,24.77259 -0.19245,20.00699 c -0.10587,11.00385 -0.27815,27.52025 -0.38285,36.70313 l -0.19032,16.69616 -10.89969,10.26538 c -5.99483,5.64596 -21.33741,19.81328 -34.09462,31.48293 l -23.19497,21.21755 -5.72731,7.0934 -5.72736,7.09339 20.67217,26.37742 20.67217,26.37743 1.02466,-1.93754 c 0.56355,-1.06567 1.98032,-3.62558 3.14836,-5.68873 z m 13.76405,-75.78535 c 0.003,-0.2803 1.62381,-2.25054 6.66168,-8.09277 13.44546,-15.59221 24.38686,-25.27965 31.67278,-28.04288 2.11279,-0.80127 3.44047,-1.04891 4.0327,-0.75216 0.32932,0.16501 -0.47368,0.99388 -3.57682,3.69214 -2.20083,1.91366 -11.69982,10.20511 -21.10887,18.42544 -9.40905,8.22034 -17.2368,14.94607 -17.39505,14.94607 -0.15821,0 -0.28708,-0.0792 -0.28642,-0.17584 z m 121.16962,-29.45083 c 0,-0.0474 -1.42031,-10.41297 -3.15627,-23.03452 -1.73596,-12.62159 -3.15591,-23.68683 -3.15546,-24.58946 0,-2.28681 2.66331,-34.8094 2.87079,-35.07116 0.3853,-0.48615 0.74325,-0.13117 1.30969,1.29884 1.6841,4.25149 2.69225,11.71976 3.34052,24.74607 0.58581,11.77084 0.25621,50.4838 -0.47256,55.50559 -0.0982,0.67697 -0.30419,1.23085 -0.45769,1.23085 -0.15346,0 -0.27902,-0.0388 -0.27902,-0.0862 z m -47.50619,-25.42175 c 0,-0.10315 0.13377,-0.29186 0.29727,-0.41935 0.84032,-0.65524 8.01197,-30.16848 10.39204,-42.76598 0.42632,-2.25656 0.85394,-5.34249 0.95024,-6.85761 0.0963,-1.51512 0.29054,-2.75476 0.43156,-2.75476 0.14104,0 0.25695,0.0263 0.25761,0.0586 0,0.0323 0.32967,1.37739 0.73118,2.98921 1.43295,5.75238 1.80931,9.04882 1.80686,15.82525 -0.003,6.603 -0.31996,9.28333 -1.66686,14.06689 -1.34542,4.77835 -3.69641,9.70217 -6.45418,13.51743 -2.66407,3.6856 -6.74572,7.52196 -6.74572,6.34032 z m 31.74368,-9.13175 c -0.42062,-5.48446 -2.59866,-44.23009 -2.50608,-44.5811 0.26886,-1.01946 3.27843,7.02727 4.72573,12.63521 1.41104,5.46751 1.86741,8.68454 2.03545,14.34836 0.22003,7.41721 -0.58869,12.61155 -2.74062,17.60248 -0.43207,1.00203 -0.78557,1.97792 -0.78557,2.16864 0,0.1907 -0.1205,0.34673 -0.26781,0.34673 -0.14729,0 -0.35479,-1.13414 -0.4611,-2.52032 z m -301.67183,80.43701 24.73007,-9.298 31.92735,-1.66245 31.92734,-1.66245 10.91843,-7.47087 c 6.00513,-4.10899 10.95177,-7.59054 10.99253,-7.73679 0.0407,-0.14625 -1.32569,-5.01349 -3.03652,-10.81607 -2.37837,-8.06671 -3.20976,-10.53352 -3.53184,-10.47941 -1.3133,0.22061 -74.80988,22.24828 -75.40518,22.5997 -2.91737,1.7221 -14.53396,2.53079 -29.80024,2.0745 -13.26588,-0.39647 -28.0155,-1.30626 -46.00283,-2.83761 -8.60497,-0.73258 -26.94421,-2.47941 -28.279,-2.69361 l -0.7675,-0.12315 -1.45723,15.01725 c -0.80149,8.25946 -1.40322,15.05827 -1.3372,15.10844 0.066,0.0501 5.12621,0.79 11.24489,1.64412 8.89402,1.2415 14.22996,2.1577 26.60947,4.56888 8.51654,1.65876 15.72149,3.02712 16.01099,3.04074 0.28951,0.0136 11.65492,-4.15932 25.25647,-9.27322 z m 33.92928,-33.23147 c 17.75153,-6.72698 38.52954,-13.64031 50.86485,-16.92394 7.43919,-1.98029 12.43627,-2.93135 16.18535,-3.08048 l 3.18611,-0.12675 -0.85208,-3.77827 -0.85205,-3.7783 -0.003,-21.14269 -0.003,-21.14269 5.99698,-22.46465 c 3.29845,-12.35556 6.72701,-25.15495 7.61914,-28.44309 l 1.62201,-5.97842 -4.53708,-3.67692 c -7.53286,-6.10474 -86.52573,-68.18142 -86.76119,-68.18142 -1.43977,0 -12.21544,2.2482 -17.74939,3.70316 l -7.0658,1.85771 -23.05466,10.5245 -23.05468,10.52449 -10.06079,7.36873 -10.06077,7.36873 -0.19838,3.41587 c -0.10912,1.87876 -1.34779,12.70004 -2.75264,24.04732 l -2.55426,20.63144 -6.2559,25.90652 c -3.44073,14.24857 -6.22026,25.94139 -6.1767,25.98401 0.0435,0.0427 3.37192,-1.75531 7.39637,-3.99544 9.53388,-5.30684 9.28722,-5.17424 9.42466,-5.06708 0.0652,0.0508 -1.35367,4.04504 -3.15299,8.876 -3.65989,9.82642 -2.57237,5.43952 -9.18679,37.05827 -1.39192,6.65376 -2.61465,12.2682 -2.71719,12.47656 -0.11651,0.23674 0.20016,0.75539 0.84446,1.383 0.56698,0.55232 2.21144,2.29661 3.65436,3.87621 1.44291,1.57959 2.72991,2.87199 2.85999,2.87199 0.13008,0 0.62938,-0.15077 1.10955,-0.33508 1.08079,-0.41481 10.36195,-1.85076 16.80868,-2.60059 11.11938,-1.29331 21.41063,-1.77968 31.31742,-1.48004 6.32327,0.19123 10.97577,0.69318 16.48944,1.77898 3.89184,0.76644 32.6899,4.912 34.45566,4.95999 0.42921,0.0117 3.67647,-1.07626 7.21613,-2.41763 z m -67.21389,-40.67328 c 0.1571,-0.11446 2.78874,-0.95002 5.84807,-1.85682 15.54466,-4.6075 28.10587,-7.31514 40.57401,-8.74595 5.27208,-0.60504 15.0064,-0.83794 19.25973,-0.46081 3.38789,0.30038 7.98324,1.0575 8.71949,1.43663 0.66371,0.34175 -0.47165,1.01683 -3.7584,2.23469 -7.66061,2.83853 -24.0908,5.12963 -47.65652,6.6454 -13.86969,0.89213 -23.62059,1.20894 -22.98638,0.74686 z m 454.79073,15.79182 c 8.47739,-2.51835 15.45956,-4.61476 15.51591,-4.6587 0.11371,-0.0887 3.98853,-29.48278 3.98853,-30.25681 0,-0.39662 -0.44219,-0.60961 -2.38066,-1.14667 -1.30936,-0.36275 -2.57201,-0.83571 -2.80587,-1.05098 -0.23389,-0.2153 -0.71292,-1.55195 -1.06455,-2.97036 -1.18736,-4.78966 -5.68887,-16.74302 -8.37773,-22.24629 -1.43859,-2.94434 -3.2965,-5.78484 -4.36909,-6.67975 l -0.91594,-0.76419 1.85154,-4.02795 1.85158,-4.02796 1.43122,-12.54298 1.4312,-12.54297 2.00584,-2.85082 2.00585,-2.85084 -1.6881,-14.84999 c -0.92844,-8.16752 -1.71888,-14.88007 -1.75652,-14.91683 -0.0377,-0.0367 -6.09745,1.10866 -13.46623,2.54536 -8.71035,1.69824 -13.35848,2.7059 -13.28547,2.88017 0.42773,1.02114 6.18239,20.84164 6.07535,20.9251 -0.12196,0.0951 -6.9218,2.3031 -18.92126,6.14401 l -4.42165,1.41532 -2.64414,-2.60333 c -1.4543,-1.43185 -2.74839,-2.73733 -2.87582,-2.90109 -0.12742,-0.16376 -0.8374,-2.75617 -1.57771,-5.76088 -0.74032,-3.00473 -1.42363,-5.72689 -1.51846,-6.04925 -0.39695,-1.34925 0.5855,0.13661 3.3338,5.04194 1.58892,2.8361 3.04944,5.27741 3.24554,5.42511 0.19612,0.14772 1.80683,0.61184 3.57938,1.03136 l 3.22284,0.7628 6.33959,-2.07046 c 3.48677,-1.13874 6.38588,-2.13036 6.44241,-2.20358 0.14335,-0.18567 -3.00288,-18.97613 -3.20351,-19.1326 -0.0897,-0.0699 -5.66469,1.5124 -12.38884,3.51632 -6.72413,2.00392 -12.4413,3.64349 -12.7048,3.64349 -0.26351,0 -1.03007,-0.38813 -1.70349,-0.86252 l -1.22434,-0.86248 -2.07382,1.74167 c -1.14061,0.95793 -3.21085,2.70361 -4.60053,3.87929 l -2.5267,2.13761 -0.35738,8.3596 c -0.30891,7.22585 -0.29865,8.40147 0.0757,8.6685 0.93064,0.66394 14.27885,6.80331 14.73368,6.77661 0.26562,-0.0157 10.74232,-2.3077 23.28155,-5.09355 12.53926,-2.78585 22.91828,-5.0341 23.06447,-4.99612 0.14622,0.038 -7.55381,3.38819 -17.11116,7.44484 -32.08911,13.62031 -30.30152,12.89867 -33.46297,13.50868 -6.67507,1.288 -11.98689,3.72278 -17.28864,7.92463 -3.2389,2.56695 -5.22003,4.70493 -4.79791,5.17776 3.30889,3.70653 9.9302,10.66871 10.14638,10.66871 0.15918,0 2.35198,-0.84374 4.8729,-1.87498 l 4.58348,-1.87497 0.20317,-7.20989 c 0.11169,-3.96544 0.28293,-7.5264 0.38043,-7.91324 l 0.17728,-0.70334 0.29241,0.58612 c 1.31866,2.64328 5.89497,13.70938 5.75589,13.91841 -0.0972,0.14613 -1.13159,1.37394 -2.29846,2.72848 l -2.12164,2.46277 -6.04126,1.24189 c -3.32269,0.68302 -6.31889,1.29603 -6.65822,1.36222 -0.51277,0.0999 -1.42429,-0.69853 -5.39629,-4.72719 l -4.7793,-4.84749 -0.37698,0.8491 c -0.20734,0.46698 -0.94537,2.44373 -1.64004,4.39273 -1.0431,2.92658 -1.18965,3.5768 -0.84154,3.7339 0.23186,0.10461 4.20536,2.33512 8.83003,4.95668 l 8.40844,4.76645 3.16743,-1.86199 c 13.98062,-8.21867 29.65764,-14.3121 41.66184,-16.19331 2.71189,-0.42498 7.95939,-0.80345 7.95939,-0.57404 0,0.0823 -5.64887,2.78605 -12.55305,6.00826 l -12.55307,5.85854 -7.06579,1.90351 c -3.88618,1.04692 -7.50552,2.02312 -8.04297,2.16931 l -0.97719,0.26587 0.0318,3.08349 c 0.0174,1.69592 0.11898,4.00714 0.22551,5.13601 l 0.19367,2.05249 5.55524,5.65173 5.55525,5.65171 1.64831,-0.15104 c 2.71462,-0.24878 2.95324,-0.33658 3.13029,-1.15171 0.0887,-0.40817 0.53689,-3.3972 0.99598,-6.64226 l 0.83476,-5.90015 -1.1117,-3.58009 c -0.61145,-1.96904 -1.05257,-3.62618 -0.98032,-3.68255 0.20052,-0.15633 6.47323,4.44523 6.46003,4.73899 -0.007,0.14136 -0.58496,3.64204 -1.28586,7.7793 l -1.27427,7.52224 -2.0732,2.17113 -2.07316,2.17115 -3.03026,-0.16207 c -1.66666,-0.0892 -3.18667,-0.28383 -3.37785,-0.43267 -0.19116,-0.14885 -2.99868,-2.79643 -6.23894,-5.88353 -4.22102,-4.02146 -5.89248,-5.78299 -5.89533,-6.21287 -0.0114,-1.73581 -0.61094,-10.88723 -0.7187,-10.97123 -0.0693,-0.0541 -1.33114,0.60569 -2.80416,1.466 l -2.67821,1.56423 -2.49744,6.63435 -2.49744,6.63435 3.10447,3.48347 c 7.77764,8.72714 14.97843,12.12987 21.98698,10.3899 2.10873,-0.52353 2.35294,-0.66577 6.2535,-3.64194 l 4.05907,-3.09716 16.06969,-6.12071 c 8.83831,-3.36637 16.24613,-6.12069 16.4618,-6.12069 0.21563,0 0.3863,0.0791 0.37917,0.17584 -0.007,0.0967 -3.08523,1.78482 -6.84029,3.75138 -5.50696,2.88403 -8.14839,4.08558 -13.658,6.21287 l -6.83064,2.63733 -0.0101,5.55358 c -0.007,4.16237 -0.12635,5.94591 -0.47543,7.11963 -0.25616,0.86131 -0.42529,1.589 -0.37583,1.61705 0.82005,0.46544 10.57042,5.33209 10.83976,5.41041 0.22801,0.0663 1.63516,-1.45077 3.58922,-3.86966 l 3.21419,-3.9787 -1.64979,-6.94813 c -0.90737,-3.82145 -1.60508,-7.05269 -1.55041,-7.18053 0.0546,-0.12782 1.90153,2.83016 4.10426,6.57331 2.5638,4.35678 3.91689,6.91721 3.76032,7.11557 -0.13452,0.17042 -2.38782,2.60231 -5.0073,5.4042 l -4.76271,5.09429 -6.86533,-2.67853 -6.8653,-2.67855 -0.18925,-3.82244 c -0.10408,-2.10237 -0.27121,-5.28657 -0.37146,-7.07605 l -0.18222,-3.25358 -1.58299,0.12738 c -4.99217,0.40177 -9.04698,3.70873 -10.67124,8.70316 -0.84254,2.59072 -0.78824,2.99927 0.6122,4.6073 0.96017,1.1025 18.41345,15.45911 18.7936,15.45911 0.0529,0 7.03223,-2.06047 15.50966,-4.57884 z m -37.56236,-15.17341 c 0.262,-1.06381 0.45696,-1.95024 0.43324,-1.96985 -0.0238,-0.0197 -4.83105,-1.02657 -10.68295,-2.23768 l -10.63984,-2.20202 -3.67307,-5.11859 -3.6731,-5.11861 2.77544,-7.47517 2.77548,-7.47517 -9.58477,-5.54014 c -5.27159,-3.0471 -9.58474,-5.61891 -9.58474,-5.71514 0,-0.90791 3.41783,-15.91043 3.694,-16.21476 0.20078,-0.22128 2.52074,-2.54363 5.15547,-5.16077 l 4.7904,-4.75846 7.15957,-4.22006 c 3.93776,-2.32104 7.16036,-4.23246 7.16132,-4.24761 0.003,-0.0354 -11.45199,-7.43234 -11.77597,-7.60463 -0.13428,-0.0714 -0.40597,-4.04784 -0.60378,-8.83649 l -0.35966,-8.7066 -1.82274,-0.1372 c -2.79345,-0.21024 -27.90168,-1.08588 -28.04016,-0.97788 -0.0671,0.0523 -0.19646,8.20455 -0.28751,18.11613 -0.14738,16.0456 -0.0792,20.24408 0.62216,38.3008 l 0.78766,20.27976 1.49787,9.81981 c 1.17027,7.67221 1.49786,10.58875 1.49786,13.33576 l 0,3.51594 2.3302,-0.14805 c 5.28578,-0.33585 25.22834,-0.44669 30.14397,-0.16754 7.73196,0.4391 13.04189,1.0937 16.98638,2.09408 0.99222,0.25162 1.94733,0.46804 2.12247,0.48092 0.17511,0.0129 0.53279,-0.84698 0.7948,-1.91078 z m -89.90705,-88.6558 14.85374,-6.3059 0.96524,-5.04584 c 0.53091,-2.77521 1.017,-5.08617 1.08023,-5.13549 0.0633,-0.0493 2.30371,0.1379 4.97879,0.41602 2.67512,0.27811 4.94065,0.44576 5.03458,0.37254 0.20376,-0.1589 -1.53923,-14.63082 -1.78524,-14.82265 -0.0936,-0.073 -4.36807,1.93091 -9.49865,4.45327 l -9.32829,4.58608 -9.21961,1.27555 c -5.07077,0.70156 -9.25388,1.30948 -9.29576,1.35096 -0.0721,0.0714 -3.18983,24.70857 -3.17916,25.12228 0.007,0.27937 -0.79344,0.60532 15.39413,-6.26682 z m 68.87558,-22.82427 c 3.03843,-2.80459 5.6182,-5.22226 5.73282,-5.37261 0.205,-0.26886 -0.5793,-12.48978 -0.81326,-12.67221 -0.0659,-0.0514 -4.97966,1.3369 -10.91938,3.08516 -5.93969,1.74825 -11.12971,3.18092 -11.53339,3.1837 -1.54582,0.0106 -12.62411,-1.25966 -12.39773,-1.42162 0.13106,-0.0937 7.07105,-1.56184 15.42221,-3.26244 8.35117,-1.70058 15.87191,-3.24497 16.71274,-3.43192 l 1.52881,-0.33995 0.52168,-1.89295 c 0.28691,-1.04114 0.47843,-1.92463 0.42558,-1.96334 -0.0529,-0.0387 -7.33481,-0.14393 -16.18208,-0.23381 l -16.08595,-0.16346 -2.34086,4.54576 -2.34089,4.54578 -3.62129,1.96139 -3.62132,1.96142 0.17731,1.31036 c 0.0976,0.72067 0.44414,3.89511 0.77031,7.0543 0.32617,3.15919 0.67278,6.29786 0.77026,6.97483 l 0.17723,1.23085 16.04642,0 16.04638,0 5.5244,-5.09924 z m -12.74664,-31.1816 c 0.48457,-4.14957 1.44321,-14.63845 1.9017,-20.80727 0.52259,-7.03152 0.52686,-30.3852 0.007,-34.46386 -0.58291,-4.56722 -1.20001,-7.68948 -2.07305,-10.48835 -0.77468,-2.48363 -2.62096,-5.83517 -3.29801,-5.98686 -0.66743,-0.14956 -6.09742,4.18919 -7.95963,6.36004 -7.90882,9.21959 -11.86794,23.9733 -11.27064,42.00011 0.2833,8.55062 -0.3863,7.32795 5.71615,10.43711 l 5.15923,2.62856 1.59125,6.12737 c 0.87519,3.37002 1.65703,6.30823 1.73743,6.52931 0.12255,0.337 0.61715,0.41429 3.06084,0.47843 1.60306,0.0421 3.40174,0.0985 3.99704,0.12556 l 1.08236,0.0491 0.34905,-2.98922 z m -87.00001,-77.54371 c 2.58921,-5.2868 6.17989,-12.63241 7.97929,-16.32359 2.7762,-5.69493 7.61158,-17.35996 10.192,-24.5876 0.59068,-1.6544 0.94974,-4.22161 1.36401,-9.75233 l 0.17731,-2.36723 -19.40902,-5.81496 c -10.67497,-3.19823 -19.47664,-5.76225 -19.55926,-5.69782 -0.0827,0.0644 1.74011,7.0774 4.05053,15.58438 l 4.20081,15.46721 2.42781,17.68377 c 1.33528,9.72607 2.62556,19.00253 2.86724,20.61436 0.24171,1.61183 0.44066,3.45283 0.44217,4.09112 0.003,0.71574 0.10946,1.07516 0.28106,0.93779 0.15311,-0.1225 2.39681,-4.5483 4.98605,-9.8351 z m -85.84449,-38.56282 c 27.28464,-15.32397 40.94964,-23.30031 46.5578,-27.17614 2.53773,-1.75383 4.89774,-3.36281 5.24447,-3.5755 0.60988,-0.37413 0.40571,-0.47403 -6.26775,-3.06663 l -6.89816,-2.6799 -18.94234,-1.09635 -18.94234,-1.09633 -4.05908,-1.37748 c -15.38893,-5.22227 -32.95732,-8.30911 -53.46839,-9.39463 -5.92561,-0.3136 -22.11597,-0.31442 -28.06498,-0.002 -4.98935,0.26249 -12.40268,0.819 -15.67169,1.17647 -1.37758,0.1506 -2.74772,0.13963 -4.2094,-0.0337 -3.08018,-0.36535 -2.89493,-0.25415 -2.5727,-1.54422 0.51492,-2.06141 0.5652,-2.18553 0.88496,-2.18553 0.17466,0 1.24199,0.42824 2.37188,0.95165 l 2.05435,0.95165 2.05729,-0.8055 c 3.2754,-1.2824 11.78977,-4.17061 17.99293,-6.10348 13.1139,-4.08619 23.83332,-6.72069 33.07393,-8.12855 4.5986,-0.7006 11.71524,-0.87632 13.98125,-0.34519 1.31135,0.30735 6.84769,0.57629 26.74277,1.29907 13.79902,0.50129 25.24566,0.95831 25.43704,1.01558 0.19138,0.0573 0.60496,0.80381 0.91904,1.65898 l 0.57106,1.55486 4.20943,1.0331 c 18.97792,4.6577 45.39812,10.88001 45.57221,10.73282 0.11774,-0.0996 3.07456,-4.77015 6.57065,-10.37907 5.68544,-9.12129 6.46499,-10.51581 7.38342,-13.20802 0.56479,-1.65552 4.61779,-11.22367 9.00669,-21.26256 l 7.97978,-18.25253 3.47162,-15.85359 3.47163,-15.85359 4.40139,-6.49168 c 2.42077,-3.57043 6.45862,-9.28748 8.97295,-12.70455 2.83174,-3.84837 4.8258,-6.83747 5.23958,-7.85401 l 0.668,-1.64115 -6.5391,-8.55735 c -3.59649,-4.70655 -6.56367,-8.58368 -6.59371,-8.61585 -0.03,-0.0322 -12.71841,0.28234 -28.19638,0.69894 l -28.14179,0.75748 -11.88271,-1.87121 c -6.53551,-1.02915 -11.78806,-1.94024 -11.67236,-2.02466 0.25205,-0.18388 14.10886,-2.74309 15.88923,-2.93457 1.08849,-0.11706 1.30235,-0.24197 1.68592,-0.98473 0.2416,-0.46786 3.52069,-6.73608 7.28682,-13.92942 3.76616,-7.19334 6.78881,-13.1246 6.71701,-13.18058 -0.0718,-0.056 -2.12335,-0.46113 -4.55899,-0.90033 -3.9954,-0.72046 -4.45351,-0.76128 -4.68478,-0.41741 -0.21387,0.31795 -3.37107,5.99095 -14.9888,26.93237 -0.96326,1.7363 -1.57363,2.38796 -1.57363,1.68012 0,-0.58065 13.27449,-31.36667 13.6125,-31.56997 0.20281,-0.12198 6.05146,-0.40847 12.99698,-0.63665 6.94553,-0.22817 13.32092,-0.48211 14.16755,-0.5643 l 1.53932,-0.14941 -25.94515,-24.05463 -25.94514,-24.05464 -5.51105,-3.01703 c -3.98423,-2.18116 -9.45746,-5.63779 -19.7555,-12.47659 -13.75978,-9.13765 -14.36043,-9.50455 -17.6518,-10.78205 -1.87403,-0.72739 -3.46528,-1.27411 -3.53611,-1.21494 -0.0708,0.0592 -5.58544,6.70145 -12.25471,14.7606 l -12.12595,14.653 -20.76047,20.39698 c -11.41827,11.21834 -21.80544,21.52951 -23.08257,22.91369 -2.15462,2.33518 -2.27362,2.52415 -1.64997,2.61992 0.36967,0.0568 10.21097,0.32867 21.86953,0.60426 11.65857,0.27557 31.07446,0.75729 43.14645,1.07052 12.07198,0.31319 22.94579,0.5704 24.16399,0.57158 1.96176,0.002 2.1989,0.049 2.07467,0.41242 -0.0772,0.22565 -4.71849,8.45478 -10.31405,18.28695 l -10.17371,17.87667 -6.03252,0.0211 c -10.74551,0.0374 -28.07687,0.32682 -28.26302,0.47197 -0.0996,0.0777 0.28194,1.39648 0.84802,2.93059 1.70448,4.61941 2.40128,8.30589 2.4106,12.75335 0.009,4.3711 -0.37725,6.62963 -1.68475,9.84682 -3.93757,9.68854 -14.31683,16.89637 -30.17866,20.95743 -5.75802,1.47423 -11.36881,2.42422 -17.41012,2.94781 l -2.69893,0.23391 -3.5678,-1.27676 c -4.05576,-1.45135 -10.17195,-4.23377 -13.28409,-6.0433 -2.9102,-1.6921 -7.0979,-4.87408 -8.87592,-6.74424 -6.50648,-6.84367 -7.05635,-14.74642 -1.61958,-23.27591 2.71484,-4.25913 5.85653,-7.53121 11.46494,-11.94071 2.08912,-1.64252 3.74039,-3.02621 3.66952,-3.07488 -0.34653,-0.23794 -10.19961,-3.00314 -10.44373,-2.93097 -0.15488,0.0458 -9.01141,7.78487 -19.68121,17.19796 l -19.39963,17.11471 -10.23764,7.44373 c -5.63069,4.09404 -10.39872,7.44372 -10.59562,7.44372 -0.8755,0 -2.45666,-1.0662 -3.13958,-2.11704 -2.94605,-4.53324 -0.75936,-15.38864 6.6812,-33.1674 2.22818,-5.32407 6.41522,-14.27793 9.07216,-19.40058 1.01768,-1.96211 1.64117,-3.4526 1.44122,-3.44535 -0.19381,0.007 -0.9437,0.19163 -1.66639,0.41028 l -1.31397,0.39753 -20.43171,33.29163 -20.4317,33.29163 -5.06153,15.08949 -5.06154,15.08949 14.94883,18.20213 14.94884,18.20215 10.10534,10.2794 10.10536,10.27938 23.7021,15.61997 23.70211,15.61993 29.76653,12.64463 29.76653,12.64463 16.96524,4.97595 16.96522,4.97593 5.28452,-2.9773 c 2.90648,-1.63753 14.55271,-8.18267 25.88053,-14.54476 z m 40.59073,-62.97008 c -9.19913,-3.49145 -15.64542,-6.58684 -17.44929,-8.3788 -0.50854,-0.50519 -1.25107,-2.74768 -3.18287,-9.61237 -1.38575,-4.92442 -2.51956,-9.13811 -2.5196,-9.36377 0,-0.71361 0.52646,-0.44343 0.72231,0.37069 0.99493,4.13524 11.25367,14.65652 25.20378,25.84872 3.08669,2.47648 3.70386,3.15305 2.86326,3.13889 -0.20671,-0.003 -2.74362,-0.905 -5.63759,-2.00336 z m -22.24973,-38.92204 c -3.8862,-0.16841 -14.16918,-0.57958 -22.85109,-0.91374 l -15.78528,-0.60754 -12.77856,-2.71292 c -7.02821,-1.4921 -13.37778,-2.7807 -14.11012,-2.86353 -1.67965,-0.19 -1.88251,-0.61824 -1.90328,-4.01802 -0.0123,-2.02177 0.10833,-2.71311 0.67527,-3.8684 2.09482,-4.26882 6.67357,-6.77353 14.64297,-8.01009 2.04646,-0.31755 4.1209,-0.40896 9.11397,-0.40155 6.24502,0.009 7.19283,0.0789 27.92345,2.05288 11.80243,1.12382 21.52737,1.99002 21.61093,1.92484 0.0836,-0.0652 -2.3699,-4.68578 -5.45212,-10.26804 -3.08225,-5.58222 -5.6023,-10.43801 -5.60017,-10.79065 0.007,-1.01432 1.71519,-7.40861 3.20207,-11.98084 3.43304,-10.55675 7.29337,-17.09187 10.97254,-18.5754 0.773,-0.31169 0.86293,-0.30963 0.86293,0.0197 0,0.20224 -2.35528,6.47839 -5.23398,13.94701 l -5.23398,13.57931 5.21676,12.25858 5.21675,12.25859 0.99441,0.0726 c 4.00829,0.29259 8.15685,1.76293 10.81165,3.83191 3.42424,2.66861 5.48156,7.36889 5.30214,12.11356 l -0.0858,2.2689 -6.31411,0.51353 c -7.11414,0.57859 -11.03028,0.60987 -21.19738,0.16927 z m 17.40647,-2.67188 c 5.02591,-0.25359 9.19867,-0.50832 9.27279,-0.56611 0.0741,-0.0578 -0.007,-0.81508 -0.18029,-1.68284 -0.79221,-3.96787 -4.30162,-6.85383 -11.1361,-9.15785 -4.94895,-1.66838 -6.23688,-1.80846 -33.10254,-3.60016 -13.64299,-0.90987 -27.32371,-1.82431 -30.40164,-2.03208 l -5.59619,-0.37779 -1.70108,0.60724 c -3.07838,1.09893 -6.59931,4.54792 -9.38079,9.18913 -0.73067,1.21922 -1.32849,2.25893 -1.32849,2.31046 0,0.21834 1.96401,0.47851 13.26295,1.75698 l 11.90994,1.3476 0.35786,-1.08877 c 0.70351,-2.14035 3.8578,-4.91523 5.58734,-4.91523 0.36296,0 0.91771,0.22207 1.23272,0.49351 0.48949,0.42176 0.57278,0.865 0.57278,3.0482 l 0,2.55469 0.90201,0.1148 c 0.81708,0.10401 10.71298,0.86057 24.88793,1.90277 2.93933,0.21608 5.40566,0.34503 5.48071,0.28649 0.075,-0.0585 0.45558,-0.96546 0.84558,-2.01536 1.17331,-3.15872 2.87406,-4.6843 4.55599,-4.08676 1.31529,0.46731 3.04878,2.78175 4.46841,5.96596 0.10059,0.22565 0.22099,0.40934 0.2675,0.4082 0.0465,0 4.19673,-0.20953 9.22261,-0.46308 z M 519.829,376.61235 c -5.89335,-0.70258 -10.54553,-1.80228 -15.37754,-3.63503 -5.05646,-1.91787 -10.28666,-4.65013 -14.46094,-7.55441 -1.00599,-0.69992 -2.01018,-1.32404 -2.23159,-1.38697 -0.30527,-0.0867 -0.3188,-0.1839 -0.0561,-0.4021 0.27165,-0.22561 0.53131,-0.18147 1.20268,0.20449 1.18928,0.68365 9.46784,3.5099 15.13963,5.16857 15.61413,4.56622 28.26876,6.15259 34.89019,4.37379 0.82162,-0.22073 1.4379,-0.27398 1.61076,-0.13919 0.53065,0.41378 -5.45976,2.27 -9.52451,2.95132 -2.13369,0.35766 -9.42054,0.63076 -11.19261,0.41953 z m -2.25503,-9.97389 c -10.63018,-1.745 -17.85067,-4.28642 -22.80208,-8.02575 -3.72445,-2.81272 -5.90755,-5.90413 -6.83313,-9.67625 -1.69751,-6.91793 1.58094,-16.17782 8.83997,-24.96819 l 1.67742,-2.03131 3.78697,-1.30419 c 17.40858,-5.99532 32.52916,-7.70937 42.99944,-4.87435 8.60354,2.32959 13.95852,7.73797 16.28316,16.44571 0.70616,2.64504 1.16412,13.49134 0.60754,14.38848 -0.17309,0.27901 -0.92426,1.5342 -1.66924,2.78932 -5.64638,9.51282 -17.4608,15.50512 -33.8223,17.15471 -4.07197,0.41054 -6.98762,0.44326 -9.06775,0.10182 z m 16.01541,-3.25709 c 11.19251,-1.77853 19.18625,-7.37553 23.49695,-16.45205 2.52391,-5.31423 1.92843,-13.20182 -1.39427,-18.46804 -1.01342,-1.6062 -1.78741,-2.40807 -3.98959,-4.13323 -2.39948,-1.87973 -3.11533,-2.28518 -5.87733,-3.32892 -5.37006,-2.02934 -10.50662,-2.75727 -18.02832,-2.55498 -4.18434,0.11254 -5.03572,0.2107 -8.33428,0.96089 -13.11621,2.98305 -22.02197,9.10123 -26.04764,17.8946 -1.19899,2.61898 -2.10317,6.68199 -1.86428,8.37719 0.80065,5.68152 4.90182,11.13605 10.6691,14.18992 4.45442,2.35869 8.51241,3.26225 15.71854,3.49991 2.76363,0.0912 5.12014,0.24008 5.23671,0.331 0.47725,0.37214 7.4063,0.16169 10.41441,-0.31629 z m -169.02608,-0.0143 c -9.79996,-1.02798 -22.21182,-5.42606 -32.90519,-11.65971 -3.91996,-2.28512 -3.65521,-2.10879 -3.42983,-2.28451 0.20792,-0.16214 0.32373,-0.13399 8.20706,1.99499 12.668,3.42113 25.1726,6.13712 33.50863,7.27804 4.71066,0.64471 12.42194,0.89585 15.09335,0.49153 1.04204,-0.15772 2.49055,-0.49031 3.21894,-0.73906 0.72837,-0.24877 1.38423,-0.40561 1.45741,-0.34853 0.26893,0.20969 -3.73034,2.30732 -6.11501,3.20732 -3.82984,1.44546 -7.59575,2.10507 -12.60233,2.20726 -2.31518,0.0473 -5.21005,-0.019 -6.43303,-0.14733 z m 106.70716,-69.81735 c 0,-0.13251 -0.20295,-0.1802 -0.45101,-0.10597 -0.56886,0.1702 -0.56706,0.002 0.009,-0.86716 0.86543,-1.30495 1.90573,-13.38944 2.14822,-24.95458 0.24589,-11.72859 -0.35259,-16.72682 -2.29464,-19.16281 -0.48976,-0.61432 -0.77537,-1.11695 -0.63472,-1.11695 0.53054,0 3.40562,2.22864 4.70062,3.64367 5.68571,6.21287 6.64581,15.62968 2.84577,27.91112 -1.07926,3.48802 -2.64991,7.31007 -4.3973,10.70026 -0.72873,1.41391 -1.32497,2.8706 -1.32497,3.23714 0,0.36653 -0.1353,0.73162 -0.30067,0.81131 -0.16538,0.0797 -0.30067,0.0365 -0.30067,-0.096 z M 318.35322,501.30813 c 0.16563,-2.39985 0.7911,-10.84826 1.13434,-15.32197 0.1228,-1.60041 -1.47852,-2.76276 -15.47035,-11.22927 l -12.9796,-7.854 -12.33757,-11.74384 -12.3376,-11.74383 -17.43897,-26.86045 c -9.59145,-14.77325 -17.52027,-26.7908 -17.61962,-26.70565 -0.0994,0.0851 -1.08033,2.90679 -2.17994,6.27034 l -1.9993,6.11553 0.48488,11.81975 0.48489,11.81972 -2.40457,12.66021 -2.40457,12.66019 -9.31917,19.45919 c -7.96499,16.63156 -9.24798,19.48367 -8.82928,19.62766 0.26945,0.0927 12.53182,2.64259 27.2497,5.6665 l 26.75982,5.49804 27.21082,1.31316 c 14.96596,0.72225 27.54908,1.34794 27.96251,1.39043 0.41342,0.0425 1.44371,0.0931 2.2895,0.11239 l 1.53779,0.0351 0.20629,-2.98923 z m 250.4661,-27.5607 c 4.03297,-1.6289 7.16682,-4.30022 7.8236,-6.6689 0.28941,-1.04367 -0.15536,-1.13349 -3.92193,-0.7921 -5.2135,0.47255 -7.30835,1.18719 -9.27736,3.16497 -1.59655,1.60365 -1.69249,2.18565 -0.73514,4.45956 l 0.63502,1.50839 1.54486,-0.35409 c 0.84964,-0.19476 2.61858,-0.78777 3.93095,-1.31783 z m -8.37457,-1.83601 c 0.61649,-0.79134 1.40429,-1.84147 1.75064,-2.33363 0.89023,-1.26498 6.41661,-5.14909 8.64234,-6.0741 l 1.8685,-0.77656 -2.98619,-0.90756 c -6.80315,-2.06763 -66.7935,-17.68575 -67.07853,-17.4635 -0.11778,0.0918 -0.74976,11.92643 -0.63996,11.98354 0.0483,0.0251 8.13829,2.43749 17.97779,5.3608 9.83949,2.92333 22.62558,6.72992 28.4135,8.4591 5.78795,1.72914 10.61521,3.15444 10.72727,3.16732 0.11203,0.0129 0.70814,-0.62408 1.32464,-1.41541 z m 2.06677,-17.14123 c 0.0819,-0.29013 2.0517,-10.91941 4.37736,-23.62064 2.32565,-12.70123 6.04811,-31.95966 8.2721,-42.79651 l 4.04364,-19.70335 0.18618,-16.75333 c 0.16285,-14.6532 0.13164,-16.69453 -0.24887,-16.28442 -0.23927,0.2579 -2.42278,3.38474 -4.85224,6.94851 l -4.41717,6.47958 -1.61248,5.47727 c -1.21144,4.11504 -3.17206,12.99896 -7.88346,35.72106 l -6.27096,30.2438 -11.98966,13.12841 c -6.59431,7.22065 -12.0446,13.24004 -12.11171,13.37644 -0.0714,0.14515 6.52129,1.90902 15.8984,4.25354 8.81123,2.20306 16.11934,4.01718 16.24021,4.03136 0.12089,0.0141 0.28679,-0.21159 0.36866,-0.50172 z m -64.91463,-7.15385 c 0.289,-2.74185 0.45552,-5.03972 0.37006,-5.10638 -0.22556,-0.17586 -23.45259,-5.29058 -23.6729,-5.21288 -0.10194,0.0359 0.41721,3.44732 1.15368,7.58085 l 1.33899,7.5155 9.94527,0.69136 9.94526,0.69136 0.1971,-0.58729 c 0.10833,-0.32302 0.43354,-2.83065 0.72254,-5.57252 z m -25.92572,-0.46571 c -2.2499,-2.80459 -4.2414,-5.21692 -4.42556,-5.36075 -0.2203,-0.17199 -4.91358,-0.39584 -13.7148,-0.65411 -7.35895,-0.21592 -14.83441,-0.45701 -16.61213,-0.5357 l -3.23223,-0.14309 0,-0.74658 c 0,-0.41062 -0.44908,-1.47614 -0.99795,-2.36783 -0.54888,-0.89171 -1.17173,-1.95962 -1.38412,-2.37311 -0.29151,-0.56754 -0.72865,-0.85489 -1.78326,-1.17225 -1.189,-0.35779 -2.33757,-0.41881 -7.71122,-0.40979 -3.47276,0.006 -7.80244,0.14067 -9.6215,0.29958 -4.62341,0.40396 -14.58557,1.44293 -15.46023,1.61239 -0.50867,0.0985 0.57588,0.37728 3.60807,0.92718 6.99597,1.26881 15.39945,3.03591 20.65707,4.34387 l 4.89617,1.21805 2.08264,-1.6115 c 1.4529,-1.1242 2.12999,-1.50979 2.23926,-1.27523 0.0861,0.18493 0.55251,1.54614 1.03635,3.02492 l 0.87971,2.68867 13.78025,2.41416 c 7.57913,1.3278 13.95085,2.3631 14.1594,2.30071 0.20855,-0.0624 0.38696,-0.5124 0.3965,-0.99999 0.0101,-0.4876 0.11327,-1.30836 0.23053,-1.82391 l 0.21317,-0.93737 2.21689,2.34405 c 1.21927,1.28923 2.26679,2.38894 2.32779,2.4438 0.0913,0.0821 9.38528,1.80652 10.09371,1.87284 0.11889,0.011 -1.62464,-2.27443 -3.87451,-5.07901 z m -278.68238,-7.4746 c 2.26397,-7.51616 5.8841,-18.72875 8.01364,-24.82062 4.90559,-14.03318 8.50856,-21.86503 11.07785,-24.0802 0.49204,-0.4242 2.39085,-2.40658 4.21957,-4.40525 l 3.32494,-3.63395 1.78332,-4.33728 c 0.98084,-2.38551 5.51025,-13.51594 10.06538,-24.73428 6.12492,-15.08443 8.49707,-20.62531 9.1076,-21.27361 0.45406,-0.48214 12.12332,-12.57127 25.93169,-26.8647 l 25.10612,-25.98806 2.94091,-1.26909 c 1.61749,-0.69797 3.03817,-1.26907 3.15705,-1.26907 0.11888,0 0.41925,3.63981 0.66749,8.08846 0.38838,6.96023 0.51421,8.0754 0.90201,7.99485 1.46193,-0.30364 2.10769,-0.28971 2.27441,0.0491 0.28359,0.57625 -0.37801,1.27287 -2.03555,2.14325 -1.42744,0.74956 -1.5758,0.78091 -1.94769,0.41135 -0.36787,-0.36558 -0.495,-0.31925 -1.47552,0.53775 -6.09218,5.32462 -12.83933,20.94669 -17.69737,40.97575 -0.58721,2.42102 -1.06766,4.61932 -1.06766,4.88508 0,0.57177 -0.75484,1.35488 17.01052,-17.64777 10.51949,-11.25217 16.98105,-17.84887 29.70191,-30.3231 20.9917,-20.58468 37.32529,-36.49517 39.00415,-37.99372 0.73039,-0.65195 14.79547,-12.99565 31.25573,-27.43043 l 29.92779,-26.24505 7.78758,-8.96764 c 4.28318,-4.9322 7.92434,-8.96764 8.09148,-8.96764 0.16711,0 3.79581,1.52977 8.06372,3.39949 4.26792,1.86973 7.83131,3.3995 7.91863,3.3995 0.0872,0 -2.172,-2.6876 -5.02062,-5.97246 -2.84866,-3.28486 -5.11305,-6.02418 -5.03199,-6.0874 0.0811,-0.0632 7.17662,4.32248 15.76787,9.74598 l 15.62049,9.86091 34.49304,28.38342 34.49307,28.3834 17.22678,20.7715 17.22674,20.77146 20.42228,36.62621 c 11.23226,20.14442 20.45442,36.60117 20.49365,36.57055 0.0393,-0.0306 -1.67546,-8.38956 -3.81047,-18.57544 -2.13502,-10.1859 -6.74576,-32.39327 -10.24612,-49.34973 l -6.36427,-30.82992 1.00752,-11.89825 c 0.55413,-6.54403 1.09288,-11.89823 1.19722,-11.89823 0.10429,0 2.84056,4.35013 6.08052,9.66699 l 5.89079,9.667 18.13955,5.68843 c 9.97672,3.12868 18.21784,5.66249 18.31357,5.63075 0.0958,-0.0318 -12.48739,-16.73366 -27.9625,-37.11541 l -28.13656,-37.05772 -24.56867,-20.61651 -24.56867,-20.61652 -10.3093,-4.13273 c -5.6701,-2.27299 -23.83953,-9.56699 -40.3765,-16.20887 -16.53697,-6.64188 -44.90811,-17.92534 -63.04702,-25.07436 l -32.97979,-12.99822 -2.02843,1.01765 c -1.50675,0.75594 -2.09039,0.94153 -2.26938,0.72164 -0.40363,-0.49576 -0.27812,-5.01261 0.21056,-7.578834 1.62652,-8.541285 7.39572,-17.416854 16.14404,-24.836555 3.01842,-2.560006 8.02482,-6.215981 10.97839,-8.017097 1.19703,-0.729946 2.12746,-1.365344 2.06763,-1.411988 -0.0598,-0.04669 -1.17449,0.246039 -2.47706,0.650415 -19.55923,6.072086 -66.15884,14.73639 -123.53916,22.969734 -6.4494,0.925407 -11.75002,1.699023 -11.77909,1.719143 -0.0292,0.02007 0.26531,2.091922 0.65424,4.604003 0.38891,2.512072 0.65561,4.607574 0.59265,4.656669 -0.31902,0.248731 -3.01039,-1.314232 -4.08003,-2.369386 -2.91186,-2.872416 -4.60008,-6.807912 -5.85886,-13.65802 -0.64634,-3.517183 -0.91482,-17.408887 -0.45235,-23.404265 0.71735,-9.299309 2.28597,-20.539006 4.26901,-30.589214 0.51649,-2.617657 0.8635,-4.818325 0.77111,-4.890374 -0.2759,-0.215127 -1.81757,0.753232 -3.63189,2.281297 -4.57252,3.851073 -12.32207,12.778692 -20.88932,24.064874 -2.70228,3.559893 -4.0337,5.787199 -11.28182,18.873076 -6.58527,11.889117 -11.75453,20.635958 -26.01854,44.025632 -9.79031,16.05384 -17.91113,29.27711 -18.04625,29.38506 -0.13514,0.10794 -0.30939,0.10794 -0.38722,0 -0.0778,-0.10795 3.55881,-10.69368 8.08146,-23.52385 4.52264,-12.83017 8.18965,-23.408458 8.14891,-23.507293 -0.0407,-0.09883 -7.78039,9.799533 -17.19923,21.996363 -9.41884,12.19683 -17.22718,22.22522 -17.35187,22.28531 -0.1247,0.0601 -1.2123,-0.21915 -2.41689,-0.62053 -6.64589,-2.2145 -25.16715,-3.98261 -49.24533,-4.70117 -10.28209,-0.30685 -49.30421,-0.15498 -60.134414,0.23404 -18.500255,0.66452 -21.843375,0.80588 -22.340894,0.94466 -0.42173,0.11764 -0.02097,0.40527 1.804034,1.2947 1.290411,0.62892 6.675878,3.37962 11.967701,6.1127 30.897291,15.95757 54.339923,30.15777 59.222193,35.87338 0.65584,0.76781 1.28464,1.48541 1.39732,1.59467 0.11267,0.10927 3.38469,-1.49963 7.27115,-3.57533 3.88648,-2.07569 7.15484,-3.77399 7.26304,-3.77399 0.10822,0 1.13427,0.59065 2.28013,1.31256 1.69551,1.06817 2.02848,1.38463 1.7884,1.69975 -0.16225,0.21294 -3.50861,3.06266 -7.43637,6.33267 l -7.14137,5.94549 -2.70604,0.87653 c -13.95539,4.52035 -32.130011,14.62786 -53.970639,30.01486 -7.574121,5.33607 -20.125863,14.8183 -27.78147,20.98752 -8.734878,7.03895 -17.355355,14.23416 -17.199415,14.35577 0.05585,0.0436 3.603425,-0.28884 7.883468,-0.73865 14.282701,-1.50105 70.228926,-7.41109 77.179146,-8.15303 l 6.85746,-0.73204 2.528,-1.48684 c 1.3904,-0.81776 2.58296,-1.48685 2.65014,-1.48685 0.0672,0 0.21492,1.08139 0.32831,2.40309 0.11339,1.3217 0.2707,2.57656 0.34957,2.78855 0.0892,0.23975 1.21948,0.68044 2.98962,1.16561 1.56542,0.42909 2.84622,0.89796 2.84622,1.04193 0,0.14398 -2.34877,0.91764 -5.21949,1.71924 l -5.21949,1.45744 -16.93923,26.5384 c -13.599385,21.30594 -21.750324,34.51223 -41.34056,66.98069 -13.420738,22.24327 -24.365735,40.47674 -24.322211,40.51885 0.04351,0.0421 17.917415,-8.98626 39.719756,-20.06306 21.802363,-11.07679 39.806985,-20.21562 40.010265,-20.30852 1.15519,-0.52796 2.40932,1.33843 3.13147,4.66023 0.57702,2.65415 0.48726,15.58011 -0.15546,22.38849 -1.24499,13.18831 -0.95886,11.89659 -5.49629,24.81241 -2.2348,6.36133 -3.99781,11.61712 -3.9178,11.67949 0.19568,0.15258 9.02962,-3.72282 17.34366,-7.60856 12.11922,-5.66417 21.87549,-10.90694 27.69152,-14.88072 2.76908,-1.89197 5.55326,-4.56797 5.85051,-5.62314 0.10014,-0.35574 0.28492,-0.59729 0.4105,-0.53678 0.12557,0.0605 0.90943,0.98459 1.74189,2.05349 1.38009,1.772 2.63687,4.57378 14.24773,31.76281 7.00377,16.40068 12.77761,29.78549 12.83077,29.74404 0.0532,-0.0414 0.82336,-2.48801 1.71158,-5.43678 z m 24.40863,-74.23056 c -0.89696,-4.45199 -2.89762,-8.41945 -5.33396,-10.57765 -0.62279,-0.5517 -1.93986,-1.33869 -2.9268,-1.74886 -3.7287,-1.54965 -17.64236,-13.71495 -25.65404,-22.43043 -12.90026,-14.03347 -20.24116,-26.67451 -22.37717,-38.53353 -0.52228,-2.8997 -0.58728,-9.32196 -0.11907,-11.76519 2.29121,-11.95612 10.57151,-21.38415 25.69797,-29.25996 2.1498,-1.11933 4.81282,-2.4005 5.91781,-2.84708 l 2.00909,-0.81191 9.86746,0.53536 c 5.42711,0.29447 10.48311,0.59283 11.23556,0.66304 l 1.36811,0.12764 2.23688,-7.29188 c 1.23028,-4.01054 2.30592,-7.29016 2.3903,-7.28805 0.0843,0.002 1.67703,3.87929 3.53922,8.61596 l 3.38582,8.61215 0.30832,16.76304 0.30834,16.76304 -2.86945,30.7127 -2.86946,30.7127 -2.2583,9.61237 c -2.78611,11.85912 -2.84146,12.07407 -3.10834,12.07407 -0.11929,0 -0.45602,-1.18688 -0.74829,-2.63753 z m -1.45771,-29.93788 c 0.32335,-14.75974 0.54038,-18.99456 2.1717,-42.37649 1.3939,-19.97893 2.0186,-27.38564 2.70517,-32.07365 0.49099,-3.35261 0.96901,-6.47278 1.06225,-6.93373 l 0.16953,-0.83808 -4.00143,-0.27817 c -2.20078,-0.15301 -7.50574,-0.53668 -11.7888,-0.85263 -9.04552,-0.66723 -7.85585,-0.88644 -11.6408,2.14512 -9.0675,7.26264 -15.10412,15.28547 -17.8418,23.71228 -4.18919,12.89473 -1.44549,27.16574 8.23427,42.82948 5.91684,9.5746 15.5159,20.52778 25.52888,29.13017 2.20286,1.89254 2.28141,1.9342 3.64657,1.9342 l 1.39521,0 0.35925,-16.3985 z m 157.41818,11.00929 c 11.8623,-1.44097 16.48176,-3.04178 22.61322,-7.83629 4.27435,-3.34236 6.71945,-6.62752 8.30402,-11.15711 0.61993,-1.7721 0.69615,-2.49914 0.68809,-6.56454 -0.009,-4.18274 -0.0813,-4.81114 -0.85868,-7.38511 -0.73025,-2.41824 -2.06746,-5.63285 -3.5415,-8.51375 -0.59356,-1.16005 -3.99795,-2.64884 -8.36934,-3.66004 -5.08021,-1.1752 -13.57402,-1.41855 -20.8967,-0.59871 -7.52126,0.84206 -17.02234,2.88782 -25.11315,5.40731 l -3.85883,1.20164 -1.06231,2.37842 c -2.13916,4.78951 -3.27729,8.53868 -3.94674,13.0011 -1.3014,8.67481 0.68473,15.00448 6.01131,19.15788 3.3699,2.62767 8.66297,4.45056 14.58981,5.02468 3.25958,0.31576 10.96256,0.0885 15.4408,-0.45548 z m 191.587,-45.93745 c 4.98136,-0.48954 5.00361,0.20605 -0.19188,-5.9959 -2.4845,-2.96577 -8.4462,-10.06076 -13.24824,-15.76663 l -8.73094,-10.37433 -1.09923,-0.004 c -0.60455,-0.002 -4.1942,0.12275 -7.97692,0.27806 l -6.87772,0.28239 -3.05955,4.93841 c -2.71994,4.39028 -3.57204,6.11842 -7.67673,15.56931 -3.76411,8.66672 -4.53906,10.66947 -4.19434,10.83963 0.23257,0.11481 1.50528,0.22514 2.82824,0.24519 1.32295,0.02 5.24673,0.11347 8.71949,0.20762 9.30556,0.25229 38.26558,0.0992 41.50782,-0.21942 z m -138.15937,-0.1678 10.98906,-0.15382 7.59205,-14.88029 c 4.17564,-8.18413 7.53401,-14.92554 7.46298,-14.98092 -0.071,-0.0554 -19.25158,-0.67615 -42.62351,-1.37952 -34.00559,-1.02338 -42.56636,-1.2202 -42.85449,-0.98529 -0.42275,0.34464 -23.8607,28.25857 -24.04632,28.63844 -0.0693,0.14178 1.00874,0.86064 2.39558,1.59747 l 2.52157,1.3397 3.71982,-0.55693 c 4.51263,-0.67566 10.59731,-1.37827 16.64869,-1.92252 6.47305,-0.58218 20.46984,-0.58851 24.65511,-0.0113 5.21582,0.71952 9.33731,1.88804 11.2761,3.19699 0.72501,0.48948 0.93139,0.50249 6.01254,0.37926 2.89397,-0.0702 10.20683,-0.19682 16.25082,-0.2814 z m -141.3304,691.37586 c 0,-0.71776 2.96661,-5.21778 5.0245,-7.62169 3.7808,-4.41651 7.48583,-7.30178 11.06145,-8.61407 1.94428,-0.71363 3.92005,-1.08214 4.16243,-0.77636 0.0827,0.10429 -4.05118,3.72094 -9.18621,8.037 -5.13502,4.31616 -9.72472,8.21439 -10.19931,8.66288 -0.7581,0.71645 -0.86286,0.75427 -0.86286,0.31224 z m -14.26778,-6.93014 c 0.94086,-2.42096 5.32851,-9.49784 8.11985,-13.09654 5.45344,-7.0308 11.62936,-12.52612 18.20281,-16.19683 2.39214,-1.33588 9.17281,-4.11139 9.47273,-3.87754 0.18855,0.14703 -35.38419,33.69836 -35.72861,33.69836 -0.14948,0 -0.17954,-0.2374 -0.0668,-0.52745 z m -13.69473,-45.19887 c 0,-0.42573 3.50001,-4.44328 5.9153,-6.79001 1.12807,-1.09605 3.67499,-3.30028 5.65983,-4.8983 8.52306,-6.86204 17.58676,-11.49391 27.31227,-13.95759 3.73966,-0.94733 12.09144,-2.01944 11.86169,-1.52267 -0.13037,0.2819 -49.59158,27.23066 -50.21011,27.35679 -0.3095,0.0631 -0.53898,-0.0171 -0.53898,-0.18822 z M 242.15858,559.60365 c -3.62498,-0.55336 -11.27544,-3.00311 -11.27544,-3.6105 0,-0.61638 12.72917,-0.78654 16.8565,-0.22532 2.44222,0.33209 5.24289,1.07191 5.24289,1.385 0,0.33545 -2.58709,1.93047 -3.70736,2.28568 -1.37597,0.43631 -4.81725,0.51616 -7.11659,0.16514 z"
       id="path4147"
       inkscape:connector-curvature="0" />
  </g>
</svg>
